<svg xmlns="http://www.w3.org/2000/svg" xmlns:xlink="http://www.w3.org/1999/xlink" width="1080" zoomAndPan="magnify" viewBox="0 0 810 809.999993" height="1080" preserveAspectRatio="xMidYMid meet" version="1.0"><defs><clipPath id="69a9032461"><path d="M 199.390625 102 L 627.984375 102 L 627.984375 501 L 199.390625 501 Z M 199.390625 102 " clip-rule="nonzero"/></clipPath></defs><path fill="#ffffff" d="M 597.144531 462.941406 C 595.679688 468.214844 590.699219 489.019531 586.007812 489.898438 C 582.773438 490.507812 580.820312 492.070312 579.902344 492.996094 C 583.742188 524.441406 583.625 553.492188 579.855469 571.355469 C 572.089844 608.125 526.917969 606.324219 526.917969 606.324219 L 541.765625 729 C 541.765625 729 314.859375 725.636719 250.8125 725.636719 C 267.363281 665.179688 263.367188 593.679688 264.480469 593.929688 C 234.382812 562.378906 181.746094 484.71875 190.144531 423.480469 C 198.253906 364.335938 243.625 339.113281 277.753906 328.4375 C 285.082031 301.683594 296.59375 242.527344 307.140625 199.941406 C 317.6875 157.355469 378.066406 103.507812 422.210938 116.792969 C 466.359375 130.074219 463.625 196.101562 463.625 196.101562 C 463.625 196.101562 464.070312 227.261719 451.878906 256.625 C 447.675781 266.753906 441.234375 311.625 458.921875 331.515625 C 487.015625 337.53125 510.886719 345.132812 522.226562 353.15625 C 532.886719 360.699219 542.058594 372.535156 549.816406 386.96875 C 549.261719 385.8125 549.1875 384.453125 549.6875 383.132812 C 550.566406 380.808594 552.921875 379.132812 555.292969 379.132812 C 556.898438 379.152344 558.265625 379.859375 559.101562 381.085938 C 559.105469 381.089844 559.105469 381.097656 559.113281 381.105469 C 560.414062 379.578125 562.320312 378.585938 564.246094 378.585938 C 565.988281 378.601562 567.472656 379.367188 568.375 380.6875 C 569.316406 382.066406 569.484375 383.851562 568.835938 385.566406 C 567.835938 388.210938 565.15625 390.132812 562.46875 390.132812 L 562.410156 390.132812 C 560.726562 390.117188 559.246094 389.351562 558.339844 388.035156 C 558.257812 387.914062 558.21875 387.78125 558.152344 387.664062 C 557.027344 388.8125 555.488281 389.539062 553.9375 389.539062 L 553.882812 389.539062 C 552.355469 389.519531 551.003906 388.824219 550.167969 387.628906 C 555.640625 397.925781 560.398438 409.519531 564.460938 421.820312 C 567.765625 419.21875 573.046875 416.179688 576.628906 419.574219 L 571.5 433.539062 C 573.441406 434.375 575.722656 435.777344 576.925781 438.035156 C 579.269531 442.433594 585.132812 443.308594 588.648438 447.996094 C 592.164062 452.6875 598.609375 457.667969 597.144531 462.941406 " fill-opacity="1" fill-rule="nonzero"/><path fill="#231f20" d="M 518.484375 513.46875 C 518.578125 514.363281 527.882812 603.457031 529.046875 640.625 C 529.089844 642.015625 527.996094 643.179688 526.605469 643.222656 C 526.578125 643.222656 526.554688 643.222656 526.523438 643.222656 C 525.167969 643.222656 524.050781 642.144531 524.007812 640.78125 C 522.851562 603.800781 513.566406 514.886719 513.472656 513.992188 C 513.328125 512.609375 514.328125 511.367188 515.714844 511.222656 C 517.101562 511.074219 518.339844 512.085938 518.484375 513.46875 Z M 344.1875 525.128906 C 344.800781 526.382812 344.28125 527.886719 343.027344 528.496094 C 342.671875 528.667969 342.296875 528.753906 341.925781 528.753906 C 340.992188 528.753906 340.097656 528.226562 339.660156 527.335938 C 339.445312 526.886719 317.742188 482.222656 300.714844 439.652344 C 283.964844 397.777344 247.476562 366.324219 247.113281 366.015625 C 246.050781 365.109375 245.929688 363.519531 246.828125 362.464844 C 247.734375 361.402344 249.324219 361.277344 250.378906 362.175781 C 250.757812 362.5 288.171875 394.726562 305.390625 437.78125 C 322.351562 480.183594 343.976562 524.683594 344.1875 525.128906 Z M 565.691406 384.382812 C 565.1875 385.714844 563.734375 386.785156 562.445312 386.777344 C 561.152344 386.761719 560.519531 385.667969 561.023438 384.335938 C 561.523438 383 562.980469 381.929688 564.269531 381.945312 C 565.558594 381.957031 566.195312 383.046875 565.691406 384.382812 Z M 556.398438 384.355469 C 556.011719 385.371094 554.902344 386.1875 553.917969 386.175781 C 552.933594 386.167969 552.445312 385.335938 552.832031 384.316406 C 553.21875 383.296875 554.328125 382.476562 555.3125 382.488281 C 556.300781 382.496094 556.785156 383.335938 556.398438 384.355469 Z M 581.792969 373.769531 L 578.953125 369.617188 C 577.640625 367.707031 575.480469 366.539062 573.164062 366.488281 L 514.164062 365.210938 C 511.164062 365.148438 508.4375 366.953125 507.316406 369.742188 L 496.457031 396.898438 C 497.96875 398.96875 498.703125 402.484375 496.34375 408.4375 C 491.363281 421.042969 479.058594 434.226562 485.796875 441.257812 C 492.539062 448.289062 550.261719 429.246094 561.394531 424.558594 C 561.394531 424.558594 564.628906 421.140625 568.429688 419.269531 L 582.621094 380.3125 C 583.417969 378.125 583.113281 375.683594 581.792969 373.769531 " fill-opacity="1" fill-rule="nonzero"/><path fill="#231f20" d="M 396.648438 218.847656 C 399.9375 219.367188 403.023438 217.128906 403.546875 213.847656 C 404.066406 210.5625 401.828125 207.472656 398.546875 206.953125 C 395.261719 206.429688 392.179688 208.667969 391.652344 211.949219 C 391.128906 215.238281 393.367188 218.324219 396.648438 218.847656 Z M 441.816406 218.589844 C 438.535156 218.066406 435.445312 220.304688 434.925781 223.585938 C 434.402344 226.875 436.640625 229.960938 439.921875 230.484375 C 443.210938 231.003906 446.292969 228.765625 446.8125 225.484375 C 447.339844 222.199219 445.101562 219.109375 441.816406 218.589844 Z M 426.621094 227.757812 C 426.5625 226.945312 426.457031 226.132812 426.324219 225.320312 L 426.085938 224.101562 C 426.007812 223.699219 425.753906 223.300781 424.824219 222.929688 C 423.929688 223.375 423.710938 223.785156 423.65625 224.191406 L 423.496094 225.414062 C 423.417969 226.226562 423.359375 227.039062 423.347656 227.84375 C 423.324219 229.46875 423.363281 231.082031 423.265625 232.703125 C 423.0625 235.941406 422.726562 239.167969 422.546875 242.351562 C 422.46875 243.953125 422.355469 245.523438 422.308594 247.058594 C 422.253906 247.789062 422.246094 248.597656 422.152344 249.175781 C 422.085938 249.808594 421.902344 250.277344 421.660156 250.851562 C 421.117188 251.949219 420.195312 253.003906 419.144531 254.019531 C 418.621094 254.523438 418.058594 255.035156 417.476562 255.53125 C 417.183594 255.78125 416.886719 256.023438 416.578125 256.261719 C 416.257812 256.476562 416.035156 256.839844 416.070312 257.949219 C 416.851562 258.753906 417.363281 258.761719 417.769531 258.613281 C 418.183594 258.484375 418.601562 258.34375 419.015625 258.1875 C 419.828125 257.855469 420.640625 257.484375 421.40625 257.003906 C 422.949219 256.070312 424.359375 254.773438 425.492188 253.082031 C 426.023438 252.238281 426.519531 251.203125 426.746094 250.230469 C 427.027344 249.226562 427.152344 248.410156 427.285156 247.527344 C 427.523438 245.824219 427.574219 244.152344 427.566406 242.496094 C 427.566406 239.183594 427.207031 235.910156 426.914062 232.648438 C 426.761719 231.019531 426.734375 229.386719 426.621094 227.757812 Z M 386.527344 262.65625 C 385.945312 262.085938 385.527344 261.371094 384.980469 260.75 L 384.15625 259.808594 C 383.878906 259.484375 383.457031 259.257812 382.429688 259.335938 C 381.847656 260.140625 381.882812 260.632812 382.0625 261.046875 L 382.597656 262.273438 C 383.007812 263.070312 383.324219 263.933594 383.914062 264.621094 C 385.011719 266.050781 386.078125 267.511719 387.398438 268.78125 C 389.8125 271.511719 392.886719 273.816406 396.34375 275.246094 C 399.785156 276.765625 403.582031 277.1875 407.222656 277.089844 C 409.042969 277.007812 410.859375 276.886719 412.628906 276.46875 C 413.511719 276.28125 414.382812 276.015625 415.234375 275.710938 C 415.660156 275.5625 416.078125 275.375 416.5 275.207031 C 416.917969 275.058594 417.316406 274.707031 417.421875 273.59375 C 416.703125 272.726562 416.277344 272.601562 415.867188 272.652344 C 415.449219 272.667969 415.046875 272.707031 414.628906 272.703125 C 413.800781 272.734375 412.980469 272.742188 412.164062 272.75 C 410.535156 272.78125 408.925781 272.769531 407.324219 272.65625 C 404.121094 272.398438 401.085938 271.542969 398.160156 270.566406 C 397.421875 270.328125 396.675781 270.097656 395.992188 269.726562 C 395.289062 269.390625 394.535156 269.132812 393.851562 268.746094 L 391.816406 267.542969 C 391.097656 267.175781 390.550781 266.585938 389.894531 266.121094 C 388.570312 265.191406 387.628906 263.847656 386.527344 262.65625 Z M 448.453125 209.542969 C 448.621094 209.65625 448.917969 209.609375 449.824219 209.089844 C 450.457031 208.25 450.480469 207.898438 450.355469 207.71875 L 450.039062 207.089844 C 449.808594 206.683594 449.5625 206.289062 449.285156 205.933594 C 448.734375 205.207031 448.0625 204.601562 447.394531 203.988281 C 446.042969 202.789062 444.566406 201.617188 442.804688 201.003906 C 441.082031 200.300781 439.164062 200.125 437.332031 200.042969 C 436.871094 200.023438 436.421875 199.992188 435.964844 199.953125 C 435.511719 199.953125 435.054688 199.929688 434.597656 199.953125 C 434.144531 199.941406 433.691406 200.042969 433.246094 200.179688 L 432.589844 200.414062 C 432.375 200.488281 432.167969 200.746094 432.054688 201.65625 C 432.355469 202.546875 432.5625 202.78125 432.761719 202.835938 L 433.351562 203.003906 L 434.488281 203.222656 C 434.867188 203.285156 435.242188 203.304688 435.613281 203.351562 C 435.984375 203.425781 436.351562 203.527344 436.71875 203.636719 C 438.160156 204.121094 439.460938 204.898438 440.757812 205.59375 C 442.03125 206.335938 443.453125 206.835938 444.800781 207.582031 C 445.472656 207.953125 446.109375 208.375 446.808594 208.746094 C 447.15625 208.941406 447.523438 209.109375 447.890625 209.285156 Z M 369.445312 722.730469 C 368.246094 722.160156 367.019531 721.707031 365.890625 720.972656 C 364.738281 720.304688 363.589844 719.65625 362.511719 718.839844 C 361.417969 718.066406 360.304688 717.34375 359.269531 716.480469 C 355.046875 713.167969 351.082031 709.464844 347.355469 705.507812 C 339.9375 697.550781 333.320312 688.828125 326.816406 680.015625 C 320.296875 671.207031 314.09375 662.128906 308.109375 652.894531 C 305.15625 648.25 302.335938 643.527344 299.542969 638.78125 L 295.320312 631.6875 L 293.171875 628.15625 C 292.464844 626.972656 291.605469 625.878906 290.160156 625.074219 C 289.984375 626.726562 290.433594 628.0625 291.03125 629.308594 L 292.84375 633.046875 C 294.074219 635.527344 295.394531 637.964844 296.71875 640.394531 C 299.402344 645.238281 302.195312 650.015625 304.996094 654.796875 C 307.773438 659.589844 310.617188 664.347656 313.546875 669.054688 C 316.523438 673.734375 319.578125 678.375 322.742188 682.945312 C 326.003906 687.445312 329.285156 691.953125 332.882812 696.214844 C 336.476562 700.484375 340.214844 704.644531 344.183594 708.605469 C 348.164062 712.539062 352.382812 716.308594 357.085938 719.496094 C 358.230469 720.328125 359.453125 721.066406 360.707031 721.753906 C 361.914062 722.5 363.230469 723.085938 364.535156 723.683594 C 365.800781 724.339844 367.21875 724.730469 368.566406 725.210938 C 369.226562 725.488281 369.964844 725.578125 370.714844 725.574219 C 371.460938 725.542969 372.21875 725.464844 372.984375 725.09375 C 371.851562 723.6875 370.664062 723.28125 369.445312 722.730469 Z M 572.335938 504.40625 C 571.585938 504.609375 570.828125 504.761719 570.050781 504.863281 C 569.28125 504.960938 568.535156 505.144531 567.761719 505.222656 C 566.988281 505.28125 566.222656 505.367188 565.453125 505.449219 C 562.375 505.632812 559.269531 505.707031 556.179688 505.289062 C 553.089844 504.917969 550.039062 504.226562 547.0625 503.308594 C 544.117188 502.390625 541.121094 501.226562 538.492188 499.914062 C 537.363281 499.351562 535.988281 499.796875 535.402344 500.914062 L 535.375 500.980469 C 533.222656 505.097656 531.277344 509.242188 529.464844 513.488281 C 527.589844 517.695312 526.078125 522.058594 524.542969 526.414062 C 523.0625 530.78125 521.691406 535.21875 520.664062 539.765625 C 520.433594 540.914062 520.183594 542.046875 519.972656 543.203125 C 519.796875 544.367188 519.675781 545.539062 519.527344 546.703125 C 519.4375 547.886719 519.410156 549.078125 519.351562 550.257812 C 519.316406 551.441406 519.464844 552.71875 520.667969 553.777344 C 521.898438 552.550781 521.933594 551.539062 522.042969 550.445312 C 522.257812 549.355469 522.429688 548.277344 522.65625 547.199219 C 522.941406 546.117188 523.246094 545.046875 523.496094 543.96875 L 524.429688 540.746094 C 525.765625 536.472656 527.203125 532.199219 528.890625 528.003906 C 530.527344 523.792969 532.402344 519.671875 534.121094 515.484375 L 538.699219 505.003906 C 541.128906 505.910156 543.523438 506.59375 546.007812 507.195312 C 549.238281 507.953125 552.527344 508.457031 555.828125 508.753906 C 559.136719 509.066406 562.492188 509.015625 565.800781 508.574219 C 566.628906 508.445312 567.453125 508.3125 568.273438 508.148438 C 569.089844 507.976562 569.890625 507.71875 570.6875 507.480469 C 572.261719 506.996094 573.976562 506.625 574.972656 504.742188 C 573.929688 504.296875 573.109375 504.277344 572.335938 504.40625 Z M 458.03125 533.371094 C 453.820312 525.855469 449.523438 518.390625 445.246094 510.90625 L 438.714844 499.746094 C 436.429688 496.082031 434.753906 492.089844 431.195312 489.117188 C 431.8125 493.695312 434.296875 497.257812 436.1875 501.144531 L 442.160156 512.644531 C 445.976562 519.832031 449.785156 527.019531 453.664062 534.171875 C 443.253906 546.632812 432.515625 558.878906 421.535156 570.855469 C 415.941406 577.066406 410.246094 583.175781 404.472656 589.203125 C 398.722656 595.253906 392.867188 601.195312 386.816406 606.917969 C 380.75 612.601562 374.589844 618.226562 367.945312 623.101562 C 364.65625 625.582031 361.191406 627.792969 357.605469 629.570312 C 355.8125 630.425781 353.953125 631.148438 352.140625 631.464844 L 350.785156 631.679688 C 350.3125 631.730469 349.78125 631.691406 349.28125 631.707031 L 346.246094 631.714844 C 342.203125 631.46875 338.140625 630.988281 334.1875 629.933594 C 330.203125 628.988281 326.308594 627.640625 322.511719 626.054688 C 318.707031 624.480469 314.984375 622.679688 311.375 620.65625 C 307.71875 618.664062 304.476562 616.171875 300.316406 614.722656 C 302.714844 618.5 306.492188 620.628906 310.03125 622.921875 C 313.652344 625.136719 317.351562 627.253906 321.277344 628.929688 C 329.046875 632.398438 337.453125 634.722656 346.097656 635.207031 L 349.347656 635.238281 C 349.890625 635.230469 350.417969 635.269531 350.988281 635.222656 L 352.738281 634.984375 C 355.050781 634.59375 357.144531 633.789062 359.136719 632.875 C 363.101562 631.027344 366.785156 628.789062 370.253906 626.320312 C 377.246094 621.433594 383.671875 615.925781 389.914062 610.257812 C 396.148438 604.570312 402.171875 598.679688 408.074219 592.683594 C 413.945312 586.65625 419.660156 580.488281 425.308594 574.269531 C 436.480469 561.699219 447.320312 548.890625 457.847656 535.765625 C 458.371094 535.109375 458.480469 534.175781 458.042969 533.398438 Z M 413.539062 490.757812 C 407.980469 493.273438 402.390625 495.765625 396.769531 498.214844 C 385.523438 503.105469 374.199219 507.917969 363.148438 513.378906 C 357.640625 516.140625 352.164062 518.988281 346.757812 521.972656 C 341.371094 524.988281 336.058594 528.167969 330.878906 531.558594 C 325.683594 534.933594 320.574219 538.464844 315.777344 542.433594 C 313.371094 544.410156 311.0625 546.523438 308.941406 548.828125 C 307.839844 549.925781 306.867188 551.171875 305.84375 552.347656 C 304.835938 553.539062 304.078125 554.976562 303.832031 556.703125 C 305.546875 556.070312 306.601562 555.027344 307.664062 553.953125 C 308.746094 552.898438 309.75 551.78125 310.902344 550.800781 C 312.015625 549.789062 313.140625 548.785156 314.316406 547.828125 C 315.453125 546.839844 316.613281 545.871094 317.820312 544.960938 C 322.570312 541.214844 327.601562 537.800781 332.808594 534.65625 C 338.042969 531.546875 343.40625 528.644531 348.851562 525.902344 C 354.285156 523.121094 359.785156 520.46875 365.332031 517.898438 L 398.601562 502.253906 C 404.15625 499.617188 409.722656 496.992188 415.183594 494.101562 C 417.933594 492.699219 420.609375 491.136719 423.273438 489.554688 C 424.597656 488.722656 425.929688 487.941406 427.222656 487.0625 C 428.539062 486.242188 429.730469 485.152344 430.417969 483.449219 C 428.546875 483.445312 427.199219 484.078125 425.859375 484.808594 C 424.546875 485.550781 423.171875 486.203125 421.824219 486.898438 C 419.085938 488.222656 416.3125 489.476562 413.539062 490.757812 Z M 470.855469 413.777344 L 470.078125 415.171875 L 469.449219 416.5 L 468.214844 419.128906 L 463.308594 429.65625 C 460.074219 436.691406 456.886719 443.75 453.539062 450.726562 C 451.855469 454.207031 450.207031 457.707031 448.582031 461.222656 C 447.789062 462.984375 446.996094 464.753906 446.246094 466.535156 C 445.515625 468.332031 444.488281 469.984375 444.875 472.320312 C 446.957031 471.179688 447.625 469.359375 448.601562 467.683594 C 449.546875 465.996094 450.453125 464.292969 451.355469 462.585938 C 453.136719 459.152344 454.886719 455.710938 456.59375 452.25 C 460.050781 445.34375 463.660156 438.515625 467.21875 431.667969 L 472.507812 421.363281 L 473.824219 418.789062 L 474.484375 417.515625 L 475.15625 416.402344 C 476.101562 414.902344 477.183594 413.394531 478.355469 411.933594 C 482.808594 406.480469 487.679688 401.109375 492.726562 396.019531 C 492.765625 396.046875 492.800781 396.058594 492.839844 396.082031 C 493.265625 396.34375 493.6875 396.6875 494.085938 397.082031 C 494.875 397.84375 495.632812 398.914062 496.160156 399.894531 C 496.265625 400.03125 496.363281 400.472656 496.359375 400.980469 C 496.378906 401.488281 496.300781 402.078125 496.207031 402.675781 C 496.007812 403.882812 495.652344 405.152344 495.230469 406.410156 C 494.359375 408.917969 493.304688 411.449219 492.175781 413.949219 C 491.605469 415.199219 491.007812 416.441406 490.386719 417.667969 C 489.734375 418.886719 489.214844 420.160156 489.414062 421.917969 C 491.078125 421.3125 491.972656 420.191406 492.695312 418.984375 C 493.453125 417.792969 494.191406 416.59375 494.902344 415.371094 C 495.433594 414.476562 495.945312 413.558594 496.445312 412.632812 L 485.625 441.054688 C 485.683594 441.121094 485.734375 441.1875 485.796875 441.257812 C 486.621094 442.113281 488.210938 442.582031 490.375 442.734375 L 514.613281 379.078125 C 514.660156 378.949219 514.699219 378.820312 514.726562 378.691406 C 515.210938 376.347656 516.316406 375.007812 520.574219 375.167969 L 576.839844 375.683594 C 578.257812 375.722656 579.367188 374.574219 579.378906 373.1875 C 579.394531 371.792969 578.273438 370.660156 576.882812 370.644531 L 520.683594 370.132812 C 514.632812 369.925781 510.972656 372.382812 509.839844 377.460938 L 500.386719 402.28125 C 500.441406 401.875 500.480469 401.453125 500.484375 401.011719 C 500.503906 400.140625 500.453125 399.144531 499.929688 398.03125 C 499.1875 396.546875 498.355469 395.289062 497.203125 394.050781 C 496.632812 393.445312 496 392.871094 495.253906 392.371094 C 494.878906 392.128906 494.492188 391.890625 494.050781 391.691406 C 493.972656 391.652344 493.878906 391.617188 493.796875 391.585938 C 493.796875 391.515625 493.796875 391.445312 493.785156 391.382812 C 493.734375 390.988281 493.667969 390.613281 493.675781 390.1875 C 493.65625 389.351562 493.5625 388.570312 493.550781 387.726562 C 493.492188 386.078125 493.402344 384.417969 493.390625 382.742188 C 493.378906 379.378906 493.613281 376.007812 493.496094 372.613281 C 493.46875 369.21875 493.25 365.800781 493.195312 362.375 C 493.175781 360.660156 493.292969 358.953125 493.34375 357.246094 C 493.378906 356.386719 493.359375 355.53125 493.328125 354.671875 L 493.242188 353.378906 C 493.210938 352.945312 493.019531 352.5 492.144531 351.988281 C 491.191406 352.328125 490.921875 352.738281 490.8125 353.160156 L 490.507812 354.4375 C 490.328125 355.289062 490.183594 356.140625 490.085938 357.003906 C 489.886719 358.71875 489.785156 360.445312 489.554688 362.160156 C 489.109375 365.601562 488.628906 369.054688 488.476562 372.535156 C 488.269531 376.015625 488.582031 379.515625 488.960938 383.023438 C 489.191406 384.777344 489.402344 386.539062 489.847656 388.292969 C 490.03125 389.164062 490.394531 390.042969 490.683594 390.902344 C 490.753906 391.097656 490.84375 391.300781 490.9375 391.503906 C 490.847656 391.5625 490.757812 391.617188 490.679688 391.691406 L 490.597656 391.765625 C 487.710938 394.441406 484.941406 397.15625 482.207031 399.960938 C 479.464844 402.753906 476.832031 405.660156 474.378906 408.804688 C 473.140625 410.359375 471.964844 412.003906 470.855469 413.777344 Z M 441.878906 353.265625 C 444.476562 349.78125 446.3125 345.691406 447.105469 341.417969 C 447.507812 339.285156 447.640625 337.113281 447.515625 334.957031 C 447.417969 332.828125 446.894531 330.605469 445.265625 328.9375 C 444.886719 331.175781 444.875 333.066406 444.886719 335.023438 C 444.875 336.96875 444.625 338.910156 444.144531 340.777344 C 443.195312 344.535156 441.316406 347.964844 438.929688 350.992188 C 434 356.988281 427.03125 361.152344 419.699219 364.175781 C 412.300781 367.144531 404.4375 369.167969 396.511719 370.476562 C 388.648438 371.738281 380.632812 372.085938 372.660156 371.386719 C 364.671875 370.808594 356.761719 369.148438 349.035156 366.859375 C 341.292969 364.601562 333.738281 361.601562 326.441406 358.066406 C 319.136719 354.527344 312.132812 350.363281 305.363281 345.855469 C 301.976562 343.609375 298.652344 341.257812 295.355469 338.871094 C 293.714844 337.660156 292.082031 336.4375 290.488281 335.175781 C 288.882812 333.917969 287.199219 332.785156 285.082031 332.0625 C 285.960938 334.132812 287.386719 335.671875 288.933594 337.042969 C 290.476562 338.414062 292.058594 339.746094 293.648438 341.066406 C 296.820312 343.71875 300.136719 346.183594 303.535156 348.539062 C 310.332031 353.25 317.433594 357.527344 324.800781 361.324219 C 339.445312 369.035156 355.453125 374.6875 372.207031 376.382812 C 380.566406 377.121094 389.078125 376.941406 397.371094 375.367188 C 405.59375 373.84375 413.664062 371.585938 421.425781 368.261719 C 429.085938 364.875 436.632812 360.273438 441.878906 353.265625 Z M 372.371094 288.125 C 367.167969 284.253906 362.109375 280.054688 357.402344 275.433594 C 355.066406 273.113281 352.859375 270.660156 350.683594 268.179688 L 347.40625 264.46875 L 345.742188 262.628906 C 345.191406 262.007812 344.519531 261.492188 343.292969 261.34375 C 343.027344 262.554688 343.351562 263.378906 343.800781 264.089844 L 345.183594 266.210938 C 346.128906 267.605469 347.144531 268.949219 348.1875 270.265625 C 350.292969 272.894531 352.511719 275.429688 354.753906 277.945312 C 359.199219 283.011719 363.953125 287.886719 369.328125 292.121094 C 374.675781 296.375 380.765625 299.832031 387.371094 302.089844 C 390.664062 303.226562 394.140625 303.996094 397.664062 304.128906 C 398.542969 304.199219 399.421875 304.214844 400.308594 304.128906 C 401.183594 304.070312 402.0625 304.058594 402.933594 303.875 C 403.800781 303.703125 404.671875 303.621094 405.511719 303.371094 C 406.359375 303.160156 407.191406 302.757812 407.757812 301.585938 C 406.6875 300.738281 405.890625 300.660156 405.097656 300.765625 C 404.308594 300.859375 403.503906 300.785156 402.714844 300.8125 C 401.929688 300.847656 401.136719 300.753906 400.355469 300.6875 L 399.179688 300.597656 L 398.011719 300.421875 C 394.90625 299.941406 391.835938 299.148438 388.902344 297.925781 C 385.960938 296.726562 383.117188 295.242188 380.378906 293.566406 C 377.675781 291.828125 374.980469 290.050781 372.371094 288.125 Z M 298.320312 448.828125 L 300.980469 451.027344 C 301.894531 451.742188 302.667969 452.578125 303.527344 453.34375 L 304.789062 454.515625 L 305.980469 455.742188 C 306.753906 456.578125 307.667969 457.320312 308.398438 458.199219 L 309.546875 459.480469 C 309.914062 459.925781 310.429688 460.261719 311.644531 460.203125 C 312.195312 459.171875 312.039062 458.539062 311.734375 458.007812 L 310.867188 456.371094 C 310.292969 455.265625 309.53125 454.320312 308.828125 453.304688 C 308.136719 452.28125 307.347656 451.34375 306.511719 450.457031 C 305.675781 449.578125 304.902344 448.605469 304.003906 447.785156 C 300.589844 444.304688 296.871094 441.164062 292.835938 438.5 C 288.835938 435.796875 284.535156 433.609375 280.257812 431.460938 C 279.203125 430.898438 278.136719 430.359375 277.0625 429.832031 C 276.003906 429.28125 274.941406 428.730469 273.855469 428.230469 C 272.78125 427.707031 271.667969 427.265625 270.554688 426.828125 L 268.84375 426.242188 C 268.273438 426.050781 267.632812 426.007812 266.71875 426.605469 C 266.886719 427.679688 267.316406 428.136719 267.820312 428.445312 L 269.320312 429.378906 C 270.324219 429.992188 271.34375 430.574219 272.371094 431.148438 C 274.429688 432.261719 276.484375 433.394531 278.46875 434.636719 C 282.417969 437.167969 286.234375 439.878906 289.96875 442.625 L 295.546875 446.75 Z M 579.125 481.851562 C 579.128906 481.847656 579.152344 481.820312 579.160156 481.808594 C 579.136719 481.835938 579.125 481.851562 579.125 481.851562 Z M 590.1875 459.855469 L 589.671875 462.550781 C 589.3125 464.335938 588.929688 466.125 588.5 467.898438 C 587.652344 471.453125 586.652344 474.964844 585.519531 478.5 C 584.910156 480.292969 584.398438 481.976562 583.363281 483.960938 C 583.21875 484.21875 583.050781 484.496094 582.789062 484.835938 C 582.652344 485.011719 582.492188 485.203125 582.175781 485.460938 C 581.664062 485.816406 581.8125 485.71875 581.691406 485.816406 C 581.433594 486.039062 581.089844 486.328125 580.75 486.601562 C 580.054688 487.148438 579.273438 487.679688 578.433594 488.148438 C 576.769531 489.121094 574.863281 489.8125 572.925781 490.320312 C 571.960938 490.582031 571.003906 490.878906 569.996094 491.003906 C 569.984375 491.007812 569.976562 491.007812 569.960938 491.007812 C 570.164062 491.707031 570.335938 492.417969 570.464844 493.160156 C 570.589844 493.121094 570.660156 493.097656 570.6875 493.101562 C 570.773438 493.101562 570.847656 493.097656 570.925781 493.089844 C 571.058594 493.085938 571.183594 493.078125 571.265625 493.105469 C 571.460938 493.15625 571.6875 493.253906 571.980469 493.207031 C 572.570312 493.121094 573.222656 492.730469 573.882812 492.585938 C 574.554688 492.34375 575.332031 492.46875 576.15625 492.414062 C 576.566406 492.386719 576.964844 492.363281 577.417969 492.382812 C 577.640625 492.394531 577.878906 492.4375 578.121094 492.488281 L 578.492188 492.585938 C 578.605469 492.585938 578.792969 492.789062 579.269531 493.707031 C 579.535156 494.699219 579.515625 494.976562 579.421875 495.050781 L 579.171875 495.375 C 578.996094 495.578125 578.820312 495.769531 578.625 495.929688 C 578.25 496.269531 577.785156 496.445312 577.351562 496.6875 C 576.476562 497.128906 575.515625 497.609375 574.429688 497.582031 C 573.335938 497.601562 572.195312 497.265625 571.066406 496.734375 C 570.945312 496.675781 570.820312 496.617188 570.703125 496.5625 C 570.667969 496.980469 570.609375 497.414062 570.519531 497.863281 C 570.273438 498.742188 569.933594 499.925781 568.609375 500.894531 C 567.960938 501.375 567.082031 501.582031 566.445312 501.628906 C 565.960938 501.648438 565.5 501.617188 565.058594 501.558594 C 564.191406 501.425781 563.464844 501.171875 562.808594 500.929688 C 560.273438 499.867188 558.671875 498.953125 556.734375 498.960938 C 554.542969 498.914062 552.066406 499.167969 549.613281 499.152344 C 548.375 499.152344 547.125 499.109375 545.835938 498.964844 C 545.191406 498.878906 544.539062 498.769531 543.867188 498.613281 C 543.503906 498.507812 543.191406 498.425781 542.859375 498.097656 C 542.710938 497.925781 542.578125 497.78125 542.46875 497.539062 C 542.378906 497.269531 542.304688 497.03125 542.351562 496.734375 C 543.394531 496.191406 543.683594 495.929688 544.238281 496.003906 C 544.761719 496 545.3125 495.953125 545.875 495.894531 C 547.003906 495.777344 548.167969 495.582031 549.34375 495.414062 C 551.707031 495.066406 554.03125 494.707031 556.671875 494.523438 C 559.652344 494.292969 562.5625 495.578125 564.492188 496.226562 C 564.925781 496.363281 565.296875 496.449219 565.609375 496.492188 C 565.664062 496.214844 565.707031 495.890625 565.703125 495.492188 C 565.730469 493.589844 565.242188 491.339844 564.578125 489.230469 C 564.410156 488.695312 564.226562 488.160156 564.023438 487.636719 L 563.875 487.253906 L 563.734375 487.007812 C 563.636719 486.84375 563.585938 486.65625 563.46875 486.492188 C 562.957031 485.84375 562.261719 485.167969 561.335938 484.660156 C 559.523438 483.613281 557.253906 483.042969 554.992188 482.640625 C 554.402344 482.53125 553.796875 482.429688 553.203125 482.328125 C 552.527344 483.300781 551.855469 484.269531 551.074219 485.257812 C 550.011719 486.628906 548.832031 487.863281 547.597656 489.011719 C 545.148438 491.324219 542.4375 493.210938 539.691406 494.9375 C 536.933594 496.65625 534.121094 498.246094 531.257812 499.6875 C 519.761719 505.367188 507.871094 509.679688 496.210938 514.363281 C 490.386719 516.714844 484.570312 519.046875 478.933594 521.703125 C 476.117188 523.015625 473.335938 524.402344 470.671875 525.949219 C 467.902344 527.445312 465.808594 529.515625 462.453125 530.53125 C 463.527344 527.054688 466.5625 525.382812 469.121094 523.519531 C 471.789062 521.710938 474.554688 520.082031 477.351562 518.542969 C 483 515.578125 488.773438 512.933594 494.59375 510.460938 C 506.199219 505.46875 517.929688 500.855469 528.953125 495.160156 C 534.441406 492.347656 539.835938 489.246094 544.246094 485.332031 C 545.347656 484.355469 546.375 483.328125 547.265625 482.234375 C 547.617188 481.816406 547.964844 481.351562 548.3125 480.890625 C 548.214844 480.773438 548.113281 480.667969 548.015625 480.519531 C 548.46875 479.8125 548.957031 479.515625 549.4375 479.394531 C 549.5 479.300781 549.570312 479.207031 549.640625 479.117188 C 548.363281 479.894531 547.054688 480.617188 545.667969 481.148438 C 543.582031 482 541.394531 482.578125 539.246094 483.21875 C 538.171875 483.535156 537.144531 483.972656 536.085938 484.328125 C 535.558594 484.5 535.011719 484.632812 534.453125 484.742188 L 533.605469 484.867188 C 533.324219 484.90625 532.976562 484.792969 532.386719 484.039062 C 532.3125 483.085938 532.480469 482.769531 532.714844 482.605469 L 533.40625 482.113281 C 533.878906 481.816406 534.359375 481.53125 534.855469 481.296875 C 535.847656 480.8125 536.863281 480.402344 537.828125 479.859375 C 539.753906 478.777344 541.621094 477.578125 543.5625 476.582031 C 545.46875 475.523438 547.535156 474.824219 549.519531 473.972656 C 550.503906 473.550781 551.460938 473.082031 552.445312 472.6875 L 553.921875 472.105469 C 554.148438 472.03125 554.34375 471.949219 554.542969 471.863281 L 555.183594 470.859375 C 557.042969 467.839844 558.785156 464.742188 560.429688 461.59375 C 559.507812 462.257812 558.5625 462.871094 557.609375 463.457031 C 554.378906 465.398438 551.066406 467.128906 547.558594 468.324219 C 544.082031 469.578125 540.5 470.453125 536.9375 471.320312 L 531.640625 472.734375 C 530.753906 472.957031 529.851562 473.132812 528.941406 473.269531 L 527.570312 473.4375 C 527.113281 473.492188 526.609375 473.382812 525.941406 472.613281 C 526.152344 471.613281 526.519531 471.269531 526.941406 471.089844 L 528.195312 470.542969 C 529.03125 470.207031 529.871094 469.878906 530.730469 469.597656 C 532.441406 469.042969 534.152344 468.480469 535.832031 467.84375 C 539.1875 466.519531 542.453125 465.019531 545.738281 463.644531 C 548.992188 462.203125 552.335938 461.046875 555.5 459.554688 C 557.078125 458.8125 558.582031 457.96875 560.039062 457.117188 C 560.761719 456.6875 561.484375 456.257812 562.136719 455.773438 C 562.492188 455.542969 562.789062 455.285156 563.105469 455.027344 C 563.28125 454.878906 563.46875 454.765625 563.785156 454.71875 C 563.832031 454.621094 563.878906 454.523438 563.925781 454.429688 C 565.167969 451.585938 566.386719 448.726562 567.359375 445.800781 C 567.847656 444.339844 568.300781 442.867188 568.6875 441.402344 C 568.855469 440.699219 569.039062 439.929688 569.171875 439.214844 L 568.582031 439.980469 C 567.835938 440.863281 566.980469 441.613281 566.136719 442.398438 C 565.3125 443.210938 564.351562 443.808594 563.445312 444.5 C 562.546875 445.203125 561.632812 445.878906 560.675781 446.480469 C 556.988281 449.125 553.082031 451.433594 549.015625 453.359375 C 544.96875 455.351562 540.671875 456.703125 536.394531 457.980469 C 534.25 458.613281 532.109375 459.242188 529.921875 459.714844 C 528.835938 459.96875 527.722656 460.148438 526.625 460.335938 L 524.957031 460.570312 C 524.402344 460.667969 523.800781 460.589844 523.007812 459.71875 C 523.292969 458.578125 523.753906 458.210938 524.265625 458.023438 L 525.789062 457.378906 L 528.832031 456.128906 L 534.953125 453.785156 C 539.011719 452.203125 542.96875 450.390625 546.96875 448.769531 C 550.949219 447.089844 554.988281 445.488281 558.738281 443.394531 C 559.691406 442.882812 560.597656 442.3125 561.476562 441.710938 C 562.351562 441.101562 563.277344 440.535156 564.078125 439.851562 C 564.894531 439.183594 565.804688 438.605469 566.632812 437.941406 L 567.859375 436.9375 C 568.222656 436.644531 568.6875 436.457031 569.496094 436.53125 C 569.519531 436.460938 569.539062 436.386719 569.574219 436.320312 C 570.921875 433.890625 572.199219 431.335938 573.328125 428.78125 C 574.441406 426.246094 575.53125 423.578125 575.890625 421.09375 C 575.964844 420.496094 575.976562 419.914062 575.898438 419.5625 C 575.777344 419.183594 575.917969 419.359375 575.402344 419.070312 C 574.574219 418.722656 573.25 418.878906 572.011719 419.210938 C 570.738281 419.535156 569.5 420.121094 568.222656 420.65625 C 566.925781 421.175781 565.597656 421.664062 564.035156 421.917969 C 565.632812 419.144531 568.355469 417.773438 571.253906 416.722656 C 572.726562 416.269531 574.371094 415.800781 576.308594 416.355469 C 576.796875 416.578125 577.210938 416.632812 577.792969 417.148438 C 578.304688 417.609375 578.605469 418.195312 578.757812 418.703125 C 579.070312 419.738281 579.042969 420.617188 578.96875 421.4375 C 578.566406 424.65625 577.472656 427.363281 576.378906 430.097656 C 575.277344 432.667969 574.074219 435.132812 572.757812 437.597656 C 572.738281 439.390625 572.386719 440.742188 572.085938 442.234375 C 571.703125 443.824219 571.253906 445.378906 570.777344 446.914062 C 569.800781 449.984375 568.691406 452.984375 567.5 455.953125 C 565.0625 461.867188 562.269531 467.628906 559.0625 473.175781 L 556.570312 477.292969 L 555.191406 479.378906 C 555.289062 479.394531 555.386719 479.394531 555.480469 479.40625 C 557.175781 479.636719 558.875 479.964844 560.570312 480.5 C 560.632812 480.402344 560.691406 480.3125 560.765625 480.222656 C 561.039062 479.957031 561.285156 479.671875 561.523438 479.347656 C 562.023438 478.757812 562.472656 478.082031 562.9375 477.417969 C 563.875 476.089844 564.703125 474.613281 565.40625 473.066406 C 566.75 469.933594 567.710938 466.605469 568.785156 463.324219 C 569.796875 460.015625 571.089844 456.78125 572.203125 453.46875 C 572.777344 451.816406 573.28125 450.140625 573.886719 448.492188 C 574.183594 447.664062 574.515625 446.84375 574.84375 446.023438 L 575.351562 444.792969 C 575.496094 444.378906 575.816406 444.007812 576.925781 443.796875 C 577.847656 444.449219 577.972656 444.9375 577.921875 445.382812 L 577.828125 446.734375 C 577.75 447.632812 577.65625 448.523438 577.519531 449.410156 C 577.265625 451.179688 576.863281 452.917969 576.476562 454.667969 C 575.683594 458.152344 574.882812 461.664062 573.519531 465.011719 C 572.21875 468.375 570.542969 471.617188 568.636719 474.757812 C 567.703125 476.332031 566.730469 477.910156 565.542969 479.402344 C 564.9375 480.132812 564.257812 480.828125 563.445312 481.421875 C 563.390625 481.464844 563.316406 481.496094 563.253906 481.539062 C 564.425781 482.074219 565.578125 482.851562 566.597656 483.925781 C 566.871094 484.21875 567.089844 484.585938 567.324219 484.921875 L 567.664062 485.441406 L 567.894531 485.882812 C 568.191406 486.457031 568.46875 487.039062 568.730469 487.636719 C 568.78125 487.75 568.828125 487.863281 568.871094 487.976562 C 569.023438 487.925781 569.183594 487.867188 569.335938 487.8125 C 570.113281 487.605469 570.882812 487.316406 571.613281 486.945312 C 573.066406 486.140625 574.328125 485.015625 575.695312 483.996094 C 576.371094 483.472656 577.066406 482.945312 577.863281 482.460938 C 578.265625 482.214844 578.664062 481.976562 579.179688 481.722656 C 579.195312 481.722656 579.21875 481.707031 579.246094 481.691406 C 579.269531 481.664062 579.289062 481.632812 579.3125 481.59375 C 580.03125 480.402344 580.730469 478.644531 581.355469 477.027344 C 582.625 473.710938 583.730469 470.265625 584.925781 466.859375 L 586.726562 461.734375 L 587.652344 459.171875 C 587.941406 458.3125 588.40625 457.5 589.621094 456.886719 C 590.378906 458.023438 590.371094 458.964844 590.1875 459.855469 Z M 564.269531 381.945312 C 562.980469 381.929688 561.523438 383 561.023438 384.335938 C 560.519531 385.667969 561.152344 386.761719 562.445312 386.777344 C 563.734375 386.785156 565.1875 385.714844 565.691406 384.382812 C 566.195312 383.046875 565.558594 381.957031 564.269531 381.945312 Z M 555.3125 382.488281 C 554.328125 382.476562 553.21875 383.296875 552.832031 384.316406 C 552.445312 385.335938 552.933594 386.167969 553.917969 386.175781 C 554.902344 386.1875 556.011719 385.371094 556.398438 384.355469 C 556.785156 383.335938 556.300781 382.496094 555.3125 382.488281 Z M 568.101562 379.289062 C 570.367188 379.304688 571.875 381.636719 570.960938 383.710938 L 569.207031 387.664062 C 568.699219 388.820312 567.539062 389.558594 566.269531 389.535156 L 549.375 389.21875 C 547.203125 389.171875 545.722656 387 546.488281 384.964844 L 547.894531 381.226562 C 548.355469 379.992188 549.539062 379.175781 550.855469 379.183594 Z M 335.476562 292.601562 C 338.601562 266.03125 339.386719 257.4375 339.386719 257.4375 C 339.386719 257.4375 332.398438 246.140625 333.671875 222.03125 C 333.558594 221.996094 333.453125 221.984375 333.332031 221.949219 C 324.644531 219.339844 325.246094 205 329.839844 195.453125 C 330.007812 195.101562 330.179688 194.753906 330.359375 194.410156 C 330.386719 194.363281 330.417969 194.308594 330.445312 194.253906 C 330.625 193.921875 330.8125 193.589844 331 193.273438 C 331.023438 193.242188 331.042969 193.207031 331.0625 193.179688 C 331.628906 192.234375 332.246094 191.367188 332.894531 190.589844 C 332.96875 190.503906 333.035156 190.410156 333.105469 190.332031 C 333.257812 190.152344 333.421875 189.984375 333.582031 189.820312 C 333.699219 189.691406 333.824219 189.566406 333.949219 189.441406 C 334.089844 189.300781 334.234375 189.167969 334.382812 189.039062 C 334.53125 188.90625 334.679688 188.777344 334.835938 188.652344 C 334.96875 188.550781 335.101562 188.441406 335.234375 188.339844 C 335.417969 188.207031 335.605469 188.082031 335.789062 187.964844 C 335.902344 187.894531 336.011719 187.820312 336.121094 187.757812 C 336.417969 187.582031 336.714844 187.429688 337.023438 187.300781 C 337.027344 187.296875 337.03125 187.296875 337.042969 187.292969 C 337.363281 187.15625 337.6875 187.050781 338.019531 186.964844 C 338.082031 186.949219 338.152344 186.945312 338.214844 186.925781 C 338.480469 186.871094 338.742188 186.828125 339.003906 186.800781 C 339.097656 186.792969 339.1875 186.792969 339.277344 186.785156 C 339.523438 186.777344 339.769531 186.777344 340.019531 186.800781 C 340.816406 186.867188 341.617188 187.074219 342.429688 187.480469 C 351.84375 192.183594 351.125 198.53125 350.214844 201.347656 C 350.582031 201.417969 350.933594 201.496094 351.304688 201.566406 C 361.859375 203.617188 374.972656 200.550781 388.503906 194.976562 C 390.90625 194.980469 393.332031 194.832031 395.804688 195.019531 C 397.0625 195.109375 398.3125 195.289062 399.585938 195.421875 L 401.511719 195.605469 L 402.488281 195.683594 C 402.804688 195.738281 403.160156 195.625 403.847656 194.773438 C 403.914062 193.683594 403.644531 193.34375 403.335938 193.1875 L 402.410156 192.664062 C 401.785156 192.34375 401.144531 192.035156 400.492188 191.789062 C 399.546875 191.410156 398.570312 191.148438 397.585938 190.910156 C 415.515625 182.261719 433.339844 170.261719 446.183594 160.859375 C 454.445312 174.085938 462 189.320312 463.625 202.742188 C 464.753906 212.058594 487.03125 155.957031 473.195312 133.003906 C 461.574219 113.722656 447.820312 106.488281 437.167969 106.265625 C 402.050781 81.027344 353.070312 103.363281 328.964844 129.277344 C 318.269531 140.113281 307.148438 157.019531 297.976562 183.40625 C 281.695312 230.207031 277.53125 284.941406 277.753906 328.4375 C 291.320312 324.1875 303.097656 322.246094 310.054688 321.378906 C 321.082031 313.464844 333.886719 306.113281 335.476562 292.601562 Z M 451.875 256.625 C 451.535156 285.789062 454.601562 310.882812 458.921875 331.515625 C 442.691406 328.039062 425.050781 325.09375 407.597656 322.894531 C 408.441406 311.800781 410.878906 301.585938 410.878906 301.585938 C 431.648438 292.707031 444.238281 275.019531 451.875 256.625 " fill-opacity="1" fill-rule="nonzero"/><path fill="#231f20" d="M 566.34375 330.222656 C 566.269531 330.09375 566.261719 329.976562 566.132812 329.84375 C 565.988281 329.703125 565.691406 329.554688 565.148438 329.371094 C 564.578125 329.433594 564.257812 329.515625 564.082031 329.621094 C 563.933594 329.722656 563.894531 329.839844 563.796875 329.945312 C 563.636719 330.167969 563.5 330.390625 563.417969 330.625 C 563.242188 331.085938 563.230469 331.566406 563.167969 332.035156 C 563.058594 332.980469 562.945312 333.933594 562.871094 334.882812 C 562.765625 335.828125 562.75 336.789062 562.765625 337.75 C 562.78125 338.230469 562.800781 338.710938 562.839844 339.195312 C 562.84375 339.675781 562.835938 340.152344 563.90625 340.75 C 565.078125 340.398438 565.171875 339.929688 565.28125 339.464844 C 565.425781 339 565.546875 338.53125 565.664062 338.066406 C 565.886719 337.132812 566.078125 336.191406 566.183594 335.246094 C 566.316406 334.300781 566.40625 333.347656 566.507812 332.402344 C 566.542969 331.925781 566.636719 331.457031 566.570312 330.96875 C 566.539062 330.722656 566.449219 330.476562 566.34375 330.222656 Z M 587.519531 333.027344 C 587.445312 332.84375 587.242188 332.582031 586.824219 332.191406 C 586.28125 331.996094 585.953125 331.933594 585.753906 331.953125 C 585.578125 331.980469 585.492188 332.066406 585.359375 332.121094 C 585.128906 332.253906 584.902344 332.398438 584.734375 332.570312 C 584.382812 332.90625 584.171875 333.328125 583.914062 333.726562 C 583.421875 334.527344 582.917969 335.324219 582.453125 336.144531 C 581.964844 336.953125 581.546875 337.800781 581.160156 338.667969 C 580.96875 339.101562 580.789062 339.542969 580.617188 339.992188 C 580.421875 340.429688 580.210938 340.851562 580.929688 341.839844 C 582.140625 342.027344 582.417969 341.648438 582.714844 341.277344 C 583.039062 340.917969 583.347656 340.558594 583.644531 340.1875 C 584.242188 339.445312 584.804688 338.6875 585.296875 337.878906 C 585.816406 337.09375 586.296875 336.28125 586.785156 335.476562 C 587.019531 335.066406 587.296875 334.683594 587.4375 334.21875 C 587.511719 333.992188 587.539062 333.730469 587.546875 333.457031 C 587.539062 333.3125 587.578125 333.199219 587.519531 333.027344 Z M 581.042969 320.425781 L 578.347656 328.699219 C 577.457031 331.457031 576.460938 334.183594 575.464844 336.914062 L 573.910156 340.984375 C 573.417969 342.34375 572.925781 343.710938 571.40625 344.746094 C 570.78125 343.019531 571.183594 341.621094 571.585938 340.230469 L 572.707031 336.015625 C 573.5 333.230469 574.289062 330.433594 575.179688 327.675781 L 577.84375 319.390625 C 578.292969 318.007812 578.730469 316.628906 579.273438 315.28125 C 579.546875 314.605469 579.882812 313.953125 580.230469 313.300781 C 580.625 312.664062 580.746094 311.941406 582.121094 311.625 C 583.050781 312.691406 582.726562 313.347656 582.671875 314.09375 C 582.570312 314.820312 582.457031 315.546875 582.289062 316.253906 C 581.9375 317.667969 581.488281 319.042969 581.042969 320.425781 " fill-opacity="1" fill-rule="nonzero"/><g clip-path="url(#69a9032461)"><path fill="#231f20" d="M 526.800781 332.824219 C 526.503906 331.90625 526.183594 331.007812 525.777344 330.144531 C 525.40625 329.261719 524.988281 328.40625 524.582031 327.546875 C 524.367188 327.121094 524.203125 326.667969 523.890625 326.289062 C 523.742188 326.09375 523.535156 325.929688 523.316406 325.769531 C 523.1875 325.699219 523.113281 325.597656 522.933594 325.550781 C 522.742188 325.511719 522.410156 325.535156 521.851562 325.664062 C 521.390625 326.011719 521.164062 326.246094 521.0625 326.425781 C 520.988281 326.589844 521.019531 326.707031 520.988281 326.855469 C 520.972656 327.125 520.96875 327.390625 521.019531 327.628906 C 521.113281 328.113281 521.351562 328.53125 521.539062 328.964844 C 521.941406 329.832031 522.332031 330.699219 522.761719 331.550781 C 523.167969 332.417969 523.648438 333.246094 524.164062 334.058594 C 524.421875 334.460938 524.691406 334.863281 524.976562 335.253906 C 525.234375 335.660156 525.464844 336.078125 526.691406 336.03125 C 527.515625 335.121094 527.347656 334.675781 527.203125 334.214844 C 527.078125 333.746094 526.945312 333.277344 526.800781 332.824219 Z M 543.117188 317.527344 C 543.035156 317.410156 543.003906 317.289062 542.871094 317.171875 C 542.707031 317.054688 542.398438 316.933594 541.835938 316.816406 C 541.277344 316.933594 540.964844 317.054688 540.804688 317.167969 C 540.667969 317.285156 540.636719 317.40625 540.554688 317.523438 C 540.417969 317.757812 540.304688 317.992188 540.25 318.226562 C 540.128906 318.695312 540.167969 319.167969 540.152344 319.644531 C 540.140625 320.582031 540.132812 321.523438 540.15625 322.464844 C 540.15625 323.410156 540.242188 324.351562 540.359375 325.296875 C 540.425781 325.769531 540.5 326.238281 540.582031 326.707031 C 540.648438 327.183594 540.679688 327.652344 541.808594 328.125 C 542.941406 327.660156 542.984375 327.1875 543.042969 326.714844 C 543.132812 326.242188 543.210938 325.773438 543.269531 325.300781 C 543.394531 324.363281 543.484375 323.414062 543.488281 322.476562 C 543.523438 321.535156 543.515625 320.59375 543.507812 319.648438 C 543.5 319.175781 543.539062 318.707031 543.417969 318.238281 C 543.367188 318 543.246094 317.761719 543.117188 317.527344 Z M 534.582031 326.753906 C 534.015625 323.90625 533.453125 321.058594 532.785156 318.230469 L 530.789062 309.765625 C 530.453125 308.351562 530.125 306.9375 529.6875 305.550781 C 529.472656 304.855469 529.1875 304.179688 528.898438 303.503906 C 528.554688 302.84375 528.492188 302.109375 527.144531 301.683594 C 526.132812 302.667969 526.40625 303.351562 526.394531 304.09375 C 526.441406 304.832031 526.496094 305.566406 526.609375 306.285156 C 526.84375 307.71875 527.1875 309.125 527.519531 310.535156 L 529.539062 319.003906 C 530.214844 321.828125 530.988281 324.625 531.757812 327.421875 L 532.988281 331.601562 C 533.367188 333.003906 533.75 334.402344 535.179688 335.550781 C 535.941406 333.882812 535.652344 332.457031 535.367188 331.035156 Z M 595.71875 378.195312 C 596.195312 378.097656 596.660156 377.980469 597.125 377.859375 C 598.054688 377.605469 598.964844 377.320312 599.847656 376.957031 C 600.746094 376.621094 601.621094 376.246094 602.503906 375.878906 C 602.933594 375.683594 603.394531 375.535156 603.785156 375.242188 C 603.988281 375.101562 604.160156 374.902344 604.328125 374.6875 C 604.410156 374.566406 604.507812 374.496094 604.566406 374.324219 C 604.617188 374.128906 604.605469 373.796875 604.503906 373.234375 C 604.175781 372.757812 603.949219 372.515625 603.773438 372.410156 C 603.617188 372.332031 603.492188 372.351562 603.347656 372.316406 C 603.082031 372.292969 602.8125 372.273438 602.578125 372.3125 C 602.085938 372.382812 601.660156 372.605469 601.214844 372.773438 C 600.332031 373.132812 599.445312 373.484375 598.574219 373.882812 C 597.699219 374.242188 596.847656 374.6875 596.015625 375.164062 C 595.59375 375.40625 595.183594 375.660156 594.777344 375.921875 C 594.363281 376.160156 593.9375 376.378906 593.925781 377.605469 C 594.796875 378.46875 595.253906 378.320312 595.71875 378.195312 Z M 611.796875 392.28125 C 611.570312 392.140625 611.335938 392.011719 611.101562 391.945312 C 610.636719 391.800781 610.167969 391.820312 609.695312 391.789062 C 608.757812 391.738281 607.816406 391.679688 606.871094 391.667969 C 605.929688 391.625 604.984375 391.667969 604.035156 391.742188 C 603.5625 391.78125 603.089844 391.835938 602.617188 391.902344 C 602.140625 391.941406 601.671875 391.957031 601.144531 393.066406 C 601.5625 394.214844 602.03125 394.273438 602.496094 394.355469 C 602.960938 394.472656 603.433594 394.566406 603.898438 394.648438 C 604.835938 394.816406 605.773438 394.945312 606.714844 394.992188 C 607.652344 395.070312 608.597656 395.101562 609.539062 395.140625 C 610.007812 395.148438 610.480469 395.214844 610.953125 395.113281 C 611.191406 395.070312 611.433594 394.964844 611.671875 394.847656 C 611.796875 394.761719 611.914062 394.742188 612.039062 394.609375 C 612.164062 394.457031 612.296875 394.152344 612.441406 393.59375 C 612.351562 393.03125 612.246094 392.714844 612.136719 392.550781 C 612.023438 392.40625 611.910156 392.371094 611.796875 392.28125 Z M 625.84375 378.746094 C 625.105469 378.753906 624.375 378.773438 623.648438 378.859375 C 622.203125 379.027344 620.785156 379.308594 619.355469 379.578125 L 610.8125 381.214844 C 607.957031 381.761719 605.132812 382.410156 602.300781 383.050781 L 598.070312 384.085938 C 596.652344 384.410156 595.238281 384.726562 594.023438 386.101562 C 595.660156 386.941406 597.09375 386.714844 598.527344 386.492188 L 602.84375 385.90625 C 605.714844 385.464844 608.582031 385.027344 611.433594 384.488281 L 619.984375 382.878906 C 621.40625 382.601562 622.832031 382.339844 624.238281 381.96875 C 624.941406 381.78125 625.636719 381.53125 626.324219 381.269531 C 627.003906 380.957031 627.730469 380.929688 628.21875 379.601562 C 627.28125 378.542969 626.585938 378.789062 625.84375 378.746094 Z M 220.109375 494.4375 C 219.097656 492.496094 218.082031 490.554688 216.976562 488.664062 L 213.667969 482.996094 C 213.109375 482.050781 212.566406 481.097656 211.925781 480.207031 C 211.597656 479.761719 211.222656 479.351562 210.835938 478.945312 C 210.402344 478.5625 210.21875 478.039062 208.894531 478.175781 C 208.128906 479.261719 208.5 479.679688 208.617188 480.242188 C 208.78125 480.78125 208.960938 481.3125 209.1875 481.8125 C 209.652344 482.808594 210.21875 483.746094 210.765625 484.695312 L 214.101562 490.347656 C 215.210938 492.238281 216.40625 494.070312 217.605469 495.902344 L 219.460938 498.621094 C 220.0625 499.542969 220.65625 500.464844 222.179688 500.835938 C 222.601562 499.324219 222.085938 498.355469 221.578125 497.382812 Z M 218.597656 377.367188 C 217.402344 378.988281 216.328125 380.679688 215.273438 382.390625 C 213.214844 385.835938 211.40625 389.421875 209.742188 393.074219 C 206.410156 400.378906 203.730469 408 201.875 415.84375 C 200.03125 423.679688 199.1875 431.804688 199.644531 439.882812 C 199.839844 443.921875 200.523438 447.929688 201.402344 451.863281 C 202.28125 455.800781 203.652344 459.679688 206.164062 462.941406 C 205.738281 458.832031 204.542969 455.183594 203.796875 451.34375 C 203.09375 447.515625 202.582031 443.648438 202.542969 439.753906 C 202.300781 431.972656 203.351562 424.195312 205.097656 416.59375 C 206.910156 409.003906 209.53125 401.585938 212.796875 394.464844 C 214.421875 390.902344 216.210938 387.410156 218.027344 383.933594 L 220.753906 378.710938 C 221.660156 376.957031 222.800781 375.386719 222.964844 373.082031 C 220.808594 373.996094 219.792969 375.765625 218.597656 377.367188 Z M 312.699219 160.558594 C 311.878906 161.984375 311.121094 163.445312 310.382812 164.914062 C 308.9375 167.871094 307.640625 170.890625 306.351562 173.917969 C 303.78125 179.972656 301.371094 186.09375 299.097656 192.277344 C 296.792969 198.441406 294.851562 204.761719 293.207031 211.164062 C 292.375 214.363281 291.753906 217.625 291.160156 220.886719 C 290.953125 222.542969 290.710938 224.191406 290.632812 225.855469 C 290.667969 227.539062 290.855469 229.238281 291.328125 230.871094 C 292.019531 229.238281 292.34375 227.660156 292.648438 226.082031 C 293.054688 224.503906 293.296875 222.914062 293.566406 221.328125 C 294.296875 218.175781 295.042969 215.027344 296.003906 211.914062 C 297.820312 205.683594 299.957031 199.53125 302.207031 193.410156 C 304.472656 187.300781 306.871094 181.230469 309.441406 175.230469 C 310.71875 172.222656 312.03125 169.234375 313.265625 166.207031 C 313.863281 164.6875 314.46875 163.167969 315.011719 161.621094 C 315.546875 160.066406 316.332031 158.640625 315.945312 156.640625 C 314.140625 157.59375 313.542969 159.136719 312.699219 160.558594 Z M 343.964844 123.707031 C 343.628906 123.902344 343.296875 124.109375 342.980469 124.328125 C 342.339844 124.757812 341.726562 125.214844 341.175781 125.734375 C 340.601562 126.234375 340.058594 126.761719 339.503906 127.289062 C 339.234375 127.554688 338.933594 127.789062 338.742188 128.140625 C 338.636719 128.308594 338.582031 128.519531 338.53125 128.75 C 338.523438 128.878906 338.46875 128.960938 338.492188 129.125 C 338.539062 129.308594 338.683594 129.601562 339 130.074219 C 339.449219 130.417969 339.730469 130.578125 339.910156 130.628906 C 340.074219 130.664062 340.164062 130.621094 340.289062 130.617188 C 340.519531 130.582031 340.738281 130.535156 340.910156 130.449219 C 341.269531 130.273438 341.523438 129.980469 341.804688 129.734375 C 342.359375 129.214844 342.925781 128.703125 343.460938 128.160156 C 344.007812 127.640625 344.503906 127.054688 344.976562 126.445312 C 345.207031 126.140625 345.4375 125.824219 345.652344 125.5 C 345.886719 125.195312 346.132812 124.90625 345.636719 123.824219 C 344.589844 123.261719 344.28125 123.492188 343.964844 123.707031 Z M 406.316406 102.675781 C 409.132812 102.945312 411.996094 103.296875 414.59375 104.871094 C 411.652344 105.515625 408.914062 105.277344 406.128906 105.113281 C 403.347656 104.980469 400.570312 104.941406 397.792969 105.015625 C 392.246094 105.121094 386.726562 105.628906 381.324219 106.636719 C 375.925781 107.628906 370.652344 109.285156 365.875 111.820312 C 363.503906 113.105469 361.25 114.582031 359.148438 116.246094 C 358.117188 117.097656 357.039062 117.921875 356.058594 118.851562 C 354.980469 119.722656 354.320312 120.871094 352.476562 121.28125 C 352.34375 119.464844 353.285156 118.296875 354.171875 117.148438 C 355.003906 115.925781 356.058594 114.894531 357.085938 113.851562 C 359.25 111.84375 361.734375 110.238281 364.300781 108.855469 C 369.476562 106.128906 375.070312 104.410156 380.714844 103.378906 C 386.367188 102.292969 392.109375 102.015625 397.796875 102.113281 C 400.644531 102.195312 403.488281 102.382812 406.316406 102.675781 " fill-opacity="1" fill-rule="nonzero"/></g></svg>