<svg width="32" height="32" viewBox="0 0 32 32" fill="none" xmlns="http://www.w3.org/2000/svg">
<path opacity="0.5" d="M27.9147 10.0853C27.9046 9.15696 27.7345 8.23728 27.412 7.36667C27.1776 6.73054 26.8035 6.15509 26.3173 5.68267C25.8448 5.19686 25.2694 4.82325 24.6333 4.58933C23.7626 4.26724 22.843 4.09678 21.9147 4.08533C20.3707 4.016 19.908 4 16 4C12.0933 4 11.628 4.01333 10.0853 4.08533C9.15696 4.09545 8.23728 4.2655 7.36667 4.588C6.73034 4.82197 6.1548 5.1961 5.68267 5.68267C5.19764 6.15633 4.82416 6.73203 4.58933 7.368C4.26744 8.23837 4.09698 9.15743 4.08533 10.0853C4.016 11.6307 4 12.0933 4 16.0013C4 19.9093 4.01333 20.3733 4.08533 21.916C4.09588 22.8445 4.26637 23.7641 4.58933 24.6347C4.82267 25.2693 5.19733 25.8453 5.684 26.316C6.15658 26.8023 6.73196 27.1768 7.368 27.412C8.23733 27.7347 9.15733 27.9053 10.0853 27.9147C11.628 27.9867 12.0933 28 16 28C19.9067 28 20.3733 27.9867 21.9147 27.9147C22.843 27.9046 23.7627 27.7345 24.6333 27.412C25.2647 27.1687 25.8381 26.7958 26.3167 26.3175C26.7953 25.8392 27.1684 25.2659 27.412 24.6347C27.7339 23.7634 27.9039 22.8434 27.9147 21.9147C27.9867 20.3733 28 19.9093 28 16C28 12.0907 27.9867 11.6293 27.9147 10.0853Z" fill="#F8F8F8"/>
<path d="M23.724 10.1574C23.5593 9.73016 23.3069 9.34213 22.9831 9.01833C22.6593 8.69453 22.2713 8.44214 21.844 8.27744C21.2546 8.05957 20.6323 7.94412 20.004 7.93611C18.9587 7.88811 18.644 7.87744 16 7.87744C13.356 7.87744 13.0427 7.88811 12 7.93611C11.3717 7.94285 10.7492 8.05787 10.16 8.27611C9.29468 8.60944 8.61335 9.29211 8.28001 10.1561C8.06135 10.7468 7.94668 11.3694 7.93868 11.9961C7.89068 13.0414 7.88135 13.3548 7.88135 16.0001C7.88135 18.6454 7.89068 18.9601 7.93868 20.0041C7.94535 20.6321 8.06135 21.2548 8.27868 21.8441C8.44346 22.2713 8.69586 22.6593 9.01965 22.9831C9.34344 23.3069 9.73145 23.5593 10.1587 23.7241C10.7493 23.9414 11.372 24.0574 11.9987 24.0641C13.0427 24.1121 13.356 24.1214 16.0013 24.1214C18.6467 24.1214 18.9613 24.1121 20.0053 24.0641C20.6337 24.0568 21.2562 23.9414 21.8454 23.7228C22.2726 23.558 22.6606 23.3056 22.9844 22.9818C23.3082 22.658 23.5606 22.27 23.7253 21.8428C23.944 21.2548 24.0587 20.6321 24.0667 20.0028C24.1147 18.9588 24.124 18.6454 24.124 16.0001C24.124 13.3548 24.1147 13.0414 24.0667 11.9974C24.0594 11.3691 23.944 10.7466 23.7253 10.1574H23.724ZM16 21.0868C15.332 21.0868 14.6706 20.9552 14.0534 20.6996C13.4363 20.4439 12.8755 20.0693 12.4032 19.5969C11.9309 19.1246 11.5562 18.5638 11.3005 17.9467C11.0449 17.3295 10.9133 16.6681 10.9133 16.0001C10.9133 15.3321 11.0449 14.6707 11.3005 14.0535C11.5562 13.4364 11.9309 12.8756 12.4032 12.4033C12.8755 11.931 13.4363 11.5563 14.0534 11.3006C14.6706 11.045 15.332 10.9134 16 10.9134C17.3491 10.9134 18.6429 11.4494 19.5968 12.4033C20.5508 13.3572 21.0867 14.651 21.0867 16.0001C21.0867 17.3492 20.5508 18.643 19.5968 19.5969C18.6429 20.5509 17.3491 21.0868 16 21.0868ZM21.288 11.9001C20.9797 11.8898 20.6874 11.76 20.4729 11.5382C20.2584 11.3164 20.1385 11.02 20.1385 10.7114C20.1385 10.4029 20.2584 10.1064 20.4729 9.88465C20.6874 9.66286 20.9797 9.5331 21.288 9.52278C21.5964 9.5322 21.8904 9.66113 22.1056 9.88232C22.3207 10.1035 22.4415 10.3997 22.4423 10.7082C22.4432 11.0168 22.3241 11.3136 22.1102 11.536C21.8963 11.7584 21.6044 11.889 21.296 11.9001H21.288Z" fill="#F8F8F8"/>
<path d="M15.9999 12.6973C15.3467 12.6973 14.7082 12.891 14.1651 13.2539C13.6219 13.6168 13.1986 14.1326 12.9487 14.7361C12.6987 15.3395 12.6333 16.0036 12.7607 16.6443C12.8882 17.2849 13.2027 17.8734 13.6646 18.3353C14.1265 18.7972 14.715 19.1117 15.3556 19.2391C15.9963 19.3666 16.6603 19.3012 17.2638 19.0512C17.8673 18.8012 18.3831 18.3779 18.746 17.8348C19.1089 17.2917 19.3026 16.6531 19.3026 15.9999C19.3026 15.1242 18.9548 14.2844 18.3357 13.6651C17.7167 13.0457 16.877 12.6976 16.0013 12.6973H15.9999Z" fill="#F8F8F8"/>
<path d="M29.2398 9.4265C29.2279 8.39559 29.0384 7.37445 28.6798 6.40784C28.419 5.70112 28.003 5.06189 27.4625 4.53717C26.9379 3.99655 26.2986 3.58055 25.5918 3.31984C24.6245 2.96204 23.6031 2.77263 22.5718 2.75984C20.8558 2.68517 20.3425 2.6665 15.9998 2.6665C11.6598 2.6665 11.1438 2.6825 9.42917 2.75984C8.39788 2.77234 7.37638 2.96176 6.40917 3.31984C5.70207 3.5799 5.06267 3.99598 4.5385 4.53717C3.99893 5.06266 3.5831 5.70167 3.32117 6.40784C2.96343 7.37514 2.77402 8.39658 2.76117 9.42784C2.68517 11.1438 2.6665 11.6585 2.6665 16.0012C2.6665 20.3438 2.6825 20.8585 2.76117 22.5732C2.7745 23.6038 2.9625 24.6265 3.32117 25.5932C3.58117 26.2998 3.99717 26.9398 4.53717 27.4625C5.0622 28.0026 5.70135 28.4186 6.40784 28.6798C7.37485 29.0386 8.39647 29.2281 9.42784 29.2398C11.1425 29.3185 11.6585 29.3332 15.9998 29.3332C20.3425 29.3332 20.8572 29.3172 22.5732 29.2398C23.6041 29.2279 24.6252 29.0385 25.5918 28.6798C26.2935 28.4094 26.9308 27.995 27.4626 27.4634C27.9944 26.9318 28.4091 26.2947 28.6798 25.5932C29.0372 24.6252 29.2265 23.6038 29.2398 22.5732C29.3172 20.8572 29.3332 20.3412 29.3332 15.9998C29.3332 11.6572 29.3172 11.1438 29.2398 9.4265ZM25.8465 20.0838C25.8307 20.9059 25.6752 21.7193 25.3865 22.4892C25.1319 23.1472 24.7427 23.7449 24.2438 24.2438C23.7449 24.7427 23.1472 25.1319 22.4892 25.3865C21.7196 25.6747 20.9067 25.8302 20.0852 25.8465C19.0278 25.8958 18.6905 25.9065 15.9998 25.9065C13.3092 25.9065 12.9732 25.8945 11.9158 25.8465C11.0943 25.8301 10.2814 25.6746 9.51184 25.3865C8.85349 25.1322 8.25556 24.743 7.75639 24.2441C7.25722 23.7452 6.86782 23.1474 6.61317 22.4892C6.32487 21.7192 6.16932 20.9059 6.15317 20.0838C6.1065 19.0278 6.09317 18.6905 6.09317 15.9998C6.09317 13.3092 6.10517 12.9718 6.15317 11.9158C6.16932 11.0938 6.32487 10.2805 6.61317 9.5105C6.86775 8.85223 7.25712 8.25444 7.7563 7.75549C8.25548 7.25654 8.85345 6.86745 9.51184 6.61317C10.2814 6.32501 11.0943 6.16947 11.9158 6.15317C12.9732 6.10384 13.3118 6.09317 16.0012 6.09317C18.6905 6.09317 19.0278 6.10517 20.0852 6.15317C20.9072 6.16912 21.7206 6.32467 22.4905 6.61317C23.1483 6.8679 23.7457 7.25719 24.2444 7.7561C24.7431 8.25502 25.1321 8.85257 25.3865 9.5105C25.6758 10.2812 25.8305 11.0932 25.8465 11.9158C25.8945 12.9718 25.9065 13.3092 25.9065 15.9998C25.9065 18.6905 25.8945 19.0265 25.8465 20.0838Z" fill="#F8F8F8"/>
</svg>
