<svg width="78" height="78" viewBox="0 0 78 78" fill="none" xmlns="http://www.w3.org/2000/svg">
<path d="M24.2931 31.0245C24.2931 30.5073 24.4986 30.0113 24.8643 29.6456C25.23 29.2799 25.726 29.0745 26.2431 29.0745H43.1925C43.7097 29.0745 44.2057 29.2799 44.5714 29.6456C44.9371 30.0113 45.1425 30.5073 45.1425 31.0245V46.9755C45.1425 47.4927 44.9371 47.9887 44.5714 48.3544C44.2057 48.7201 43.7097 48.9255 43.1925 48.9255H26.2431C25.726 48.9255 25.23 48.7201 24.8643 48.3544C24.4986 47.9887 24.2931 47.4927 24.2931 46.9755V31.0245ZM28.1931 45.0255H41.2425V32.9745H28.1931V45.0255ZM6.99664 19.4181C9.36004 14.0634 14.703 9.75 21.0678 9.75H59.7831C66.6627 9.75 74.1429 15.4401 74.1429 24.1098C74.1429 29.289 71.1594 33.696 69.1626 35.8449C69.1158 38.6061 69.2328 42.3072 69.3654 46.2579L69.4044 47.4201C69.5409 51.3552 69.6813 55.4307 69.6813 58.8549C69.6813 62.0451 69.3342 64.779 67.4115 66.4677C66.4521 67.3101 65.2782 67.7352 64.0419 67.9653C62.6335 68.1858 61.2084 68.2811 59.7831 68.25H20.0733C15.4908 68.25 12.6867 66.8811 11.2671 64.5099C10.1244 62.6028 10.1595 60.3759 10.1751 59.2059L10.1829 58.8549V35.8995C5.10904 31.0908 4.69564 24.6324 6.99664 19.4181ZM21.0678 13.65C16.5165 13.65 12.4215 16.7817 10.5651 20.9898C8.74774 25.1004 9.18844 29.9676 13.3965 33.5439C13.6113 33.7266 13.7839 33.9537 13.9024 34.2096C14.0209 34.4654 14.0825 34.7439 14.0829 35.0259V59.2254C14.0751 60.5241 14.0712 61.6044 14.6094 62.5014C15.0501 63.2385 16.2201 64.35 20.0733 64.35H49.8576C51.4137 64.35 52.5096 64.2876 53.3091 64.1316C54.0891 63.9795 54.4128 63.7728 54.5805 63.6129C54.7443 63.453 54.9549 63.1371 55.1148 62.3571C55.2786 61.5576 55.3488 60.4461 55.3488 58.8549C55.3488 56.4252 55.3332 53.7459 55.3137 51.0393C55.2747 45.5208 55.2357 39.8736 55.3527 35.9658C55.366 35.4672 55.5698 34.9927 55.9221 34.6398C56.3511 34.2147 56.7528 33.8403 57.1311 33.4854C58.0398 32.643 58.8237 31.9098 59.5608 30.8295C60.5085 29.4333 61.3353 27.4482 61.5147 24.063C61.4991 21.4344 59.9937 18.8487 57.6342 16.848C55.2513 14.8239 52.2795 13.65 49.8576 13.65H21.0678ZM58.9368 63.141C58.851 63.5544 58.7418 63.96 58.5975 64.35H59.7831C61.3353 64.35 62.4741 64.2876 63.3321 64.1277C64.1784 63.9717 64.5957 63.7494 64.8375 63.5388C65.3055 63.1254 65.7813 62.1348 65.7813 58.8549C65.7813 55.5009 65.6448 51.4956 65.5083 47.5449L65.4693 46.3866C65.3211 42.1044 65.1963 37.9431 65.2782 34.9713C65.2938 34.4563 65.5125 33.9684 65.8866 33.6141C67.4388 32.1399 70.2429 28.314 70.2429 24.1098C70.2429 17.9322 64.8921 13.7085 59.8884 13.65L60.1575 13.8723C63.0942 16.3644 65.4147 19.9641 65.4147 24.1098V24.2112C65.208 28.236 64.194 30.9504 62.7822 33.0252C61.7799 34.4955 60.528 35.6616 59.5335 36.5898L59.2293 36.8706C59.1435 40.6536 59.1786 45.7977 59.2137 50.9028C59.2332 53.6328 59.2527 56.355 59.2527 58.8549C59.2527 60.5007 59.1825 61.9359 58.9368 63.1371" fill="black"/>
</svg>
