<svg width="78" height="78" viewBox="0 0 78 78" fill="none" xmlns="http://www.w3.org/2000/svg">
<path d="M68.25 26.8567V26.8128C68.25 22.4792 66.9666 18.2427 64.5615 14.6377C62.1565 11.0328 58.7376 8.22087 54.7363 6.55681C50.7349 4.89275 46.3303 4.45108 42.0782 5.28752C37.8261 6.12396 33.917 8.20104 30.8441 11.2567C28.4263 10.0634 25.7257 9.56161 23.0406 9.80691C20.3556 10.0522 17.7906 11.035 15.629 12.6467C13.4675 14.2584 11.7936 16.4362 10.7922 18.9396C9.79084 21.443 9.501 24.1745 9.95472 26.8323C9.28765 26.8942 8.6405 27.093 8.05365 27.4161C7.46681 27.7393 6.95287 28.1799 6.54392 28.7106C6.13496 29.2412 5.83977 29.8504 5.67676 30.5003C5.51374 31.1501 5.48641 31.8265 5.59647 32.4873C7.79997 45.7424 13.2502 54.1323 21.9375 57.6618V60.9378C21.9375 62.8772 22.7079 64.7372 24.0793 66.1085C25.4506 67.4799 27.3106 68.2503 29.25 68.2503H48.75C50.6894 68.2503 52.5493 67.4799 53.9207 66.1085C55.292 64.7372 56.0625 62.8772 56.0625 60.9378V57.6618C64.7497 54.1323 70.2 45.7424 72.4035 32.4873C72.5098 31.844 72.486 31.186 72.3335 30.552C72.181 29.9181 71.9029 29.3212 71.5157 28.7966C71.1284 28.2721 70.6398 27.8306 70.0789 27.4982C69.518 27.1658 68.8961 26.9493 68.25 26.8616V26.8567ZM63.375 26.8128H58.5C58.5 23.5805 57.2159 20.4806 54.9303 18.195C52.6447 15.9094 49.5448 14.6253 46.3125 14.6253C43.0801 14.6253 39.9802 15.9094 37.6946 18.195C35.409 20.4806 34.125 23.5805 34.125 26.8128H29.25C29.25 22.2876 31.0476 17.9477 34.2475 14.7478C37.4473 11.548 41.7872 9.75032 46.3125 9.75032C50.8377 9.75032 55.1776 11.548 58.3775 14.7478C61.5773 17.9477 63.375 22.2876 63.375 26.8128ZM53.625 26.8128H39C39 24.8734 39.7704 23.0135 41.1418 21.6421C42.5131 20.2707 44.3731 19.5003 46.3125 19.5003C48.2519 19.5003 50.1118 20.2707 51.4832 21.6421C52.8545 23.0135 53.625 24.8734 53.625 26.8128ZM20.1532 26.8128H14.9321C14.5641 25.3721 14.5297 23.8664 14.8318 22.4105C15.1338 20.9545 15.7642 19.5867 16.6749 18.4112C17.5856 17.2358 18.7527 16.2838 20.0871 15.6277C21.4215 14.9716 22.888 14.6288 24.375 14.6253C25.545 14.6253 26.6565 14.8301 27.69 15.2054C26.8271 16.5899 26.1153 18.0817 25.5693 19.6466C24.6408 19.4163 23.6651 19.4637 22.7633 19.7829C21.8615 20.1022 21.0733 20.6792 20.4965 21.4424C19.9197 22.2056 19.5797 23.1214 19.5186 24.0761C19.4576 25.0308 19.6783 25.9824 20.1532 26.8128ZM26.8125 58.5003H51.1875V60.9378C51.1875 61.5843 50.9307 62.2043 50.4735 62.6614C50.0164 63.1185 49.3964 63.3753 48.75 63.3753H29.25C28.6035 63.3753 27.9835 63.1185 27.5264 62.6614C27.0693 62.2043 26.8125 61.5843 26.8125 60.9378V58.5003ZM52.9035 53.6253H25.0965C17.3647 51.1391 12.4702 44.1093 10.4032 31.6878H67.5967C65.5297 44.1093 60.6352 51.1391 52.9035 53.6253Z" fill="black"/>
</svg>
