<svg xmlns="http://www.w3.org/2000/svg" xmlns:xlink="http://www.w3.org/1999/xlink" width="1080" zoomAndPan="magnify" viewBox="0 0 810 809.999993" height="1080" preserveAspectRatio="xMidYMid meet" version="1.0"><defs><g/><clipPath id="153d3680cb"><path d="M 216 194 L 308 194 L 308 614 L 216 614 Z M 216 194 " clip-rule="nonzero"/></clipPath><clipPath id="6c30a7b715"><path d="M 34.242188 404.996094 L 260.671875 178.566406 L 487.105469 404.996094 L 260.671875 631.429688 Z M 34.242188 404.996094 " clip-rule="nonzero"/></clipPath><clipPath id="0973b8055c"><path d="M 34.242188 404.996094 L 260.671875 178.566406 L 487.105469 404.996094 L 260.671875 631.429688 Z M 34.242188 404.996094 " clip-rule="nonzero"/></clipPath><clipPath id="87b5c2b8ea"><path d="M 232 336 L 247 336 L 247 428 L 232 428 Z M 232 336 " clip-rule="nonzero"/></clipPath><clipPath id="687793967d"><path d="M 34.242188 404.996094 L 260.671875 178.566406 L 487.105469 404.996094 L 260.671875 631.429688 Z M 34.242188 404.996094 " clip-rule="nonzero"/></clipPath><clipPath id="47b5d901df"><path d="M 34.242188 404.996094 L 260.671875 178.566406 L 487.105469 404.996094 L 260.671875 631.429688 Z M 34.242188 404.996094 " clip-rule="nonzero"/></clipPath><clipPath id="564a5541d2"><path d="M 232 301 L 247 301 L 247 331 L 232 331 Z M 232 301 " clip-rule="nonzero"/></clipPath><clipPath id="97137a9857"><path d="M 34.242188 404.996094 L 260.671875 178.566406 L 487.105469 404.996094 L 260.671875 631.429688 Z M 34.242188 404.996094 " clip-rule="nonzero"/></clipPath><clipPath id="6f8b5be446"><path d="M 34.242188 404.996094 L 260.671875 178.566406 L 487.105469 404.996094 L 260.671875 631.429688 Z M 34.242188 404.996094 " clip-rule="nonzero"/></clipPath><clipPath id="8fea4b6248"><path d="M 319 573 L 615.855469 573 L 615.855469 592.222656 L 319 592.222656 Z M 319 573 " clip-rule="nonzero"/></clipPath><clipPath id="5776fdec4d"><path d="M 423 571.824219 L 426 571.824219 L 426 573 L 423 573 Z M 423 571.824219 " clip-rule="nonzero"/></clipPath><clipPath id="7e9eae793b"><path d="M 379.140625 252.234375 L 675.996094 252.234375 L 675.996094 272 L 379.140625 272 Z M 379.140625 252.234375 " clip-rule="nonzero"/></clipPath><clipPath id="4a5a5b352c"><path d="M 621 252.234375 L 632 252.234375 L 632 255 L 621 255 Z M 621 252.234375 " clip-rule="nonzero"/></clipPath><clipPath id="3d713298b2"><path d="M 484 272 L 486 272 L 486 272.847656 L 484 272.847656 Z M 484 272 " clip-rule="nonzero"/></clipPath></defs><g fill="#fbfbfb" fill-opacity="1"><g transform="translate(138.109612, 534.857188)"><g><path d="M 64.09375 -141.9375 C 64.09375 -136.21875 63.046875 -131.804688 60.953125 -128.703125 C 58.859375 -125.597656 56.09375 -123.332031 52.65625 -121.90625 C 49.21875 -120.476562 45.304688 -119.644531 40.921875 -119.40625 C 36.535156 -119.164062 32.050781 -119.046875 27.46875 -119.046875 L 27.46875 0 L 9.15625 0 L 9.15625 -247.25 L 27.46875 -247.25 C 36.625 -247.25 43.679688 -246.484375 48.640625 -244.953125 C 53.609375 -243.429688 57.234375 -241.523438 59.515625 -239.234375 C 61.804688 -236.941406 63.140625 -234.457031 63.515625 -231.78125 C 63.898438 -229.113281 64.09375 -226.640625 64.09375 -224.359375 Z M 45.78125 -224.359375 C 45.78125 -226.640625 45.46875 -228.398438 44.84375 -229.640625 C 44.226562 -230.878906 43.207031 -231.785156 41.78125 -232.359375 C 40.351562 -232.929688 38.46875 -233.265625 36.125 -233.359375 C 33.789062 -233.460938 30.90625 -233.515625 27.46875 -233.515625 L 27.46875 -132.78125 C 29.757812 -132.78125 32 -132.828125 34.1875 -132.921875 C 36.382812 -133.015625 38.34375 -133.347656 40.0625 -133.921875 C 41.78125 -134.492188 43.160156 -135.398438 44.203125 -136.640625 C 45.253906 -137.878906 45.78125 -139.644531 45.78125 -141.9375 Z M 45.78125 -224.359375 "/></g></g></g><g clip-path="url(#153d3680cb)"><g clip-path="url(#6c30a7b715)"><g clip-path="url(#0973b8055c)"><path fill="#ffbd4a" d="M 261.953125 194.519531 C 260.269531 194.523438 258.597656 194.65625 256.9375 194.925781 C 255.277344 195.191406 253.644531 195.585938 252.046875 196.109375 C 250.449219 196.632812 248.902344 197.28125 247.40625 198.046875 C 245.910156 198.816406 244.484375 199.699219 243.125 200.691406 C 241.769531 201.683594 240.496094 202.78125 239.3125 203.972656 C 238.128906 205.167969 237.046875 206.449219 236.0625 207.8125 C 235.082031 209.179688 234.214844 210.613281 233.457031 212.117188 C 232.703125 213.621094 232.070312 215.171875 231.558594 216.777344 C 231.050781 218.378906 230.667969 220.011719 230.414062 221.675781 C 230.164062 223.339844 230.042969 225.011719 230.054688 226.691406 C 230.066406 228.375 230.210938 230.046875 230.488281 231.703125 C 230.765625 233.363281 231.167969 234.992188 231.703125 236.585938 C 232.234375 238.183594 232.890625 239.726562 233.667969 241.21875 C 234.445312 242.710938 235.335938 244.128906 236.335938 245.480469 C 237.335938 246.832031 238.4375 248.097656 239.640625 249.273438 C 240.839844 250.453125 242.128906 251.527344 243.5 252.503906 L 243.5 267.496094 L 223.628906 267.308594 C 222.664062 267.269531 221.738281 267.433594 220.84375 267.800781 C 219.953125 268.164062 219.179688 268.699219 218.519531 269.402344 C 217.847656 270.078125 217.328125 270.855469 216.964844 271.734375 C 216.601562 272.613281 216.421875 273.53125 216.421875 274.484375 L 217.320312 541.089844 C 217.320312 541.5625 217.371094 542.027344 217.464844 542.488281 C 217.558594 542.949219 217.695312 543.398438 217.875 543.832031 C 218.058594 544.265625 218.28125 544.679688 218.542969 545.070312 C 218.808594 545.460938 219.105469 545.820312 219.441406 546.152344 C 219.777344 546.480469 220.140625 546.777344 220.53125 547.035156 C 220.925781 547.296875 221.339844 547.515625 221.777344 547.691406 C 222.210938 547.871094 222.660156 548.003906 223.125 548.089844 C 223.585938 548.179688 224.054688 548.222656 224.523438 548.21875 L 243.390625 548.128906 L 243.460938 555.023438 C 242.902344 555.421875 242.359375 555.835938 241.828125 556.265625 C 241.300781 556.699219 240.785156 557.144531 240.28125 557.609375 C 239.78125 558.074219 239.296875 558.554688 238.824219 559.050781 C 238.355469 559.546875 237.898438 560.058594 237.460938 560.582031 C 237.023438 561.105469 236.605469 561.644531 236.199219 562.195312 C 235.796875 562.75 235.410156 563.3125 235.042969 563.890625 C 234.675781 564.464844 234.328125 565.054688 234 565.652344 C 233.671875 566.25 233.359375 566.859375 233.070312 567.480469 C 232.78125 568.097656 232.507812 568.726562 232.257812 569.363281 C 232.007812 569.996094 231.777344 570.640625 231.570312 571.292969 C 231.359375 571.941406 231.171875 572.601562 231.007812 573.261719 C 230.839844 573.925781 230.695312 574.59375 230.570312 575.265625 C 230.445312 575.9375 230.34375 576.613281 230.261719 577.292969 C 230.179688 577.96875 230.121094 578.652344 230.085938 579.332031 C 230.046875 580.015625 230.03125 580.699219 230.039062 581.382812 C 230.046875 582.066406 230.074219 582.75 230.125 583.429688 C 230.175781 584.113281 230.246094 584.792969 230.339844 585.46875 C 230.433594 586.144531 230.550781 586.820312 230.6875 587.488281 C 230.824219 588.15625 230.984375 588.824219 231.164062 589.480469 C 231.34375 590.140625 231.542969 590.792969 231.765625 591.441406 C 231.984375 592.089844 232.226562 592.726562 232.492188 593.359375 C 232.753906 593.988281 233.035156 594.613281 233.335938 595.222656 C 233.640625 595.835938 233.960938 596.441406 234.304688 597.03125 C 234.644531 597.625 235.003906 598.207031 235.382812 598.773438 C 235.761719 599.34375 236.15625 599.902344 236.570312 600.445312 C 236.984375 600.988281 237.414062 601.519531 237.863281 602.035156 C 238.308594 602.550781 238.773438 603.054688 239.253906 603.539062 C 239.734375 604.027344 240.230469 604.496094 240.738281 604.953125 C 241.25 605.40625 241.773438 605.84375 242.3125 606.265625 C 242.851562 606.6875 243.402344 607.089844 243.964844 607.476562 C 244.53125 607.863281 245.105469 608.230469 245.695312 608.578125 C 246.28125 608.929688 246.878906 609.257812 247.488281 609.570312 C 248.097656 609.878906 248.714844 610.171875 249.34375 610.441406 C 249.972656 610.714844 250.605469 610.964844 251.25 611.195312 C 251.894531 611.425781 252.542969 611.632812 253.199219 611.824219 C 253.859375 612.011719 254.519531 612.179688 255.1875 612.324219 C 255.855469 612.472656 256.527344 612.59375 257.203125 612.699219 C 257.878906 612.800781 258.558594 612.882812 259.238281 612.941406 C 259.917969 613.003906 260.601562 613.039062 261.285156 613.054688 C 261.96875 613.070312 262.652344 613.066406 263.335938 613.039062 C 264.015625 613.011719 264.699219 612.960938 265.378906 612.890625 C 266.058594 612.816406 266.734375 612.722656 267.410156 612.609375 C 268.082031 612.496094 268.75 612.359375 269.417969 612.199219 C 270.082031 612.042969 270.742188 611.863281 271.394531 611.664062 C 272.046875 611.464844 272.695312 611.242188 273.335938 611 C 273.972656 610.757812 274.605469 610.496094 275.226562 610.214844 C 275.851562 609.933594 276.464844 609.632812 277.066406 609.308594 C 277.671875 608.988281 278.261719 608.648438 278.84375 608.289062 C 279.425781 607.929688 279.996094 607.554688 280.550781 607.15625 C 281.109375 606.761719 281.652344 606.347656 282.183594 605.917969 C 282.714844 605.488281 283.230469 605.039062 283.734375 604.574219 C 284.234375 604.113281 284.722656 603.632812 285.195312 603.136719 C 285.664062 602.644531 286.121094 602.132812 286.558594 601.609375 C 287 601.085938 287.417969 600.546875 287.824219 599.996094 C 288.226562 599.445312 288.613281 598.882812 288.984375 598.304688 C 289.351562 597.730469 289.699219 597.144531 290.03125 596.542969 C 290.363281 595.945312 290.671875 595.335938 290.964844 594.71875 C 291.253906 594.101562 291.527344 593.472656 291.777344 592.839844 C 292.03125 592.203125 292.261719 591.558594 292.472656 590.910156 C 292.679688 590.257812 292.871094 589.601562 293.039062 588.941406 C 293.207031 588.277344 293.351562 587.609375 293.476562 586.9375 C 293.605469 586.265625 293.707031 585.589844 293.789062 584.914062 C 293.871094 584.234375 293.933594 583.554688 293.96875 582.871094 C 294.007812 582.1875 294.023438 581.503906 294.019531 580.820312 C 294.003906 578.304688 293.695312 575.828125 293.09375 573.382812 C 292.492188 570.941406 291.617188 568.601562 290.464844 566.367188 C 289.3125 564.128906 287.914062 562.058594 286.277344 560.152344 C 284.636719 558.242188 282.796875 556.554688 280.757812 555.078125 L 280.753906 547.953125 L 299.0625 547.863281 C 299.53125 547.863281 299.996094 547.820312 300.453125 547.726562 C 300.914062 547.636719 301.359375 547.503906 301.792969 547.324219 C 302.226562 547.144531 302.636719 546.925781 303.027344 546.667969 C 303.414062 546.40625 303.777344 546.113281 304.109375 545.78125 C 304.441406 545.453125 304.738281 545.09375 304.996094 544.703125 C 305.257812 544.316406 305.480469 543.902344 305.660156 543.472656 C 305.839844 543.039062 305.976562 542.59375 306.070312 542.136719 C 306.164062 541.675781 306.210938 541.214844 306.210938 540.746094 L 307.464844 275.214844 C 307.46875 274.746094 307.425781 274.28125 307.335938 273.824219 C 307.246094 273.363281 307.113281 272.914062 306.9375 272.480469 C 306.761719 272.046875 306.542969 271.632812 306.285156 271.242188 C 306.027344 270.851562 305.730469 270.488281 305.402344 270.15625 C 305.074219 269.820312 304.714844 269.523438 304.324219 269.261719 C 303.9375 268.996094 303.527344 268.773438 303.09375 268.59375 C 302.664062 268.410156 302.21875 268.273438 301.757812 268.179688 C 301.300781 268.085938 300.835938 268.035156 300.367188 268.03125 L 280.753906 267.847656 L 280.75 252.089844 C 282.191406 251.085938 283.539062 249.964844 284.789062 248.730469 C 285.519531 247.992188 286.214844 247.222656 286.871094 246.417969 C 287.53125 245.609375 288.144531 244.773438 288.71875 243.910156 C 289.296875 243.042969 289.824219 242.152344 290.3125 241.234375 C 290.800781 240.316406 291.242188 239.375 291.636719 238.414062 C 292.03125 237.453125 292.378906 236.472656 292.679688 235.480469 C 292.980469 234.484375 293.226562 233.476562 293.429688 232.457031 C 293.628906 231.4375 293.78125 230.410156 293.878906 229.375 C 293.980469 228.339844 294.027344 227.300781 294.027344 226.261719 C 294.023438 225.222656 293.972656 224.1875 293.867188 223.152344 C 293.765625 222.117188 293.609375 221.089844 293.40625 220.074219 C 293.203125 219.054688 292.949219 218.046875 292.644531 217.050781 C 292.34375 216.058594 291.992188 215.082031 291.59375 214.121094 C 291.195312 213.160156 290.75 212.222656 290.257812 211.308594 C 289.769531 210.390625 289.234375 209.5 288.65625 208.636719 C 288.078125 207.773438 287.460938 206.9375 286.800781 206.136719 C 286.140625 205.332031 285.441406 204.5625 284.707031 203.828125 C 283.21875 202.328125 281.597656 200.992188 279.84375 199.816406 C 278.085938 198.644531 276.230469 197.660156 274.277344 196.859375 C 272.320312 196.058594 270.308594 195.460938 268.230469 195.070312 C 266.15625 194.675781 264.0625 194.492188 261.953125 194.519531 Z M 279.714844 580.875 L 279.714844 580.964844 C 279.707031 581.542969 279.675781 582.121094 279.613281 582.695312 C 279.550781 583.273438 279.460938 583.84375 279.34375 584.410156 C 279.226562 584.976562 279.082031 585.539062 278.910156 586.089844 C 278.738281 586.644531 278.539062 587.1875 278.316406 587.722656 C 278.089844 588.257812 277.839844 588.777344 277.5625 589.289062 C 277.289062 589.796875 276.988281 590.292969 276.664062 590.773438 C 276.339844 591.253906 275.992188 591.714844 275.625 592.164062 C 275.253906 592.609375 274.867188 593.035156 274.453125 593.445312 C 274.042969 593.855469 273.613281 594.242188 273.167969 594.609375 C 272.71875 594.976562 272.253906 595.320312 271.769531 595.640625 C 271.289062 595.960938 270.792969 596.261719 270.28125 596.53125 C 269.769531 596.804688 269.246094 597.054688 268.710938 597.277344 C 268.175781 597.5 267.632812 597.695312 267.078125 597.863281 C 266.523438 598.03125 265.964844 598.175781 265.394531 598.289062 C 264.828125 598.402344 264.257812 598.492188 263.679688 598.550781 C 263.101562 598.609375 262.527344 598.640625 261.945312 598.640625 C 261.367188 598.640625 260.789062 598.609375 260.214844 598.550781 C 259.640625 598.492188 259.070312 598.40625 258.5 598.292969 C 257.933594 598.175781 257.375 598.035156 256.820312 597.867188 C 256.269531 597.695312 255.726562 597.5 255.191406 597.277344 C 254.65625 597.054688 254.136719 596.804688 253.628906 596.53125 C 253.117188 596.253906 252.625 595.957031 252.144531 595.632812 C 251.664062 595.308594 251.203125 594.964844 250.753906 594.59375 C 250.308594 594.226562 249.882812 593.835938 249.476562 593.425781 C 249.070312 593.015625 248.683594 592.585938 248.316406 592.136719 C 247.953125 591.6875 247.609375 591.222656 247.289062 590.742188 C 246.972656 590.257812 246.675781 589.761719 246.40625 589.25 C 246.136719 588.738281 245.890625 588.214844 245.671875 587.679688 C 245.453125 587.144531 245.261719 586.601562 245.09375 586.046875 C 244.929688 585.492188 244.792969 584.929688 244.679688 584.363281 C 244.570312 583.796875 244.488281 583.222656 244.433594 582.648438 C 244.382812 582.070312 244.355469 581.496094 244.359375 580.914062 C 244.335938 578.613281 244.765625 576.398438 245.648438 574.269531 C 246.53125 572.140625 247.792969 570.273438 249.441406 568.664062 C 250.855469 567.253906 252.449219 566.097656 254.226562 565.191406 C 256.683594 563.824219 259.320312 563.1875 262.132812 563.28125 C 265 563.195312 267.683594 563.859375 270.179688 565.277344 C 271.601562 566.03125 272.898438 566.957031 274.070312 568.058594 C 275.242188 569.160156 276.246094 570.394531 277.085938 571.769531 C 277.925781 573.140625 278.566406 574.597656 279.015625 576.144531 C 279.460938 577.6875 279.691406 579.265625 279.714844 580.875 Z M 266.449219 549.234375 L 266.324219 549.226562 C 263.488281 548.886719 260.65625 548.894531 257.824219 549.246094 L 257.707031 549.253906 L 257.699219 548.0625 L 266.449219 548.019531 Z M 291.941406 533.558594 L 274.035156 533.652344 C 273.867188 533.640625 273.714844 533.554688 273.542969 533.554688 L 250.417969 533.738281 C 250.347656 533.738281 250.289062 533.773438 250.222656 533.773438 L 231.605469 533.871094 L 230.75 281.660156 L 261.925781 281.972656 L 273.492188 282.15625 C 273.605469 282.15625 273.710938 282.097656 273.824219 282.09375 L 293.132812 282.289062 Z M 263.105469 267.679688 L 257.800781 267.597656 L 257.800781 258.125 C 259.164062 258.304688 260.601562 258.425781 262.140625 258.492188 C 263.546875 258.488281 264.949219 258.390625 266.347656 258.199219 L 266.449219 258.191406 L 266.449219 267.710938 Z M 279.722656 226.503906 L 279.71875 226.597656 C 279.714844 228.164062 279.496094 229.699219 279.066406 231.207031 C 278.636719 232.710938 278.011719 234.132812 277.191406 235.464844 C 276.371094 236.796875 275.382812 237.996094 274.230469 239.054688 C 273.078125 240.117188 271.804688 241 270.40625 241.707031 C 270.136719 241.839844 269.878906 241.988281 269.632812 242.15625 C 267.4375 243.539062 265.039062 244.21875 262.441406 244.191406 C 259.417969 244.210938 256.574219 243.515625 253.90625 242.097656 C 253.035156 241.648438 252.203125 241.128906 251.417969 240.539062 C 250.632812 239.949219 249.902344 239.300781 249.226562 238.589844 C 248.546875 237.878906 247.933594 237.117188 247.386719 236.304688 C 246.835938 235.488281 246.359375 234.636719 245.949219 233.742188 C 245.542969 232.851562 245.214844 231.929688 244.960938 230.980469 C 244.707031 230.03125 244.535156 229.070312 244.445312 228.089844 C 244.351562 227.113281 244.34375 226.136719 244.414062 225.15625 C 244.488281 224.179688 244.640625 223.210938 244.871094 222.257812 C 245.105469 221.304688 245.417969 220.375 245.804688 219.476562 C 246.191406 218.574219 246.652344 217.710938 247.1875 216.886719 C 247.71875 216.0625 248.316406 215.285156 248.980469 214.5625 C 249.640625 213.835938 250.359375 213.171875 251.132812 212.566406 C 251.90625 211.964844 252.722656 211.425781 253.585938 210.960938 C 254.449219 210.492188 255.34375 210.097656 256.273438 209.78125 C 257.203125 209.460938 258.152344 209.222656 259.121094 209.0625 C 260.089844 208.902344 261.0625 208.824219 262.046875 208.828125 C 262.625 208.824219 263.207031 208.847656 263.785156 208.898438 C 264.363281 208.949219 264.9375 209.027344 265.507812 209.136719 C 266.078125 209.246094 266.640625 209.382812 267.199219 209.546875 C 267.753906 209.710938 268.300781 209.90625 268.839844 210.125 C 269.375 210.34375 269.902344 210.589844 270.414062 210.859375 C 270.929688 211.132812 271.425781 211.429688 271.910156 211.75 C 272.394531 212.070312 272.859375 212.414062 273.308594 212.785156 C 273.757812 213.152344 274.1875 213.539062 274.601562 213.949219 C 275.011719 214.363281 275.398438 214.792969 275.765625 215.242188 C 276.136719 215.691406 276.480469 216.15625 276.800781 216.640625 C 277.121094 217.125 277.417969 217.621094 277.691406 218.136719 C 277.960938 218.648438 278.207031 219.175781 278.425781 219.710938 C 278.644531 220.25 278.839844 220.796875 279.003906 221.351562 C 279.167969 221.910156 279.304688 222.472656 279.414062 223.042969 C 279.523438 223.613281 279.601562 224.1875 279.652344 224.765625 C 279.707031 225.347656 279.726562 225.925781 279.722656 226.503906 Z M 279.722656 226.503906 " fill-opacity="1" fill-rule="nonzero"/></g></g></g><g clip-path="url(#87b5c2b8ea)"><g clip-path="url(#687793967d)"><g clip-path="url(#47b5d901df)"><path fill="#ffbd4a" d="M 232.476562 343.320312 L 232.035156 420.21875 C 232.03125 420.6875 232.074219 421.152344 232.164062 421.617188 C 232.25 422.078125 232.382812 422.527344 232.558594 422.960938 C 232.738281 423.398438 232.953125 423.8125 233.210938 424.207031 C 233.472656 424.597656 233.765625 424.960938 234.097656 425.296875 C 234.425781 425.632812 234.785156 425.929688 235.175781 426.195312 C 235.566406 426.460938 235.976562 426.683594 236.410156 426.863281 C 236.84375 427.046875 237.289062 427.1875 237.75 427.28125 C 238.210938 427.375 238.675781 427.421875 239.148438 427.425781 C 239.617188 427.429688 240.085938 427.386719 240.546875 427.296875 C 241.007812 427.207031 241.457031 427.074219 241.890625 426.894531 C 242.328125 426.71875 242.742188 426.5 243.132812 426.238281 C 243.527344 425.980469 243.890625 425.683594 244.222656 425.351562 C 244.558594 425.023438 244.855469 424.660156 245.117188 424.269531 C 245.382812 423.882812 245.601562 423.46875 245.785156 423.035156 C 245.964844 422.601562 246.105469 422.152344 246.195312 421.691406 C 246.289062 421.230469 246.335938 420.765625 246.339844 420.296875 L 246.78125 343.398438 C 246.78125 342.929688 246.738281 342.464844 246.648438 342.003906 C 246.558594 341.542969 246.425781 341.097656 246.246094 340.664062 C 246.070312 340.230469 245.851562 339.816406 245.59375 339.425781 C 245.332031 339.035156 245.039062 338.671875 244.707031 338.339844 C 244.378906 338.007812 244.019531 337.710938 243.628906 337.449219 C 243.242188 337.183594 242.832031 336.964844 242.398438 336.78125 C 241.964844 336.601562 241.519531 336.460938 241.0625 336.367188 C 240.601562 336.273438 240.136719 336.226562 239.667969 336.222656 C 239.199219 336.222656 238.734375 336.265625 238.273438 336.351562 C 237.816406 336.441406 237.367188 336.574219 236.933594 336.75 C 236.5 336.929688 236.085938 337.144531 235.695312 337.402344 C 235.300781 337.660156 234.941406 337.957031 234.605469 338.285156 C 234.273438 338.613281 233.972656 338.972656 233.710938 339.359375 C 233.449219 339.75 233.226562 340.160156 233.042969 340.589844 C 232.859375 341.023438 232.722656 341.46875 232.625 341.925781 C 232.53125 342.386719 232.480469 342.851562 232.476562 343.320312 Z M 232.476562 343.320312 " fill-opacity="1" fill-rule="nonzero"/></g></g></g><g clip-path="url(#564a5541d2)"><g clip-path="url(#97137a9857)"><g clip-path="url(#6f8b5be446)"><path fill="#ffbd4a" d="M 232.675781 308.738281 L 232.589844 323.253906 C 232.585938 323.722656 232.628906 324.1875 232.71875 324.652344 C 232.804688 325.113281 232.9375 325.5625 233.117188 325.996094 C 233.292969 326.433594 233.511719 326.847656 233.769531 327.242188 C 234.027344 327.632812 234.320312 327.996094 234.652344 328.332031 C 234.980469 328.667969 235.34375 328.964844 235.730469 329.230469 C 236.121094 329.496094 236.53125 329.71875 236.964844 329.898438 C 237.398438 330.082031 237.847656 330.222656 238.308594 330.316406 C 238.769531 330.410156 239.234375 330.457031 239.703125 330.460938 C 240.171875 330.464844 240.640625 330.421875 241.101562 330.332031 C 241.5625 330.242188 242.011719 330.109375 242.449219 329.929688 C 242.882812 329.753906 243.296875 329.535156 243.6875 329.273438 C 244.082031 329.015625 244.445312 328.71875 244.777344 328.386719 C 245.113281 328.058594 245.410156 327.695312 245.671875 327.308594 C 245.9375 326.917969 246.160156 326.503906 246.339844 326.070312 C 246.523438 325.636719 246.660156 325.191406 246.753906 324.730469 C 246.847656 324.269531 246.894531 323.800781 246.894531 323.332031 L 246.980469 308.816406 C 246.980469 308.347656 246.9375 307.882812 246.847656 307.421875 C 246.757812 306.960938 246.625 306.511719 246.449219 306.078125 C 246.269531 305.644531 246.050781 305.230469 245.792969 304.839844 C 245.535156 304.445312 245.242188 304.085938 244.910156 303.75 C 244.582031 303.417969 244.21875 303.117188 243.832031 302.855469 C 243.441406 302.59375 243.03125 302.371094 242.597656 302.1875 C 242.167969 302.007812 241.71875 301.867188 241.261719 301.773438 C 240.800781 301.679688 240.335938 301.632812 239.867188 301.628906 C 239.398438 301.625 238.933594 301.671875 238.472656 301.757812 C 238.011719 301.847656 237.5625 301.980469 237.128906 302.15625 C 236.691406 302.335938 236.28125 302.554688 235.886719 302.8125 C 235.496094 303.070312 235.132812 303.363281 234.800781 303.695312 C 234.464844 304.023438 234.167969 304.382812 233.902344 304.773438 C 233.640625 305.160156 233.417969 305.570312 233.234375 306.003906 C 233.054688 306.4375 232.914062 306.882812 232.820312 307.34375 C 232.726562 307.804688 232.679688 308.269531 232.675781 308.738281 Z M 232.675781 308.738281 " fill-opacity="1" fill-rule="nonzero"/></g></g></g><g fill="#fbfbfb" fill-opacity="1"><g transform="translate(407.512327, 535.380165)"><g><path d="M 64.09375 -146.515625 L 45.78125 -146.515625 L 45.78125 -224.34375 C 45.78125 -226.632812 45.515625 -228.515625 44.984375 -229.984375 C 44.460938 -231.460938 43.773438 -232.609375 42.921875 -233.421875 C 42.066406 -234.234375 41.085938 -234.804688 39.984375 -235.140625 C 38.890625 -235.472656 37.769531 -235.640625 36.625 -235.640625 C 35.476562 -235.640625 34.359375 -235.472656 33.265625 -235.140625 C 32.171875 -234.804688 31.191406 -234.234375 30.328125 -233.421875 C 29.472656 -232.609375 28.78125 -231.460938 28.25 -229.984375 C 27.726562 -228.515625 27.46875 -226.632812 27.46875 -224.34375 L 27.46875 -22.890625 C 27.46875 -21.742188 27.515625 -20.382812 27.609375 -18.8125 C 27.703125 -17.238281 28.035156 -15.734375 28.609375 -14.296875 C 29.179688 -12.867188 30.085938 -11.65625 31.328125 -10.65625 C 32.566406 -9.65625 34.332031 -9.15625 36.625 -9.15625 C 38.914062 -9.15625 40.679688 -9.65625 41.921875 -10.65625 C 43.160156 -11.65625 44.066406 -12.867188 44.640625 -14.296875 C 45.210938 -15.734375 45.546875 -17.238281 45.640625 -18.8125 C 45.734375 -20.382812 45.78125 -21.742188 45.78125 -22.890625 L 45.78125 -119.03125 L 64.09375 -119.03125 L 64.09375 -22.890625 C 64.09375 -21.742188 63.945312 -19.664062 63.65625 -16.65625 C 63.375 -13.65625 62.375 -10.582031 60.65625 -7.4375 C 58.945312 -4.289062 56.226562 -1.503906 52.5 0.921875 C 48.78125 3.359375 43.488281 4.578125 36.625 4.578125 C 29.757812 4.578125 24.46875 3.359375 20.75 0.921875 C 17.03125 -1.503906 14.3125 -4.289062 12.59375 -7.4375 C 10.875 -10.582031 9.867188 -13.65625 9.578125 -16.65625 C 9.296875 -19.664062 9.15625 -21.742188 9.15625 -22.890625 L 9.15625 -224.34375 C 9.15625 -228.726562 9.960938 -232.515625 11.578125 -235.703125 C 13.203125 -238.898438 15.328125 -241.5 17.953125 -243.5 C 20.578125 -245.507812 23.507812 -246.988281 26.75 -247.9375 C 30 -248.894531 33.289062 -249.375 36.625 -249.375 C 40.15625 -249.375 43.566406 -248.847656 46.859375 -247.796875 C 50.148438 -246.753906 53.082031 -245.179688 55.65625 -243.078125 C 58.226562 -240.984375 60.273438 -238.363281 61.796875 -235.21875 C 63.328125 -232.070312 64.09375 -228.445312 64.09375 -224.34375 Z M 64.09375 -146.515625 "/></g></g></g><g fill="#fbfbfb" fill-opacity="1"><g transform="translate(318.997399, 536.627217)"><g><path d="M 64.09375 -146.515625 L 45.78125 -146.515625 L 45.78125 -224.34375 C 45.78125 -226.632812 45.515625 -228.515625 44.984375 -229.984375 C 44.460938 -231.460938 43.773438 -232.609375 42.921875 -233.421875 C 42.066406 -234.234375 41.085938 -234.804688 39.984375 -235.140625 C 38.890625 -235.472656 37.769531 -235.640625 36.625 -235.640625 C 35.476562 -235.640625 34.359375 -235.472656 33.265625 -235.140625 C 32.171875 -234.804688 31.191406 -234.234375 30.328125 -233.421875 C 29.472656 -232.609375 28.78125 -231.460938 28.25 -229.984375 C 27.726562 -228.515625 27.46875 -226.632812 27.46875 -224.34375 L 27.46875 -22.890625 C 27.46875 -21.742188 27.515625 -20.382812 27.609375 -18.8125 C 27.703125 -17.238281 28.035156 -15.734375 28.609375 -14.296875 C 29.179688 -12.867188 30.085938 -11.65625 31.328125 -10.65625 C 32.566406 -9.65625 34.332031 -9.15625 36.625 -9.15625 C 38.914062 -9.15625 40.679688 -9.65625 41.921875 -10.65625 C 43.160156 -11.65625 44.066406 -12.867188 44.640625 -14.296875 C 45.210938 -15.734375 45.546875 -17.238281 45.640625 -18.8125 C 45.734375 -20.382812 45.78125 -21.742188 45.78125 -22.890625 L 45.78125 -119.03125 L 64.09375 -119.03125 L 64.09375 -22.890625 C 64.09375 -21.742188 63.945312 -19.664062 63.65625 -16.65625 C 63.375 -13.65625 62.375 -10.582031 60.65625 -7.4375 C 58.945312 -4.289062 56.226562 -1.503906 52.5 0.921875 C 48.78125 3.359375 43.488281 4.578125 36.625 4.578125 C 29.757812 4.578125 24.46875 3.359375 20.75 0.921875 C 17.03125 -1.503906 14.3125 -4.289062 12.59375 -7.4375 C 10.875 -10.582031 9.867188 -13.65625 9.578125 -16.65625 C 9.296875 -19.664062 9.15625 -21.742188 9.15625 -22.890625 L 9.15625 -224.34375 C 9.15625 -228.726562 9.960938 -232.515625 11.578125 -235.703125 C 13.203125 -238.898438 15.328125 -241.5 17.953125 -243.5 C 20.578125 -245.507812 23.507812 -246.988281 26.75 -247.9375 C 30 -248.894531 33.289062 -249.375 36.625 -249.375 C 40.15625 -249.375 43.566406 -248.847656 46.859375 -247.796875 C 50.148438 -246.753906 53.082031 -245.179688 55.65625 -243.078125 C 58.226562 -240.984375 60.273438 -238.363281 61.796875 -235.21875 C 63.328125 -232.070312 64.09375 -228.445312 64.09375 -224.34375 Z M 64.09375 -146.515625 "/></g></g></g><g fill="#fbfbfb" fill-opacity="1"><g transform="translate(501.111002, 535.211649)"><g><path d="M 64.09375 -22.890625 C 64.09375 -21.742188 63.945312 -19.664062 63.65625 -16.65625 C 63.375 -13.65625 62.375 -10.582031 60.65625 -7.4375 C 58.945312 -4.289062 56.226562 -1.503906 52.5 0.921875 C 48.78125 3.359375 43.488281 4.578125 36.625 4.578125 C 29.757812 4.578125 24.46875 3.359375 20.75 0.921875 C 17.03125 -1.503906 14.3125 -4.289062 12.59375 -7.4375 C 10.875 -10.582031 9.867188 -13.65625 9.578125 -16.65625 C 9.296875 -19.664062 9.15625 -21.742188 9.15625 -22.890625 L 9.15625 -224.34375 C 9.15625 -225.101562 9.203125 -226.242188 9.296875 -227.765625 C 9.390625 -229.296875 9.675781 -230.988281 10.15625 -232.84375 C 10.632812 -234.707031 11.445312 -236.617188 12.59375 -238.578125 C 13.738281 -240.535156 15.3125 -242.320312 17.3125 -243.9375 C 19.3125 -245.5625 21.882812 -246.875 25.03125 -247.875 C 28.1875 -248.875 32.050781 -249.375 36.625 -249.375 C 41.207031 -249.375 45.070312 -248.875 48.21875 -247.875 C 51.363281 -246.875 53.9375 -245.5625 55.9375 -243.9375 C 57.945312 -242.320312 59.519531 -240.535156 60.65625 -238.578125 C 61.800781 -236.617188 62.613281 -234.707031 63.09375 -232.84375 C 63.570312 -230.988281 63.859375 -229.296875 63.953125 -227.765625 C 64.046875 -226.242188 64.09375 -225.101562 64.09375 -224.34375 Z M 27.46875 -22.890625 C 27.46875 -21.742188 27.515625 -20.382812 27.609375 -18.8125 C 27.703125 -17.238281 28.035156 -15.734375 28.609375 -14.296875 C 29.179688 -12.867188 30.085938 -11.65625 31.328125 -10.65625 C 32.566406 -9.65625 34.332031 -9.15625 36.625 -9.15625 C 38.914062 -9.15625 40.679688 -9.65625 41.921875 -10.65625 C 43.160156 -11.65625 44.066406 -12.867188 44.640625 -14.296875 C 45.210938 -15.734375 45.546875 -17.238281 45.640625 -18.8125 C 45.734375 -20.382812 45.78125 -21.742188 45.78125 -22.890625 L 45.78125 -224.34375 C 45.78125 -225.488281 45.734375 -226.726562 45.640625 -228.0625 C 45.546875 -229.394531 45.210938 -230.609375 44.640625 -231.703125 C 44.066406 -232.804688 43.160156 -233.738281 41.921875 -234.5 C 40.679688 -235.257812 38.914062 -235.640625 36.625 -235.640625 C 34.332031 -235.640625 32.566406 -235.257812 31.328125 -234.5 C 30.085938 -233.738281 29.179688 -232.804688 28.609375 -231.703125 C 28.035156 -230.609375 27.703125 -229.394531 27.609375 -228.0625 C 27.515625 -226.726562 27.46875 -225.488281 27.46875 -224.34375 Z M 27.46875 -22.890625 "/></g></g></g><g fill="#fbfbfb" fill-opacity="1"><g transform="translate(592.746478, 535.211709)"><g><path d="M 27.46875 -247.234375 L 27.46875 -13.734375 L 45.78125 -13.734375 L 45.78125 0 L 9.15625 0 L 9.15625 -247.234375 Z M 27.46875 -247.234375 "/></g></g></g><g fill="#fbfbfb" fill-opacity="1"><g transform="translate(663.988914, 538.042958)"><g><path d="M 59.515625 0 L 41.203125 0 L 38.921875 -59.515625 L 25.328125 -59.515625 L 22.890625 0 L 4.578125 0 L 18.3125 -247.234375 L 45.78125 -247.234375 Z M 36.625 -128.1875 L 32.046875 -238.078125 L 27.46875 -128.1875 L 25.328125 -73.25 L 38.921875 -73.25 Z M 36.625 -128.1875 "/></g></g></g><g clip-path="url(#8fea4b6248)"><path fill="#ffffff" d="M 579.859375 578.894531 C 579.785156 578.988281 579.820312 579.101562 579.488281 579.167969 C 579.152344 579.230469 578.429688 579.265625 577.867188 579.273438 C 577.28125 579.273438 576.628906 579.242188 576.097656 579.195312 C 574.007812 579.015625 571.816406 578.949219 568.992188 579.019531 C 568.019531 579.003906 566.558594 579.003906 565.148438 578.960938 C 564.398438 578.9375 563.6875 578.84375 563.066406 578.765625 C 562.84375 578.738281 562.886719 578.644531 562.894531 578.582031 C 562.902344 578.558594 563.128906 578.523438 563.292969 578.515625 C 565.28125 578.4375 567.445312 578.503906 569.3125 578.320312 C 569.832031 578.269531 570.460938 578.242188 571.058594 578.21875 C 574.039062 578.09375 577.910156 578.355469 579.65625 578.800781 C 579.761719 578.828125 579.878906 578.863281 579.859375 578.894531 Z M 553.101562 578.832031 C 553.007812 578.90625 552.375 579.007812 551.890625 579.019531 C 550.894531 579.054688 549.839844 579.03125 548.8125 579.03125 C 548.8125 579.019531 548.8125 579.011719 548.8125 579 C 547.359375 579 545.90625 579.007812 544.457031 578.996094 C 542.765625 578.988281 541.230469 578.890625 539.820312 578.738281 C 539.246094 578.679688 538.628906 578.535156 538.898438 578.503906 C 539.214844 578.464844 539.578125 578.425781 539.949219 578.417969 C 541.789062 578.375 543.691406 578.378906 545.476562 578.308594 C 548.179688 578.195312 550.382812 578.34375 552.457031 578.578125 C 552.871094 578.625 553.199219 578.753906 553.101562 578.832031 Z M 552.734375 576.164062 L 552.332031 576.160156 L 552.542969 576.109375 Z M 542.808594 575.992188 L 542.449219 575.988281 L 542.652344 575.9375 Z M 537.882812 587.652344 C 537.761719 587.667969 537.496094 587.671875 537.359375 587.660156 C 536.816406 587.613281 536.75 587.484375 537.238281 587.425781 C 537.359375 587.410156 537.585938 587.421875 537.769531 587.417969 C 538.300781 587.46875 538.375 587.59375 537.882812 587.652344 Z M 529.582031 578.445312 C 529.21875 578.515625 528.585938 578.546875 528.203125 578.585938 C 527.804688 578.578125 527.566406 578.582031 527.402344 578.566406 C 525.042969 578.34375 523.039062 578.066406 521.9375 577.65625 C 521.710938 577.574219 521.789062 577.460938 521.808594 577.367188 C 521.839844 577.238281 523.050781 577.117188 523.65625 577.171875 C 525.855469 577.359375 527.796875 577.605469 529.503906 577.894531 C 530.296875 578.027344 530.371094 578.292969 529.582031 578.445312 Z M 504.484375 587.417969 C 504.65625 587.503906 504.207031 587.648438 503.726562 587.664062 C 503.335938 587.671875 502.875 587.6875 502.539062 587.664062 C 500.605469 587.53125 499.128906 587.304688 497.875 587.039062 C 496.480469 586.742188 497.882812 586.273438 500.304688 586.21875 C 501.058594 586.199219 502.105469 586.285156 502.34375 586.394531 C 503.082031 586.734375 503.785156 587.078125 504.484375 587.417969 Z M 490.515625 586.996094 C 490.246094 587.03125 489.972656 587.09375 489.699219 587.09375 C 489.40625 587.09375 488.992188 587.042969 488.847656 586.996094 C 488.570312 586.914062 489.292969 586.8125 489.890625 586.859375 C 490.167969 586.878906 490.308594 586.949219 490.515625 586.996094 Z M 469.9375 587.21875 L 469.617188 587.191406 L 469.9375 587.160156 Z M 408.96875 584.230469 C 408.898438 584.25 408.671875 584.253906 408.507812 584.265625 C 408.40625 584.246094 408.199219 584.222656 408.207031 584.203125 C 408.25 584.121094 408.539062 584.101562 408.925781 584.152344 C 409.019531 584.164062 409.039062 584.210938 408.96875 584.230469 Z M 374.265625 589.15625 C 374.320312 589.1875 374.304688 589.21875 374.265625 589.253906 C 374.222656 589.28125 374.15625 589.328125 374.011719 589.339844 C 373.671875 589.367188 373.167969 589.410156 372.929688 589.390625 C 370.824219 589.203125 369.035156 588.925781 366.589844 588.839844 C 367.378906 588.691406 368.132812 588.539062 368.964844 588.398438 C 369.476562 588.316406 370.753906 588.332031 371.285156 588.414062 C 372.667969 588.621094 373.746094 588.859375 374.265625 589.15625 Z M 351.621094 576.019531 C 351.511719 576.066406 351.160156 576.125 350.875 576.132812 C 350.441406 576.140625 350.136719 576.078125 350.292969 576.007812 C 350.402344 575.964844 350.773438 575.933594 351.027344 575.894531 C 351.492188 575.90625 351.78125 575.953125 351.621094 576.019531 Z M 344.535156 575.398438 C 344.578125 575.4375 344.210938 575.484375 344.023438 575.527344 C 343.765625 575.492188 343.34375 575.464844 343.300781 575.421875 C 343.261719 575.386719 343.625 575.335938 343.8125 575.292969 C 344.066406 575.328125 344.488281 575.359375 344.535156 575.398438 Z M 615.792969 579.304688 C 615.339844 578.871094 614.398438 578.464844 612.6875 578.117188 C 609.949219 577.558594 606.507812 577.125 602.765625 576.757812 C 601.332031 576.621094 599.9375 576.484375 598.703125 576.300781 C 598.097656 576.210938 597.433594 576.101562 596.683594 576.070312 C 593.828125 575.949219 592.191406 575.652344 590.960938 575.238281 C 590.039062 574.925781 587.117188 574.914062 585.546875 575.171875 C 585.257812 575.21875 584.933594 575.265625 584.695312 575.320312 C 580.71875 576.214844 581.316406 575.886719 576.453125 576.332031 C 575.921875 576.378906 575.277344 576.398438 574.667969 576.417969 C 571.675781 576.515625 569.195312 576.242188 568.765625 575.761719 C 568.675781 575.664062 568.789062 575.5625 568.769531 575.464844 C 568.707031 575.148438 568.53125 575.121094 566.671875 575.132812 C 566.464844 575.136719 566.261719 575.144531 566.054688 575.148438 C 564.941406 575.171875 563.875 575.152344 563.507812 574.953125 C 562.671875 574.515625 560.582031 574.28125 558.015625 574.230469 C 552.875 574.136719 548.464844 573.785156 544.175781 573.359375 C 544 573.34375 543.800781 573.328125 543.605469 573.320312 C 542.601562 573.257812 541.554688 573.234375 540.539062 573.296875 C 539.167969 573.375 537.824219 573.46875 536.484375 573.5625 C 533.003906 573.804688 529.433594 573.980469 525.566406 573.949219 C 524.945312 573.941406 524.3125 573.953125 523.691406 573.964844 C 520.621094 574.015625 518.496094 574.332031 517.695312 574.851562 C 517.347656 575.078125 518.238281 575.339844 519.652344 575.410156 C 520.246094 575.4375 520.882812 575.441406 521.5 575.460938 C 522.863281 575.5 523.527344 575.570312 523.347656 575.660156 C 523.164062 575.753906 522.941406 575.851562 522.546875 575.921875 C 519.34375 576.492188 515.101562 576.222656 512.917969 575.753906 C 512.464844 575.65625 512.335938 575.507812 512.289062 575.378906 C 512.230469 575.214844 512.425781 575.046875 512.46875 574.882812 C 512.476562 574.859375 512.261719 574.8125 512.125 574.808594 C 511.746094 574.800781 511.183594 574.789062 510.988281 574.820312 C 510.433594 574.914062 509.878906 575.023438 509.589844 575.140625 C 508.957031 575.402344 509.1875 575.667969 509.757812 575.925781 C 510.886719 576.433594 512.492188 576.898438 514.71875 577.304688 C 515.820312 577.503906 516.9375 577.703125 517.949219 577.914062 C 518.300781 577.988281 518.375 578.097656 518.535156 578.195312 C 518.683594 578.28125 517.933594 578.410156 517.386719 578.390625 C 515.566406 578.320312 513.796875 578.226562 511.855469 578.28125 C 511.09375 578.300781 510.109375 578.273438 509.449219 578.210938 C 507.351562 578.003906 505.117188 578.023438 502.796875 578.015625 C 500.449219 578.003906 498.257812 578.019531 496.097656 578.183594 C 494.863281 578.277344 493.585938 578.214844 492.65625 578.058594 C 491.078125 577.789062 489.613281 577.507812 488.050781 577.238281 C 487.152344 577.085938 485.710938 577.09375 484.671875 577.242188 C 484.363281 577.285156 484.058594 577.335938 483.804688 577.386719 C 482.390625 577.683594 480.546875 577.765625 478.257812 577.714844 C 476.621094 577.679688 474.9375 577.695312 473.273438 577.6875 C 472.441406 577.6875 471.601562 577.707031 470.769531 577.699219 C 467.398438 577.675781 464.574219 577.519531 463.679688 576.917969 C 463.589844 576.855469 463.21875 576.808594 462.980469 576.753906 C 462.585938 576.667969 461.113281 576.691406 460.777344 576.789062 C 460.484375 576.878906 460.09375 576.96875 460.019531 577.0625 C 459.824219 577.316406 459.765625 577.574219 459.652344 577.832031 C 457.859375 577.671875 456.046875 577.519531 454.296875 577.351562 C 452.597656 577.1875 450.808594 577.105469 448.90625 577.199219 C 446.546875 577.316406 444.410156 577.269531 442.265625 577.082031 C 441.371094 577.003906 440.207031 577.003906 439.296875 576.929688 C 436.878906 576.730469 434.644531 576.671875 432.34375 576.984375 C 431.355469 577.117188 429.980469 577.097656 428.75 577.015625 C 428.171875 576.976562 427.609375 576.933594 427.042969 576.890625 C 425.628906 576.777344 424.210938 576.792969 422.792969 576.886719 C 422.40625 576.910156 422.019531 576.9375 421.636719 576.964844 C 420.226562 577.066406 418.78125 577.082031 417.382812 576.972656 C 415.207031 576.808594 413.351562 576.839844 411.820312 577.160156 C 411.574219 577.210938 411.257812 577.269531 410.898438 577.289062 C 410.335938 577.324219 409.710938 577.332031 409.109375 577.339844 C 408.929688 577.347656 408.691406 577.324219 408.539062 577.300781 C 405.832031 576.933594 402.597656 576.847656 399.160156 576.847656 C 395.199219 576.855469 391.234375 576.742188 387.273438 576.886719 C 386.3125 576.921875 385.195312 576.882812 384.191406 576.847656 C 383.175781 576.808594 382.214844 576.738281 381.234375 576.683594 C 379.03125 576.550781 376.78125 576.519531 374.4375 576.558594 C 373 576.582031 371.527344 576.582031 370.085938 576.5625 C 368.71875 576.546875 367.417969 576.273438 367.582031 576.058594 C 367.703125 575.894531 367.933594 575.730469 368.191406 575.570312 C 368.554688 575.34375 369.113281 575.128906 369.351562 574.898438 C 369.675781 574.589844 369.1875 574.300781 367.828125 574.0625 C 367.578125 574.019531 367.132812 574 366.75 573.980469 C 366.292969 573.960938 365.523438 574.074219 365.488281 574.167969 C 365.371094 574.464844 365.320312 574.761719 365.167969 575.0625 C 364.972656 575.441406 363.992188 575.769531 362.300781 576.039062 C 361.863281 576.109375 361.328125 576.164062 360.792969 576.214844 C 359.167969 576.367188 356.554688 576.160156 356.488281 575.863281 C 356.433594 575.597656 356.550781 575.332031 356.722656 575.066406 C 356.851562 574.871094 357.195312 574.675781 357.421875 574.480469 C 357.53125 574.382812 357.046875 574.230469 356.613281 574.230469 C 356.21875 574.230469 355.773438 574.238281 355.445312 574.265625 C 354.734375 574.332031 354.117188 574.425781 353.386719 574.484375 C 353.175781 574.496094 352.457031 574.441406 352.40625 574.402344 C 352.117188 574.175781 351.96875 573.945312 351.746094 573.714844 C 351.609375 573.574219 350.484375 573.519531 349.765625 573.609375 C 349.605469 573.632812 349.441406 573.652344 349.308594 573.679688 C 347.53125 574.027344 346.363281 574.03125 344.296875 573.65625 C 343.625 573.53125 342.769531 573.429688 341.9375 573.335938 C 341.21875 573.253906 339.605469 573.296875 339.015625 573.402344 C 338.738281 573.453125 338.417969 573.5 338.191406 573.550781 C 337.734375 573.664062 337.300781 573.777344 336.914062 573.898438 C 335.890625 574.207031 334.386719 574.421875 332.296875 574.535156 C 331.714844 574.566406 331.152344 574.617188 330.628906 574.675781 C 329.71875 574.765625 329.011719 574.902344 328.8125 575.066406 C 328.382812 575.425781 327.832031 575.789062 327.835938 576.152344 C 327.835938 576.527344 327.484375 576.875 326.507812 577.214844 C 325.484375 577.574219 325.445312 577.9375 326.792969 578.269531 C 329.109375 578.847656 328.695312 579.324219 325.269531 579.753906 C 324.175781 579.894531 323.417969 580.113281 322.742188 580.316406 C 321.863281 580.582031 321.183594 580.863281 320.480469 581.144531 C 319.609375 581.488281 319.226562 581.851562 319.496094 582.222656 C 319.832031 582.6875 319.910156 583.152344 319.535156 583.617188 C 319.023438 584.257812 320.847656 584.707031 324.164062 585.035156 C 327.03125 585.3125 330.054688 585.542969 333.265625 585.703125 C 336.472656 585.859375 339.59375 586.039062 342.519531 586.3125 C 343.933594 586.445312 345.640625 586.496094 347.183594 586.597656 C 348.339844 586.671875 349.480469 586.753906 350.570312 586.851562 C 351.746094 586.957031 352.1875 587.164062 351.734375 587.363281 C 351.457031 587.488281 350.976562 587.605469 350.816406 587.734375 C 350.617188 587.898438 350.496094 588.070312 350.632812 588.226562 C 350.832031 588.457031 351.28125 588.679688 351.65625 588.910156 C 352.519531 589.425781 354.609375 589.78125 357.496094 590.027344 C 358.035156 590.074219 358.679688 590.089844 359.292969 590.109375 C 360.511719 590.140625 361.902344 589.980469 362.0625 589.789062 C 362.117188 589.722656 362.175781 589.65625 362.144531 589.589844 C 361.917969 589.113281 362.691406 588.929688 366.402344 588.855469 C 366.121094 589.210938 365.8125 589.5625 365.574219 589.917969 C 365.457031 590.09375 366.339844 590.214844 367.5625 590.214844 C 367.769531 590.214844 367.980469 590.210938 368.1875 590.207031 C 370.554688 590.144531 372.730469 590.214844 374.820312 590.40625 C 375.894531 590.503906 377.089844 590.582031 378.296875 590.632812 C 381.96875 590.773438 385.515625 590.957031 388.9375 591.21875 C 390.207031 591.316406 391.761719 591.351562 393.195312 591.355469 C 395.902344 591.367188 398.632812 591.359375 401.320312 591.308594 C 403.449219 591.269531 405.460938 591.257812 407.457031 591.398438 C 409.609375 591.546875 411.90625 591.566406 414.21875 591.570312 C 419.234375 591.582031 424.257812 591.5625 429.230469 591.707031 C 431.105469 591.761719 432.984375 591.707031 434.816406 591.632812 C 440.003906 591.421875 445.132812 591.429688 450.304688 591.667969 C 452.082031 591.746094 454.015625 591.765625 455.886719 591.769531 C 460.484375 591.773438 465.085938 591.769531 469.679688 591.738281 C 471.535156 591.726562 473.375 591.644531 475.222656 591.585938 C 476.453125 591.550781 477.71875 591.453125 478.886719 591.476562 C 484.261719 591.589844 489.777344 591.378906 495.070312 591.683594 C 497.28125 591.808594 499.632812 591.765625 501.878906 591.664062 C 503.757812 591.582031 505.570312 591.601562 507.441406 591.667969 C 510.496094 591.78125 513.535156 591.898438 516.476562 592.074219 C 517.015625 592.105469 517.765625 592.011719 517.757812 591.914062 C 517.742188 591.78125 517.574219 591.648438 517.660156 591.519531 C 517.753906 591.378906 518.417969 591.285156 519.191406 591.222656 C 519.375 591.207031 519.589844 591.199219 519.792969 591.199219 C 523.378906 591.207031 526.824219 591.0625 530.3125 590.960938 C 531.335938 590.933594 532.433594 590.917969 533.347656 590.847656 C 536.441406 590.609375 539.761719 590.5625 543.09375 590.511719 C 544.34375 590.492188 545.589844 590.46875 546.820312 590.429688 C 549.757812 590.339844 552.636719 590.386719 555.496094 590.507812 C 555.671875 590.515625 556.019531 590.507812 556.070312 590.488281 C 556.230469 590.429688 556.480469 590.355469 556.355469 590.3125 C 554.101562 589.523438 551.765625 588.742188 548.1875 588.074219 C 547.394531 587.925781 546.859375 587.738281 546.3125 587.5625 C 546.175781 587.515625 546.332031 587.421875 546.5625 587.382812 C 546.785156 587.34375 547.382812 587.316406 547.644531 587.335938 C 548.367188 587.398438 548.996094 587.488281 549.675781 587.5625 C 550.878906 587.691406 552.042969 587.835938 553.308594 587.949219 C 555.027344 588.101562 556.894531 588.15625 558.710938 588 C 562.035156 587.707031 564.71875 587.871094 567.164062 588.265625 C 568.042969 588.410156 568.945312 588.546875 569.914062 588.675781 C 570.550781 588.757812 571.296875 588.824219 572.042969 588.882812 C 574.089844 589.042969 576.460938 588.84375 576.851562 588.492188 C 577.222656 588.160156 577.171875 587.824219 576.515625 587.507812 C 575.808594 587.160156 574.851562 586.824219 574.070312 586.480469 C 572.15625 585.636719 572.101562 585.742188 566.761719 585.707031 C 565.511719 585.699219 564.257812 585.707031 563.007812 585.699219 C 562.199219 585.691406 561.277344 585.535156 561.507812 585.429688 C 561.695312 585.34375 562.101562 585.230469 562.554688 585.210938 C 563.949219 585.148438 565.410156 585.125 566.835938 585.085938 C 568.824219 585.023438 570.1875 584.800781 570.558594 584.484375 C 570.671875 584.386719 570.792969 584.285156 570.746094 584.1875 C 570.539062 583.75 571.9375 583.5 574.378906 583.367188 C 575.960938 583.28125 577.5625 583.207031 579.160156 583.128906 C 582.160156 582.988281 585.261719 582.90625 588.140625 582.691406 C 589.246094 582.609375 590.554688 582.59375 591.785156 582.558594 C 595.914062 582.4375 599.960938 582.277344 603.746094 581.980469 C 604.480469 581.921875 605.144531 581.839844 605.792969 581.757812 C 606.464844 581.671875 606.671875 581.402344 606.171875 581.289062 C 605.691406 581.183594 605.207031 581.074219 604.632812 580.980469 C 603.460938 580.789062 602.160156 580.617188 601.03125 580.421875 C 598.878906 580.050781 596.574219 579.835938 593.296875 580.078125 C 592.097656 580.164062 590.761719 580.082031 589.820312 579.9375 C 588.929688 579.804688 588.207031 579.636719 587.484375 579.476562 C 587.042969 579.378906 587.628906 579.171875 588.367188 579.15625 C 589.390625 579.140625 590.441406 579.109375 591.453125 579.128906 C 593.957031 579.171875 596.449219 579.207031 598.960938 579.160156 C 601.308594 579.117188 603.519531 579.191406 605.691406 579.332031 C 607.820312 579.472656 609.992188 579.59375 612.167969 579.710938 C 612.742188 579.742188 613.394531 579.742188 614.011719 579.75 C 614.664062 579.761719 615.675781 579.613281 615.730469 579.5 C 615.757812 579.433594 615.859375 579.367188 615.792969 579.304688 " fill-opacity="1" fill-rule="nonzero"/></g><path fill="#ffffff" d="M 468.992188 573.828125 C 466.773438 573.734375 464.542969 573.652344 462.238281 573.675781 C 459.3125 573.707031 456.433594 573.6875 453.566406 573.582031 C 452.097656 573.523438 450.683594 573.582031 449.4375 573.726562 C 448.9375 573.789062 448.421875 573.84375 447.863281 573.886719 C 447.414062 573.921875 447.054688 573.882812 446.945312 573.808594 C 446.902344 573.777344 446.886719 573.734375 446.984375 573.710938 C 448.285156 573.421875 449.605469 573.132812 450.921875 572.84375 C 453.390625 572.867188 455.898438 572.855469 458.324219 572.921875 C 462.414062 573.03125 466.457031 573.191406 470.507812 573.332031 C 471.300781 573.359375 472.050781 573.421875 472.8125 573.472656 C 473.3125 573.503906 473.773438 573.664062 473.464844 573.71875 C 473.082031 573.789062 472.542969 573.875 472.046875 573.878906 C 471.035156 573.890625 469.96875 573.871094 468.992188 573.828125 " fill-opacity="1" fill-rule="nonzero"/><path fill="#ffffff" d="M 450.984375 572.828125 C 450.964844 572.835938 450.941406 572.839844 450.921875 572.84375 C 450.90625 572.84375 450.890625 572.84375 450.871094 572.84375 L 450.984375 572.828125 " fill-opacity="1" fill-rule="nonzero"/><path fill="#ffffff" d="M 566.074219 590.085938 C 566.652344 590.132812 567.320312 590.160156 567.707031 590.226562 C 568.398438 590.34375 569.027344 590.480469 569.492188 590.625 C 570.335938 590.886719 571.070312 591.15625 571.773438 591.433594 C 571.878906 591.472656 571.582031 591.542969 571.390625 591.59375 C 571.332031 591.613281 570.96875 591.617188 570.824219 591.605469 C 568.25 591.382812 565.535156 591.253906 562.582031 591.257812 C 561.921875 591.257812 561.285156 591.050781 561.464844 590.9375 C 561.953125 590.644531 562.96875 590.398438 564.382812 590.199219 C 564.808594 590.140625 565.480469 590.125 566.074219 590.085938 " fill-opacity="1" fill-rule="nonzero"/><path fill="#ffffff" d="M 482.328125 573.898438 C 482.140625 573.890625 481.988281 573.859375 481.800781 573.847656 C 481.351562 573.816406 481.265625 573.648438 481.640625 573.585938 C 482.253906 573.480469 483.042969 573.425781 483.863281 573.449219 C 485.078125 573.476562 486.324219 573.515625 487.445312 573.59375 C 489.71875 573.75 491.925781 573.929688 494.367188 574.019531 C 494.535156 574.023438 494.707031 574.058594 494.800781 574.085938 C 494.886719 574.109375 494.871094 574.144531 494.898438 574.175781 C 494.558594 574.207031 494.183594 574.269531 493.890625 574.257812 C 490.03125 574.144531 486.179688 574.019531 482.328125 573.898438 " fill-opacity="1" fill-rule="nonzero"/><path fill="#ffffff" d="M 499.050781 576.144531 C 498.96875 576.117188 499 576.082031 498.984375 576.050781 C 498.917969 575.972656 499.675781 575.863281 500.214844 575.863281 C 502.34375 575.875 504.148438 576 505.628906 576.242188 C 506.285156 576.351562 506.304688 576.570312 505.667969 576.691406 C 505.179688 576.78125 504.082031 576.828125 503.449219 576.78125 C 501.535156 576.648438 499.96875 576.453125 499.050781 576.144531 " fill-opacity="1" fill-rule="nonzero"/><path fill="#ffffff" d="M 426.128906 574.296875 C 425.851562 574.253906 425.378906 574.21875 425.320312 574.167969 C 424.960938 573.859375 425.464844 573.582031 426.84375 573.351562 C 427.511719 573.242188 428.855469 573.242188 429.65625 573.355469 C 430.25 573.4375 430.417969 573.605469 430.011719 573.714844 C 429.160156 573.941406 428.246094 574.160156 426.730469 574.289062 C 426.566406 574.300781 426.332031 574.296875 426.128906 574.296875 " fill-opacity="1" fill-rule="nonzero"/><path fill="#ffffff" d="M 390.449219 575.113281 C 390.09375 575.105469 389.621094 575.058594 389.480469 575.011719 C 388.539062 574.6875 388.988281 574.378906 390.136719 574.09375 C 390.328125 574.046875 390.773438 574.015625 391.132812 573.996094 C 391.585938 573.96875 392.390625 574.058594 392.515625 574.144531 C 392.652344 574.238281 392.773438 574.332031 392.863281 574.398438 C 392.800781 574.660156 392.648438 574.886719 391.550781 575.054688 C 391.300781 575.097656 390.800781 575.121094 390.449219 575.113281 " fill-opacity="1" fill-rule="nonzero"/><path fill="#ffffff" d="M 379.425781 574.953125 C 377.957031 574.894531 377.214844 574.617188 377.941406 574.410156 C 378.207031 574.332031 379.058594 574.289062 379.578125 574.332031 C 380.792969 574.429688 381.328125 574.617188 380.863281 574.820312 C 380.742188 574.871094 380.3125 574.90625 380.027344 574.949219 C 379.824219 574.953125 379.613281 574.960938 379.425781 574.953125 " fill-opacity="1" fill-rule="nonzero"/><path fill="#ffffff" d="M 408.546875 573.574219 C 408.597656 573.539062 409.171875 573.484375 409.445312 573.488281 C 410.339844 573.515625 410.792969 573.621094 410.910156 573.765625 C 410.6875 573.808594 410.472656 573.890625 410.234375 573.894531 C 409.167969 573.902344 408.335938 573.746094 408.546875 573.574219 " fill-opacity="1" fill-rule="nonzero"/><path fill="#ffffff" d="M 420.457031 573.460938 C 420.363281 573.363281 421.179688 573.296875 421.617188 573.367188 C 421.835938 573.402344 421.84375 573.46875 421.945312 573.523438 C 421.644531 573.550781 421.289062 573.605469 421.054688 573.59375 C 420.792969 573.582031 420.5 573.511719 420.457031 573.460938 " fill-opacity="1" fill-rule="nonzero"/><g clip-path="url(#5776fdec4d)"><path fill="#ffffff" d="M 423.925781 572.046875 C 424.121094 572 424.257812 571.929688 424.523438 571.914062 C 424.824219 571.894531 425.339844 571.910156 425.582031 571.941406 C 425.789062 571.96875 425.917969 572.066406 425.78125 572.097656 C 425.617188 572.136719 425.105469 572.160156 424.789062 572.152344 C 424.472656 572.144531 424.214844 572.085938 423.925781 572.046875 " fill-opacity="1" fill-rule="nonzero"/></g><path fill="#ffffff" d="M 456.585938 576.152344 C 456.296875 576.132812 456.011719 576.066406 455.949219 576.015625 C 455.867188 575.945312 456.207031 575.90625 456.671875 575.914062 C 456.890625 575.960938 457.238281 576.003906 457.296875 576.054688 C 457.378906 576.125 456.992188 576.179688 456.585938 576.152344 " fill-opacity="1" fill-rule="nonzero"/><path fill="#ffffff" d="M 471.710938 576.941406 C 471.390625 576.917969 470.90625 576.902344 470.808594 576.859375 C 470.714844 576.824219 471.035156 576.761719 471.171875 576.707031 C 471.488281 576.734375 471.804688 576.761719 472.125 576.785156 C 471.984375 576.839844 471.847656 576.890625 471.710938 576.941406 " fill-opacity="1" fill-rule="nonzero"/><path fill="#ffffff" d="M 503.667969 574.304688 C 503.582031 574.300781 503.460938 574.25 503.503906 574.226562 C 503.550781 574.203125 503.789062 574.171875 503.914062 574.175781 C 504.257812 574.179688 504.585938 574.207031 504.921875 574.226562 C 504.863281 574.25 504.828125 574.300781 504.742188 574.300781 C 504.390625 574.3125 504.019531 574.3125 503.667969 574.304688 " fill-opacity="1" fill-rule="nonzero"/><path fill="#ffffff" d="M 435.777344 573.664062 C 435.753906 573.625 436.117188 573.578125 436.3125 573.535156 C 436.566406 573.570312 437 573.601562 437.023438 573.636719 C 437.046875 573.675781 436.683594 573.722656 436.484375 573.765625 C 436.230469 573.734375 435.796875 573.703125 435.777344 573.664062 " fill-opacity="1" fill-rule="nonzero"/><path fill="#ffffff" d="M 445.058594 576.351562 C 445.296875 576.3125 445.539062 576.277344 445.777344 576.238281 C 446.03125 576.273438 446.28125 576.3125 446.53125 576.347656 C 446.292969 576.382812 446.054688 576.449219 445.8125 576.449219 C 445.5625 576.449219 445.3125 576.386719 445.058594 576.351562 " fill-opacity="1" fill-rule="nonzero"/><path fill="#ffffff" d="M 488.902344 576.003906 C 488.789062 575.996094 488.769531 575.953125 488.707031 575.929688 C 488.847656 575.910156 488.988281 575.882812 489.125 575.882812 C 489.269531 575.882812 489.511719 575.90625 489.535156 575.929688 C 489.617188 576.007812 489.363281 576.039062 488.902344 576.003906 " fill-opacity="1" fill-rule="nonzero"/><g clip-path="url(#7e9eae793b)"><path fill="#ffffff" d="M 640 265.5625 C 639.925781 265.46875 639.964844 265.355469 639.628906 265.289062 C 639.292969 265.226562 638.574219 265.1875 638.011719 265.183594 C 637.421875 265.183594 636.769531 265.214844 636.238281 265.261719 C 634.152344 265.441406 631.957031 265.507812 629.132812 265.4375 C 628.160156 265.453125 626.699219 265.453125 625.292969 265.496094 C 624.539062 265.519531 623.828125 265.613281 623.207031 265.691406 C 622.984375 265.71875 623.027344 265.8125 623.039062 265.875 C 623.042969 265.898438 623.269531 265.933594 623.433594 265.941406 C 625.421875 266.019531 627.585938 265.953125 629.457031 266.136719 C 629.972656 266.1875 630.601562 266.214844 631.199219 266.238281 C 634.183594 266.363281 638.050781 266.101562 639.796875 265.65625 C 639.902344 265.628906 640.019531 265.59375 640 265.5625 Z M 613.246094 265.625 C 613.148438 265.546875 612.519531 265.449219 612.03125 265.433594 C 611.035156 265.402344 609.980469 265.425781 608.953125 265.425781 C 608.953125 265.433594 608.953125 265.445312 608.953125 265.457031 C 607.5 265.457031 606.046875 265.449219 604.601562 265.460938 C 602.90625 265.46875 601.371094 265.566406 599.964844 265.71875 C 599.386719 265.777344 598.769531 265.921875 599.039062 265.953125 C 599.359375 265.992188 599.71875 266.03125 600.089844 266.039062 C 601.929688 266.078125 603.832031 266.078125 605.617188 266.148438 C 608.324219 266.261719 610.523438 266.113281 612.601562 265.878906 C 613.011719 265.832031 613.339844 265.699219 613.246094 265.625 Z M 612.875 268.289062 L 612.472656 268.296875 L 612.683594 268.347656 Z M 602.949219 268.464844 L 602.589844 268.46875 L 602.792969 268.519531 Z M 598.023438 256.804688 C 597.902344 256.789062 597.636719 256.785156 597.5 256.796875 C 596.957031 256.84375 596.890625 256.972656 597.378906 257.03125 C 597.5 257.042969 597.726562 257.035156 597.910156 257.039062 C 598.441406 256.988281 598.515625 256.863281 598.023438 256.804688 Z M 589.722656 266.011719 C 589.363281 265.941406 588.726562 265.910156 588.34375 265.871094 C 587.949219 265.878906 587.707031 265.875 587.542969 265.890625 C 585.183594 266.109375 583.183594 266.390625 582.078125 266.800781 C 581.851562 266.882812 581.929688 266.996094 581.953125 267.089844 C 581.984375 267.214844 583.191406 267.339844 583.796875 267.285156 C 585.996094 267.097656 587.9375 266.851562 589.648438 266.5625 C 590.4375 266.425781 590.511719 266.164062 589.722656 266.011719 Z M 564.625 257.039062 C 564.796875 256.953125 564.351562 256.808594 563.871094 256.792969 C 563.476562 256.785156 563.015625 256.765625 562.683594 256.792969 C 560.75 256.925781 559.269531 257.152344 558.019531 257.417969 C 556.621094 257.714844 558.023438 258.183594 560.445312 258.238281 C 561.199219 258.257812 562.246094 258.171875 562.484375 258.0625 C 563.222656 257.722656 563.925781 257.378906 564.625 257.039062 Z M 550.660156 257.460938 C 550.386719 257.425781 550.113281 257.363281 549.84375 257.363281 C 549.546875 257.363281 549.136719 257.414062 548.992188 257.460938 C 548.714844 257.542969 549.433594 257.644531 550.03125 257.597656 C 550.3125 257.574219 550.449219 257.507812 550.660156 257.460938 Z M 530.082031 257.238281 L 529.757812 257.265625 L 530.078125 257.296875 Z M 469.109375 260.226562 C 469.039062 260.207031 468.8125 260.203125 468.652344 260.191406 C 468.546875 260.210938 468.339844 260.234375 468.347656 260.253906 C 468.394531 260.335938 468.679688 260.355469 469.066406 260.304688 C 469.164062 260.292969 469.179688 260.246094 469.109375 260.226562 Z M 434.40625 255.300781 C 434.460938 255.269531 434.445312 255.238281 434.40625 255.203125 C 434.363281 255.175781 434.296875 255.128906 434.15625 255.117188 C 433.816406 255.089844 433.308594 255.046875 433.070312 255.066406 C 430.964844 255.253906 429.175781 255.53125 426.730469 255.617188 C 427.519531 255.765625 428.273438 255.917969 429.109375 256.058594 C 429.617188 256.140625 430.894531 256.121094 431.425781 256.042969 C 432.808594 255.835938 433.886719 255.597656 434.40625 255.300781 Z M 411.761719 268.4375 C 411.652344 268.390625 411.304688 268.332031 411.019531 268.324219 C 410.582031 268.316406 410.28125 268.378906 410.433594 268.449219 C 410.542969 268.492188 410.914062 268.523438 411.167969 268.5625 C 411.632812 268.550781 411.921875 268.503906 411.761719 268.4375 Z M 404.675781 269.058594 C 404.71875 269.019531 404.351562 268.972656 404.164062 268.929688 C 403.90625 268.964844 403.488281 268.992188 403.445312 269.035156 C 403.402344 269.070312 403.765625 269.117188 403.953125 269.164062 C 404.207031 269.128906 404.628906 269.097656 404.675781 269.058594 Z M 675.933594 265.152344 C 675.484375 265.585938 674.539062 265.992188 672.828125 266.339844 C 670.089844 266.898438 666.648438 267.332031 662.90625 267.699219 C 661.472656 267.835938 660.078125 267.972656 658.847656 268.15625 C 658.238281 268.246094 657.578125 268.355469 656.824219 268.386719 C 653.96875 268.503906 652.332031 268.800781 651.101562 269.21875 C 650.179688 269.527344 647.261719 269.542969 645.6875 269.28125 C 645.398438 269.238281 645.074219 269.191406 644.835938 269.136719 C 640.859375 268.242188 641.460938 268.570312 636.59375 268.125 C 636.066406 268.078125 635.421875 268.058594 634.808594 268.039062 C 631.820312 267.941406 629.335938 268.214844 628.90625 268.695312 C 628.816406 268.792969 628.929688 268.894531 628.910156 268.992188 C 628.851562 269.308594 628.671875 269.335938 626.816406 269.324219 C 626.605469 269.320312 626.40625 269.3125 626.195312 269.308594 C 625.085938 269.28125 624.015625 269.304688 623.648438 269.503906 C 622.816406 269.941406 620.726562 270.171875 618.15625 270.222656 C 613.015625 270.320312 608.605469 270.671875 604.316406 271.097656 C 604.140625 271.113281 603.941406 271.128906 603.746094 271.136719 C 602.742188 271.195312 601.695312 271.222656 600.679688 271.160156 C 599.308594 271.082031 597.964844 270.988281 596.628906 270.894531 C 593.148438 270.652344 589.578125 270.476562 585.710938 270.507812 C 585.085938 270.515625 584.453125 270.503906 583.832031 270.492188 C 580.765625 270.4375 578.636719 270.125 577.839844 269.605469 C 577.488281 269.378906 578.382812 269.117188 579.792969 269.046875 C 580.386719 269.015625 581.023438 269.015625 581.640625 268.996094 C 583.007812 268.957031 583.667969 268.882812 583.488281 268.796875 C 583.304688 268.703125 583.082031 268.605469 582.691406 268.535156 C 579.484375 267.960938 575.242188 268.234375 573.058594 268.703125 C 572.605469 268.800781 572.476562 268.949219 572.429688 269.078125 C 572.371094 269.242188 572.566406 269.410156 572.609375 269.574219 C 572.617188 269.597656 572.40625 269.644531 572.265625 269.648438 C 571.886719 269.65625 571.324219 269.667969 571.128906 269.636719 C 570.574219 269.542969 570.023438 269.433594 569.734375 269.3125 C 569.097656 269.054688 569.328125 268.789062 569.898438 268.53125 C 571.027344 268.023438 572.632812 267.558594 574.863281 267.152344 C 575.960938 266.953125 577.082031 266.753906 578.089844 266.539062 C 578.445312 266.46875 578.515625 266.359375 578.679688 266.261719 C 578.824219 266.175781 578.074219 266.046875 577.527344 266.066406 C 575.710938 266.136719 573.941406 266.230469 571.996094 266.175781 C 571.234375 266.15625 570.25 266.183594 569.589844 266.246094 C 567.496094 266.453125 565.257812 266.433594 562.9375 266.441406 C 560.589844 266.453125 558.398438 266.4375 556.238281 266.273438 C 555.003906 266.179688 553.730469 266.242188 552.796875 266.398438 C 551.222656 266.667969 549.753906 266.949219 548.195312 267.214844 C 547.292969 267.367188 545.851562 267.363281 544.816406 267.214844 C 544.503906 267.171875 544.199219 267.121094 543.949219 267.070312 C 542.53125 266.773438 540.6875 266.691406 538.402344 266.742188 C 536.765625 266.777344 535.078125 266.761719 533.417969 266.769531 C 532.582031 266.769531 531.742188 266.75 530.910156 266.753906 C 527.542969 266.78125 524.714844 266.9375 523.820312 267.539062 C 523.730469 267.601562 523.359375 267.648438 523.121094 267.703125 C 522.726562 267.789062 521.253906 267.765625 520.917969 267.664062 C 520.625 267.578125 520.234375 267.488281 520.160156 267.394531 C 519.964844 267.140625 519.90625 266.882812 519.792969 266.625 C 518 266.785156 516.1875 266.9375 514.4375 267.105469 C 512.738281 267.269531 510.949219 267.351562 509.046875 267.257812 C 506.6875 267.140625 504.550781 267.1875 502.40625 267.375 C 501.511719 267.453125 500.347656 267.453125 499.4375 267.527344 C 497.019531 267.726562 494.789062 267.785156 492.484375 267.472656 C 491.496094 267.339844 490.121094 267.359375 488.894531 267.441406 C 488.3125 267.480469 487.75 267.523438 487.183594 267.566406 C 485.769531 267.679688 484.351562 267.664062 482.933594 267.570312 C 482.546875 267.546875 482.160156 267.519531 481.78125 267.492188 C 480.367188 267.390625 478.925781 267.375 477.523438 267.480469 C 475.347656 267.648438 473.492188 267.613281 471.960938 267.296875 C 471.714844 267.246094 471.398438 267.1875 471.039062 267.167969 C 470.476562 267.132812 469.851562 267.125 469.25 267.117188 C 469.070312 267.109375 468.835938 267.132812 468.683594 267.152344 C 465.972656 267.523438 462.738281 267.609375 459.300781 267.609375 C 455.339844 267.601562 451.378906 267.714844 447.417969 267.570312 C 446.453125 267.53125 445.335938 267.574219 444.332031 267.609375 C 443.316406 267.644531 442.355469 267.71875 441.375 267.773438 C 439.171875 267.90625 436.921875 267.9375 434.578125 267.898438 C 433.140625 267.875 431.667969 267.875 430.226562 267.894531 C 428.859375 267.910156 427.558594 268.183594 427.722656 268.398438 C 427.84375 268.5625 428.074219 268.726562 428.332031 268.882812 C 428.695312 269.113281 429.253906 269.328125 429.492188 269.558594 C 429.816406 269.867188 429.328125 270.15625 427.96875 270.394531 C 427.71875 270.4375 427.277344 270.457031 426.890625 270.476562 C 426.433594 270.496094 425.664062 270.382812 425.628906 270.289062 C 425.511719 269.992188 425.460938 269.695312 425.308594 269.394531 C 425.113281 269.015625 424.132812 268.6875 422.441406 268.417969 C 422.003906 268.347656 421.46875 268.292969 420.933594 268.242188 C 419.308594 268.089844 416.695312 268.296875 416.628906 268.59375 C 416.574219 268.859375 416.691406 269.125 416.863281 269.390625 C 416.992188 269.585938 417.335938 269.78125 417.5625 269.976562 C 417.671875 270.074219 417.1875 270.222656 416.753906 270.222656 C 416.359375 270.222656 415.914062 270.21875 415.585938 270.191406 C 414.875 270.125 414.257812 270.03125 413.527344 269.972656 C 413.316406 269.957031 412.597656 270.015625 412.546875 270.054688 C 412.257812 270.28125 412.113281 270.511719 411.886719 270.742188 C 411.75 270.882812 410.625 270.9375 409.90625 270.847656 C 409.746094 270.824219 409.585938 270.804688 409.453125 270.777344 C 407.671875 270.429688 406.503906 270.425781 404.4375 270.800781 C 403.765625 270.925781 402.914062 271.027344 402.078125 271.121094 C 401.359375 271.203125 399.746094 271.160156 399.15625 271.054688 C 398.878906 271.003906 398.558594 270.957031 398.332031 270.90625 C 397.878906 270.792969 397.441406 270.679688 397.054688 270.558594 C 396.03125 270.25 394.53125 270.035156 392.4375 269.921875 C 391.855469 269.890625 391.292969 269.839844 390.769531 269.78125 C 389.859375 269.691406 389.152344 269.554688 388.953125 269.390625 C 388.523438 269.03125 387.972656 268.667969 387.976562 268.304688 C 387.976562 267.929688 387.625 267.582031 386.648438 267.242188 C 385.628906 266.882812 385.589844 266.519531 386.933594 266.1875 C 389.25 265.609375 388.835938 265.132812 385.414062 264.703125 C 384.320312 264.5625 383.558594 264.34375 382.882812 264.140625 C 382.003906 263.875 381.324219 263.59375 380.625 263.3125 C 379.75 262.96875 379.367188 262.605469 379.636719 262.234375 C 379.972656 261.769531 380.050781 261.304688 379.675781 260.839844 C 379.164062 260.199219 380.988281 259.75 384.304688 259.421875 C 387.171875 259.140625 390.195312 258.914062 393.40625 258.753906 C 396.613281 258.597656 399.734375 258.417969 402.660156 258.144531 C 404.074219 258.011719 405.78125 257.960938 407.324219 257.859375 C 408.480469 257.785156 409.621094 257.703125 410.710938 257.605469 C 411.886719 257.5 412.328125 257.292969 411.878906 257.09375 C 411.597656 256.96875 411.117188 256.847656 410.957031 256.722656 C 410.761719 256.558594 410.636719 256.386719 410.773438 256.230469 C 410.976562 256 411.421875 255.773438 411.796875 255.546875 C 412.660156 255.03125 414.753906 254.675781 417.640625 254.429688 C 418.175781 254.382812 418.820312 254.367188 419.433594 254.347656 C 420.652344 254.316406 422.042969 254.476562 422.203125 254.667969 C 422.257812 254.734375 422.316406 254.800781 422.285156 254.863281 C 422.058594 255.34375 422.832031 255.527344 426.542969 255.601562 C 426.265625 255.246094 425.953125 254.894531 425.714844 254.539062 C 425.597656 254.363281 426.480469 254.238281 427.703125 254.242188 C 427.914062 254.242188 428.121094 254.246094 428.332031 254.25 C 430.695312 254.3125 432.871094 254.238281 434.960938 254.050781 C 436.039062 253.953125 437.234375 253.875 438.4375 253.824219 C 442.109375 253.683594 445.65625 253.5 449.078125 253.238281 C 450.347656 253.140625 451.902344 253.105469 453.335938 253.101562 C 456.042969 253.089844 458.777344 253.097656 461.460938 253.148438 C 463.589844 253.1875 465.601562 253.199219 467.597656 253.058594 C 469.75 252.910156 472.046875 252.890625 474.363281 252.886719 C 479.375 252.875 484.398438 252.894531 489.371094 252.75 C 491.246094 252.695312 493.128906 252.75 494.960938 252.824219 C 500.144531 253.035156 505.277344 253.027344 510.445312 252.789062 C 512.222656 252.710938 514.160156 252.691406 516.027344 252.6875 C 520.625 252.683594 525.230469 252.6875 529.820312 252.71875 C 531.679688 252.730469 533.519531 252.8125 535.363281 252.867188 C 536.59375 252.90625 537.859375 253.003906 539.027344 252.980469 C 544.402344 252.867188 549.917969 253.078125 555.210938 252.773438 C 557.425781 252.648438 559.777344 252.691406 562.019531 252.792969 C 563.902344 252.875 565.710938 252.855469 567.582031 252.785156 C 570.636719 252.675781 573.675781 252.558594 576.617188 252.382812 C 577.15625 252.351562 577.910156 252.445312 577.898438 252.542969 C 577.882812 252.675781 577.714844 252.808594 577.800781 252.9375 C 577.894531 253.078125 578.558594 253.171875 579.332031 253.234375 C 579.515625 253.246094 579.734375 253.257812 579.9375 253.257812 C 583.519531 253.246094 586.964844 253.394531 590.453125 253.496094 C 591.476562 253.523438 592.574219 253.539062 593.488281 253.609375 C 596.582031 253.847656 599.902344 253.894531 603.238281 253.945312 C 604.484375 253.964844 605.730469 253.988281 606.960938 254.027344 C 609.902344 254.117188 612.777344 254.070312 615.640625 253.949219 C 615.816406 253.941406 616.160156 253.949219 616.210938 253.96875 C 616.371094 254.023438 616.621094 254.101562 616.496094 254.144531 C 614.242188 254.933594 611.90625 255.714844 608.328125 256.382812 C 607.535156 256.53125 607.003906 256.71875 606.453125 256.894531 C 606.316406 256.941406 606.472656 257.035156 606.707031 257.074219 C 606.925781 257.113281 607.527344 257.140625 607.785156 257.121094 C 608.507812 257.058594 609.136719 256.96875 609.820312 256.894531 C 611.019531 256.765625 612.183594 256.621094 613.453125 256.507812 C 615.167969 256.355469 617.035156 256.300781 618.855469 256.457031 C 622.175781 256.746094 624.863281 256.585938 627.308594 256.191406 C 628.1875 256.046875 629.089844 255.90625 630.054688 255.78125 C 630.695312 255.699219 631.441406 255.632812 632.183594 255.574219 C 634.230469 255.414062 636.601562 255.609375 636.992188 255.964844 C 637.363281 256.296875 637.316406 256.632812 636.660156 256.949219 C 635.953125 257.296875 634.992188 257.632812 634.210938 257.976562 C 632.300781 258.820312 632.242188 258.710938 626.902344 258.75 C 625.652344 258.757812 624.402344 258.75 623.152344 258.757812 C 622.339844 258.761719 621.417969 258.921875 621.648438 259.027344 C 621.835938 259.109375 622.242188 259.226562 622.695312 259.246094 C 624.089844 259.308594 625.550781 259.332031 626.980469 259.371094 C 628.964844 259.433594 630.328125 259.652344 630.699219 259.972656 C 630.816406 260.070312 630.933594 260.171875 630.886719 260.269531 C 630.679688 260.707031 632.078125 260.957031 634.519531 261.089844 C 636.101562 261.175781 637.703125 261.25 639.300781 261.328125 C 642.300781 261.46875 645.402344 261.550781 648.28125 261.765625 C 649.386719 261.847656 650.699219 261.863281 651.925781 261.898438 C 656.054688 262.015625 660.101562 262.179688 663.886719 262.476562 C 664.621094 262.535156 665.285156 262.617188 665.9375 262.699219 C 666.605469 262.785156 666.8125 263.054688 666.3125 263.167969 C 665.832031 263.273438 665.347656 263.382812 664.773438 263.476562 C 663.605469 263.667969 662.304688 263.839844 661.171875 264.035156 C 659.019531 264.40625 656.714844 264.621094 653.4375 264.378906 C 652.238281 264.292969 650.902344 264.375 649.960938 264.519531 C 649.074219 264.652344 648.347656 264.820312 647.625 264.980469 C 647.183594 265.078125 647.773438 265.285156 648.507812 265.300781 C 649.535156 265.316406 650.582031 265.347656 651.59375 265.328125 C 654.097656 265.285156 656.589844 265.25 659.101562 265.296875 C 661.449219 265.339844 663.660156 265.265625 665.832031 265.125 C 667.960938 264.984375 670.132812 264.863281 672.308594 264.746094 C 672.882812 264.714844 673.535156 264.714844 674.15625 264.707031 C 674.808594 264.695312 675.816406 264.84375 675.871094 264.953125 C 675.898438 265.023438 676 265.089844 675.933594 265.152344 " fill-opacity="1" fill-rule="nonzero"/></g><path fill="#ffffff" d="M 529.132812 270.628906 C 526.914062 270.722656 524.6875 270.804688 522.378906 270.78125 C 519.453125 270.75 516.574219 270.765625 513.707031 270.875 C 512.238281 270.933594 510.824219 270.875 509.578125 270.730469 C 509.082031 270.667969 508.5625 270.613281 508.007812 270.570312 C 507.558594 270.535156 507.195312 270.574219 507.085938 270.648438 C 507.046875 270.679688 507.027344 270.722656 507.128906 270.746094 C 508.429688 271.035156 509.75 271.324219 511.0625 271.613281 C 513.535156 271.589844 516.042969 271.601562 518.46875 271.535156 C 522.554688 271.425781 526.597656 271.265625 530.648438 271.125 C 531.441406 271.097656 532.191406 271.035156 532.957031 270.984375 C 533.453125 270.953125 533.917969 270.792969 533.605469 270.734375 C 533.222656 270.667969 532.683594 270.582031 532.1875 270.578125 C 531.175781 270.566406 530.113281 270.585938 529.132812 270.628906 " fill-opacity="1" fill-rule="nonzero"/><path fill="#ffffff" d="M 511.125 271.625 C 511.105469 271.621094 511.082031 271.617188 511.0625 271.613281 C 511.046875 271.613281 511.03125 271.613281 511.011719 271.613281 L 511.125 271.625 " fill-opacity="1" fill-rule="nonzero"/><g clip-path="url(#4a5a5b352c)"><path fill="#ffffff" d="M 626.214844 254.371094 C 626.796875 254.320312 627.460938 254.296875 627.847656 254.230469 C 628.539062 254.113281 629.167969 253.976562 629.632812 253.832031 C 630.480469 253.570312 631.210938 253.296875 631.914062 253.023438 C 632.019531 252.984375 631.722656 252.914062 631.535156 252.863281 C 631.472656 252.84375 631.113281 252.839844 630.964844 252.851562 C 628.390625 253.074219 625.675781 253.203125 622.722656 253.199219 C 622.0625 253.199219 621.425781 253.40625 621.609375 253.519531 C 622.09375 253.8125 623.109375 254.058594 624.523438 254.257812 C 624.949219 254.316406 625.621094 254.332031 626.214844 254.371094 " fill-opacity="1" fill-rule="nonzero"/></g><path fill="#ffffff" d="M 542.472656 270.558594 C 542.28125 270.566406 542.128906 270.597656 541.941406 270.609375 C 541.492188 270.640625 541.410156 270.808594 541.78125 270.871094 C 542.394531 270.976562 543.183594 271.03125 544.003906 271.007812 C 545.21875 270.980469 546.464844 270.941406 547.585938 270.863281 C 549.859375 270.707031 552.066406 270.527344 554.507812 270.4375 C 554.675781 270.433594 554.847656 270.398438 554.941406 270.371094 C 555.027344 270.347656 555.011719 270.3125 555.039062 270.28125 C 554.703125 270.25 554.324219 270.1875 554.03125 270.199219 C 550.171875 270.3125 546.320312 270.4375 542.472656 270.558594 " fill-opacity="1" fill-rule="nonzero"/><path fill="#ffffff" d="M 559.191406 268.3125 C 559.109375 268.339844 559.144531 268.375 559.125 268.40625 C 559.058594 268.484375 559.816406 268.59375 560.355469 268.59375 C 562.484375 268.582031 564.289062 268.457031 565.769531 268.214844 C 566.425781 268.105469 566.445312 267.886719 565.808594 267.765625 C 565.324219 267.675781 564.222656 267.628906 563.589844 267.675781 C 561.675781 267.808594 560.109375 268.003906 559.191406 268.3125 " fill-opacity="1" fill-rule="nonzero"/><path fill="#ffffff" d="M 486.273438 270.160156 C 485.992188 270.203125 485.519531 270.238281 485.464844 270.289062 C 485.105469 270.597656 485.609375 270.875 486.988281 271.105469 C 487.65625 271.214844 488.996094 271.214844 489.796875 271.101562 C 490.390625 271.019531 490.558594 270.851562 490.152344 270.742188 C 489.300781 270.515625 488.390625 270.296875 486.871094 270.167969 C 486.707031 270.15625 486.472656 270.160156 486.273438 270.160156 " fill-opacity="1" fill-rule="nonzero"/><path fill="#ffffff" d="M 450.589844 269.34375 C 450.234375 269.351562 449.761719 269.394531 449.621094 269.445312 C 448.679688 269.769531 449.128906 270.078125 450.277344 270.363281 C 450.46875 270.410156 450.914062 270.4375 451.277344 270.460938 C 451.726562 270.488281 452.53125 270.398438 452.65625 270.3125 C 452.792969 270.21875 452.914062 270.121094 453.003906 270.058594 C 452.941406 269.796875 452.789062 269.570312 451.695312 269.402344 C 451.441406 269.359375 450.941406 269.332031 450.589844 269.34375 " fill-opacity="1" fill-rule="nonzero"/><path fill="#ffffff" d="M 439.566406 269.503906 C 438.097656 269.5625 437.359375 269.839844 438.082031 270.046875 C 438.347656 270.125 439.199219 270.167969 439.722656 270.125 C 440.933594 270.027344 441.472656 269.839844 441.003906 269.636719 C 440.882812 269.585938 440.453125 269.550781 440.167969 269.507812 C 439.96875 269.503906 439.753906 269.496094 439.566406 269.503906 " fill-opacity="1" fill-rule="nonzero"/><path fill="#ffffff" d="M 468.691406 270.882812 C 468.738281 270.917969 469.3125 270.972656 469.585938 270.96875 C 470.484375 270.941406 470.933594 270.835938 471.050781 270.691406 C 470.828125 270.648438 470.617188 270.566406 470.375 270.5625 C 469.308594 270.554688 468.476562 270.710938 468.691406 270.882812 " fill-opacity="1" fill-rule="nonzero"/><path fill="#ffffff" d="M 480.597656 270.996094 C 480.503906 271.09375 481.320312 271.160156 481.761719 271.089844 C 481.976562 271.054688 481.984375 270.988281 482.085938 270.933594 C 481.785156 270.90625 481.429688 270.851562 481.195312 270.863281 C 480.933594 270.875 480.644531 270.945312 480.597656 270.996094 " fill-opacity="1" fill-rule="nonzero"/><g clip-path="url(#3d713298b2)"><path fill="#ffffff" d="M 484.066406 272.410156 C 484.261719 272.457031 484.398438 272.527344 484.664062 272.542969 C 484.964844 272.5625 485.480469 272.546875 485.722656 272.515625 C 485.929688 272.484375 486.058594 272.390625 485.921875 272.359375 C 485.757812 272.320312 485.25 272.296875 484.933594 272.304688 C 484.617188 272.3125 484.355469 272.371094 484.066406 272.410156 " fill-opacity="1" fill-rule="nonzero"/></g><path fill="#ffffff" d="M 516.726562 268.304688 C 516.441406 268.324219 516.152344 268.390625 516.09375 268.441406 C 516.007812 268.511719 516.347656 268.550781 516.8125 268.542969 C 517.03125 268.496094 517.378906 268.453125 517.4375 268.402344 C 517.519531 268.332031 517.136719 268.277344 516.726562 268.304688 " fill-opacity="1" fill-rule="nonzero"/><path fill="#ffffff" d="M 531.851562 267.515625 C 531.535156 267.539062 531.046875 267.554688 530.949219 267.597656 C 530.859375 267.632812 531.175781 267.695312 531.3125 267.746094 C 531.628906 267.722656 531.945312 267.695312 532.265625 267.671875 C 532.125 267.617188 531.988281 267.566406 531.851562 267.515625 " fill-opacity="1" fill-rule="nonzero"/><path fill="#ffffff" d="M 563.808594 270.152344 C 563.722656 270.15625 563.601562 270.207031 563.644531 270.230469 C 563.691406 270.253906 563.929688 270.285156 564.054688 270.28125 C 564.402344 270.273438 564.730469 270.25 565.0625 270.230469 C 565.003906 270.207031 564.96875 270.15625 564.882812 270.15625 C 564.53125 270.144531 564.160156 270.144531 563.808594 270.152344 " fill-opacity="1" fill-rule="nonzero"/><path fill="#ffffff" d="M 495.917969 270.792969 C 495.894531 270.832031 496.257812 270.878906 496.453125 270.921875 C 496.707031 270.886719 497.140625 270.855469 497.164062 270.820312 C 497.191406 270.78125 496.824219 270.734375 496.628906 270.691406 C 496.375 270.722656 495.9375 270.753906 495.917969 270.792969 " fill-opacity="1" fill-rule="nonzero"/><path fill="#ffffff" d="M 505.199219 268.105469 C 505.441406 268.144531 505.679688 268.179688 505.917969 268.21875 C 506.171875 268.183594 506.421875 268.144531 506.671875 268.109375 C 506.433594 268.074219 506.195312 268.007812 505.953125 268.007812 C 505.707031 268.007812 505.453125 268.070312 505.199219 268.105469 " fill-opacity="1" fill-rule="nonzero"/><path fill="#ffffff" d="M 549.042969 268.453125 C 548.929688 268.460938 548.910156 268.503906 548.847656 268.527344 C 548.988281 268.546875 549.128906 268.574219 549.265625 268.574219 C 549.410156 268.574219 549.65625 268.550781 549.675781 268.527344 C 549.761719 268.449219 549.503906 268.417969 549.042969 268.453125 " fill-opacity="1" fill-rule="nonzero"/></svg>