<svg xmlns="http://www.w3.org/2000/svg" xmlns:xlink="http://www.w3.org/1999/xlink" width="1080" zoomAndPan="magnify" viewBox="0 0 810 809.999993" height="1080" preserveAspectRatio="xMidYMid meet" version="1.0"><defs><g/><clipPath id="258d25088e"><path d="M 182 194 L 274 194 L 274 613 L 182 613 Z M 182 194 " clip-rule="nonzero"/></clipPath><clipPath id="8b23d7bee3"><path d="M 0 404.996094 L 226.433594 178.566406 L 452.863281 404.996094 L 226.433594 631.429688 Z M 0 404.996094 " clip-rule="nonzero"/></clipPath><clipPath id="d0e0303dd1"><path d="M 0 404.996094 L 226.433594 178.566406 L 452.863281 404.996094 L 226.433594 631.429688 Z M 0 404.996094 " clip-rule="nonzero"/></clipPath><clipPath id="a8bef7b7c4"><path d="M 0 404.996094 L 226.433594 178.566406 L 452.863281 404.996094 L 226.433594 631.429688 Z M 0 404.996094 " clip-rule="nonzero"/></clipPath><clipPath id="0ac2f1c04b"><path d="M 197 336 L 213 336 L 213 428 L 197 428 Z M 197 336 " clip-rule="nonzero"/></clipPath><clipPath id="eb99747776"><path d="M 0 404.996094 L 226.433594 178.566406 L 452.863281 404.996094 L 226.433594 631.429688 Z M 0 404.996094 " clip-rule="nonzero"/></clipPath><clipPath id="2f8457cd2a"><path d="M 0 404.996094 L 226.433594 178.566406 L 452.863281 404.996094 L 226.433594 631.429688 Z M 0 404.996094 " clip-rule="nonzero"/></clipPath><clipPath id="f9e1b4e8d5"><path d="M 0 404.996094 L 226.433594 178.566406 L 452.863281 404.996094 L 226.433594 631.429688 Z M 0 404.996094 " clip-rule="nonzero"/></clipPath><clipPath id="69350c5ddd"><path d="M 198 301 L 213 301 L 213 331 L 198 331 Z M 198 301 " clip-rule="nonzero"/></clipPath><clipPath id="192a53a704"><path d="M 0 404.996094 L 226.433594 178.566406 L 452.863281 404.996094 L 226.433594 631.429688 Z M 0 404.996094 " clip-rule="nonzero"/></clipPath><clipPath id="41fb9abc3a"><path d="M 0 404.996094 L 226.433594 178.566406 L 452.863281 404.996094 L 226.433594 631.429688 Z M 0 404.996094 " clip-rule="nonzero"/></clipPath><clipPath id="89b3330c72"><path d="M 0 404.996094 L 226.433594 178.566406 L 452.863281 404.996094 L 226.433594 631.429688 Z M 0 404.996094 " clip-rule="nonzero"/></clipPath><clipPath id="88eb9acfe2"><path d="M 285 573 L 581.617188 573 L 581.617188 592.222656 L 285 592.222656 Z M 285 573 " clip-rule="nonzero"/></clipPath><clipPath id="8f25f40c9b"><path d="M 389 571.824219 L 392 571.824219 L 392 573 L 389 573 Z M 389 571.824219 " clip-rule="nonzero"/></clipPath><clipPath id="c19d773d8f"><path d="M 345 252.234375 L 641.757812 252.234375 L 641.757812 272 L 345 272 Z M 345 252.234375 " clip-rule="nonzero"/></clipPath><clipPath id="5fc1b0d0a4"><path d="M 587 252.234375 L 598 252.234375 L 598 255 L 587 255 Z M 587 252.234375 " clip-rule="nonzero"/></clipPath><clipPath id="bcfaee0b5c"><path d="M 449 272 L 452 272 L 452 272.847656 L 449 272.847656 Z M 449 272 " clip-rule="nonzero"/></clipPath></defs><g fill="#000000" fill-opacity="1"><g transform="translate(103.86889, 534.857188)"><g><path d="M 64.09375 -141.9375 C 64.09375 -136.21875 63.046875 -131.804688 60.953125 -128.703125 C 58.859375 -125.597656 56.09375 -123.332031 52.65625 -121.90625 C 49.21875 -120.476562 45.304688 -119.644531 40.921875 -119.40625 C 36.535156 -119.164062 32.050781 -119.046875 27.46875 -119.046875 L 27.46875 0 L 9.15625 0 L 9.15625 -247.25 L 27.46875 -247.25 C 36.625 -247.25 43.679688 -246.484375 48.640625 -244.953125 C 53.609375 -243.429688 57.234375 -241.523438 59.515625 -239.234375 C 61.804688 -236.941406 63.140625 -234.457031 63.515625 -231.78125 C 63.898438 -229.113281 64.09375 -226.640625 64.09375 -224.359375 Z M 45.78125 -224.359375 C 45.78125 -226.640625 45.46875 -228.398438 44.84375 -229.640625 C 44.226562 -230.878906 43.207031 -231.785156 41.78125 -232.359375 C 40.351562 -232.929688 38.46875 -233.265625 36.125 -233.359375 C 33.789062 -233.460938 30.90625 -233.515625 27.46875 -233.515625 L 27.46875 -132.78125 C 29.757812 -132.78125 32 -132.828125 34.1875 -132.921875 C 36.382812 -133.015625 38.34375 -133.347656 40.0625 -133.921875 C 41.78125 -134.492188 43.160156 -135.398438 44.203125 -136.640625 C 45.253906 -137.878906 45.78125 -139.644531 45.78125 -141.9375 Z M 45.78125 -224.359375 "/></g></g></g><g clip-path="url(#258d25088e)"><g clip-path="url(#8b23d7bee3)"><g clip-path="url(#d0e0303dd1)"><g clip-path="url(#a8bef7b7c4)"><path fill="#000000" d="M 227.566406 194.65625 C 225.882812 194.65625 224.214844 194.792969 222.554688 195.058594 C 220.894531 195.324219 219.265625 195.71875 217.667969 196.242188 C 216.070312 196.765625 214.523438 197.414062 213.027344 198.179688 C 211.535156 198.949219 210.109375 199.828125 208.75 200.820312 C 207.394531 201.816406 206.125 202.910156 204.941406 204.101562 C 203.757812 205.296875 202.675781 206.574219 201.695312 207.941406 C 200.714844 209.304688 199.84375 210.738281 199.089844 212.238281 C 198.335938 213.742188 197.703125 215.292969 197.191406 216.894531 C 196.683594 218.496094 196.300781 220.128906 196.050781 221.792969 C 195.796875 223.453125 195.679688 225.125 195.691406 226.804688 C 195.703125 228.488281 195.847656 230.15625 196.121094 231.816406 C 196.398438 233.472656 196.804688 235.097656 197.335938 236.695312 C 197.867188 238.289062 198.523438 239.832031 199.300781 241.320312 C 200.078125 242.8125 200.964844 244.234375 201.964844 245.582031 C 202.96875 246.933594 204.066406 248.199219 205.269531 249.375 C 206.46875 250.550781 207.753906 251.625 209.125 252.597656 L 209.125 267.582031 L 189.265625 267.398438 C 188.304688 267.359375 187.375 267.519531 186.484375 267.886719 C 185.59375 268.25 184.820312 268.785156 184.164062 269.488281 C 183.488281 270.164062 182.972656 270.9375 182.609375 271.820312 C 182.246094 272.699219 182.066406 273.613281 182.066406 274.566406 L 182.964844 541.003906 C 182.964844 541.472656 183.011719 541.941406 183.105469 542.402344 C 183.199219 542.863281 183.335938 543.308594 183.519531 543.742188 C 183.699219 544.179688 183.921875 544.589844 184.1875 544.980469 C 184.449219 545.371094 184.75 545.730469 185.082031 546.0625 C 185.417969 546.390625 185.78125 546.6875 186.171875 546.945312 C 186.566406 547.207031 186.980469 547.425781 187.417969 547.601562 C 187.851562 547.777344 188.300781 547.910156 188.761719 548 C 189.226562 548.089844 189.691406 548.132812 190.160156 548.128906 L 209.019531 548.039062 L 209.085938 554.929688 C 208.53125 555.324219 207.988281 555.738281 207.457031 556.167969 C 206.925781 556.601562 206.410156 557.046875 205.910156 557.511719 C 205.410156 557.976562 204.925781 558.457031 204.453125 558.953125 C 203.984375 559.449219 203.53125 559.957031 203.09375 560.484375 C 202.65625 561.007812 202.234375 561.546875 201.832031 562.097656 C 201.429688 562.648438 201.042969 563.210938 200.675781 563.789062 C 200.308594 564.363281 199.960938 564.953125 199.632812 565.550781 C 199.300781 566.148438 198.992188 566.757812 198.703125 567.375 C 198.414062 567.996094 198.140625 568.621094 197.890625 569.257812 C 197.640625 569.894531 197.414062 570.535156 197.203125 571.1875 C 196.996094 571.835938 196.808594 572.492188 196.640625 573.15625 C 196.472656 573.816406 196.328125 574.484375 196.203125 575.15625 C 196.078125 575.828125 195.976562 576.503906 195.898438 577.183594 C 195.816406 577.859375 195.757812 578.539062 195.71875 579.222656 C 195.683594 579.90625 195.667969 580.585938 195.675781 581.269531 C 195.679688 581.953125 195.710938 582.636719 195.757812 583.316406 C 195.808594 583.996094 195.882812 584.675781 195.976562 585.355469 C 196.070312 586.03125 196.183594 586.703125 196.320312 587.371094 C 196.457031 588.042969 196.617188 588.707031 196.796875 589.363281 C 196.976562 590.023438 197.175781 590.675781 197.398438 591.324219 C 197.621094 591.96875 197.863281 592.609375 198.125 593.238281 C 198.386719 593.867188 198.667969 594.492188 198.96875 595.101562 C 199.273438 595.714844 199.59375 596.316406 199.933594 596.910156 C 200.277344 597.503906 200.636719 598.082031 201.011719 598.652344 C 201.390625 599.222656 201.785156 599.777344 202.199219 600.320312 C 202.613281 600.863281 203.042969 601.394531 203.492188 601.910156 C 203.941406 602.425781 204.402344 602.925781 204.882812 603.414062 C 205.363281 603.898438 205.859375 604.371094 206.367188 604.824219 C 206.878906 605.28125 207.402344 605.71875 207.9375 606.136719 C 208.476562 606.558594 209.027344 606.964844 209.59375 607.347656 C 210.15625 607.734375 210.730469 608.101562 211.320312 608.449219 C 211.90625 608.800781 212.503906 609.128906 213.113281 609.4375 C 213.722656 609.75 214.339844 610.039062 214.964844 610.3125 C 215.59375 610.582031 216.226562 610.832031 216.871094 611.0625 C 217.515625 611.292969 218.164062 611.503906 218.820312 611.691406 C 219.476562 611.878906 220.140625 612.046875 220.808594 612.191406 C 221.472656 612.339844 222.144531 612.464844 222.820312 612.566406 C 223.496094 612.667969 224.171875 612.75 224.855469 612.808594 C 225.535156 612.871094 226.214844 612.90625 226.898438 612.921875 C 227.582031 612.941406 228.265625 612.933594 228.949219 612.90625 C 229.628906 612.878906 230.3125 612.828125 230.992188 612.757812 C 231.667969 612.683594 232.347656 612.59375 233.019531 612.476562 C 233.691406 612.363281 234.363281 612.226562 235.027344 612.066406 C 235.691406 611.910156 236.351562 611.730469 237.003906 611.53125 C 237.65625 611.332031 238.300781 611.109375 238.941406 610.871094 C 239.582031 610.628906 240.210938 610.367188 240.832031 610.085938 C 241.457031 609.804688 242.070312 609.5 242.671875 609.179688 C 243.273438 608.859375 243.867188 608.519531 244.449219 608.160156 C 245.027344 607.800781 245.597656 607.425781 246.15625 607.027344 C 246.710938 606.632812 247.253906 606.21875 247.785156 605.789062 C 248.316406 605.359375 248.832031 604.914062 249.335938 604.449219 C 249.835938 603.984375 250.324219 603.507812 250.792969 603.011719 C 251.265625 602.515625 251.71875 602.007812 252.15625 601.484375 C 252.597656 600.960938 253.019531 600.421875 253.421875 599.871094 C 253.824219 599.320312 254.210938 598.757812 254.578125 598.183594 C 254.949219 597.605469 255.296875 597.019531 255.628906 596.421875 C 255.957031 595.824219 256.269531 595.214844 256.558594 594.597656 C 256.851562 593.980469 257.121094 593.355469 257.375 592.71875 C 257.625 592.082031 257.855469 591.441406 258.066406 590.792969 C 258.277344 590.140625 258.464844 589.484375 258.632812 588.824219 C 258.800781 588.160156 258.949219 587.492188 259.074219 586.824219 C 259.199219 586.152344 259.300781 585.476562 259.382812 584.796875 C 259.464844 584.121094 259.527344 583.441406 259.5625 582.757812 C 259.601562 582.074219 259.617188 581.394531 259.613281 580.710938 C 259.597656 578.195312 259.289062 575.71875 258.6875 573.277344 C 258.085938 570.835938 257.210938 568.5 256.058594 566.261719 C 254.910156 564.027344 253.511719 561.957031 251.875 560.050781 C 250.234375 558.144531 248.398438 556.457031 246.359375 554.984375 L 246.359375 547.859375 L 264.652344 547.773438 C 265.121094 547.773438 265.585938 547.726562 266.042969 547.636719 C 266.503906 547.546875 266.949219 547.410156 267.382812 547.234375 C 267.8125 547.054688 268.222656 546.835938 268.613281 546.578125 C 269.003906 546.316406 269.363281 546.023438 269.695312 545.691406 C 270.027344 545.363281 270.324219 545.003906 270.585938 544.613281 C 270.84375 544.226562 271.066406 543.816406 271.246094 543.382812 C 271.425781 542.953125 271.5625 542.507812 271.65625 542.046875 C 271.75 541.589844 271.796875 541.125 271.796875 540.660156 L 273.050781 275.296875 C 273.054688 274.832031 273.011719 274.367188 272.921875 273.90625 C 272.832031 273.445312 272.699219 273 272.523438 272.566406 C 272.347656 272.132812 272.128906 271.71875 271.871094 271.328125 C 271.613281 270.9375 271.320312 270.574219 270.988281 270.242188 C 270.660156 269.90625 270.300781 269.609375 269.914062 269.347656 C 269.523438 269.085938 269.117188 268.863281 268.683594 268.679688 C 268.25 268.496094 267.804688 268.359375 267.347656 268.265625 C 266.886719 268.171875 266.425781 268.121094 265.957031 268.121094 L 246.355469 267.933594 L 246.355469 252.1875 C 247.792969 251.183594 249.136719 250.0625 250.386719 248.832031 C 251.121094 248.09375 251.816406 247.324219 252.472656 246.515625 C 253.128906 245.710938 253.742188 244.878906 254.316406 244.011719 C 254.890625 243.144531 255.421875 242.253906 255.910156 241.335938 C 256.398438 240.417969 256.835938 239.480469 257.234375 238.519531 C 257.628906 237.558594 257.976562 236.582031 258.273438 235.585938 C 258.574219 234.59375 258.824219 233.585938 259.023438 232.566406 C 259.222656 231.546875 259.375 230.519531 259.472656 229.484375 C 259.574219 228.453125 259.621094 227.414062 259.621094 226.375 C 259.617188 225.339844 259.566406 224.300781 259.460938 223.269531 C 259.359375 222.234375 259.203125 221.207031 259 220.191406 C 258.796875 219.171875 258.542969 218.164062 258.242188 217.171875 C 257.9375 216.179688 257.585938 215.203125 257.1875 214.242188 C 256.789062 213.28125 256.347656 212.34375 255.855469 211.429688 C 255.363281 210.515625 254.832031 209.625 254.253906 208.761719 C 253.675781 207.898438 253.058594 207.066406 252.398438 206.261719 C 251.738281 205.460938 251.042969 204.691406 250.308594 203.957031 C 248.820312 202.457031 247.199219 201.121094 245.445312 199.949219 C 243.691406 198.777344 241.835938 197.789062 239.882812 196.992188 C 237.929688 196.191406 235.914062 195.597656 233.84375 195.203125 C 231.769531 194.808594 229.675781 194.625 227.566406 194.65625 Z M 245.316406 580.761719 L 245.316406 580.851562 C 245.3125 581.429688 245.277344 582.007812 245.214844 582.582031 C 245.15625 583.160156 245.066406 583.730469 244.949219 584.296875 C 244.828125 584.863281 244.683594 585.421875 244.511719 585.976562 C 244.339844 586.53125 244.144531 587.074219 243.917969 587.605469 C 243.695312 588.140625 243.445312 588.660156 243.167969 589.171875 C 242.890625 589.679688 242.59375 590.175781 242.269531 590.652344 C 241.945312 591.132812 241.597656 591.597656 241.230469 592.042969 C 240.859375 592.488281 240.472656 592.917969 240.0625 593.324219 C 239.652344 593.734375 239.222656 594.121094 238.773438 594.488281 C 238.324219 594.855469 237.859375 595.199219 237.378906 595.519531 C 236.898438 595.839844 236.402344 596.136719 235.890625 596.410156 C 235.378906 596.683594 234.855469 596.933594 234.324219 597.152344 C 233.789062 597.375 233.242188 597.570312 232.691406 597.742188 C 232.136719 597.910156 231.574219 598.050781 231.007812 598.167969 C 230.441406 598.28125 229.867188 598.367188 229.292969 598.425781 C 228.71875 598.484375 228.140625 598.515625 227.5625 598.519531 C 226.984375 598.515625 226.40625 598.488281 225.832031 598.429688 C 225.253906 598.371094 224.683594 598.285156 224.117188 598.167969 C 223.550781 598.054688 222.992188 597.914062 222.4375 597.742188 C 221.886719 597.574219 221.34375 597.375 220.808594 597.152344 C 220.277344 596.929688 219.757812 596.683594 219.246094 596.40625 C 218.738281 596.132812 218.242188 595.835938 217.765625 595.511719 C 217.285156 595.1875 216.824219 594.84375 216.378906 594.476562 C 215.933594 594.105469 215.503906 593.71875 215.097656 593.308594 C 214.691406 592.894531 214.304688 592.46875 213.941406 592.019531 C 213.574219 591.570312 213.234375 591.105469 212.914062 590.625 C 212.59375 590.140625 212.300781 589.644531 212.03125 589.132812 C 211.757812 588.621094 211.515625 588.101562 211.296875 587.566406 C 211.078125 587.03125 210.886719 586.484375 210.71875 585.929688 C 210.554688 585.378906 210.417969 584.816406 210.308594 584.25 C 210.195312 583.679688 210.113281 583.109375 210.0625 582.535156 C 210.007812 581.957031 209.980469 581.382812 209.984375 580.804688 C 209.960938 578.503906 210.390625 576.289062 211.273438 574.164062 C 212.15625 572.035156 213.417969 570.167969 215.0625 568.558594 C 216.476562 567.148438 218.070312 565.992188 219.847656 565.089844 C 222.304688 563.722656 224.9375 563.085938 227.746094 563.179688 C 230.613281 563.09375 233.292969 563.757812 235.789062 565.175781 C 237.210938 565.929688 238.503906 566.855469 239.675781 567.953125 C 240.847656 569.054688 241.851562 570.289062 242.691406 571.660156 C 243.53125 573.035156 244.171875 574.492188 244.617188 576.035156 C 245.0625 577.578125 245.296875 579.15625 245.316406 580.761719 Z M 232.058594 549.144531 L 231.9375 549.136719 C 229.105469 548.796875 226.273438 548.800781 223.441406 549.152344 L 223.324219 549.160156 L 223.316406 547.972656 L 232.0625 547.929688 Z M 257.539062 533.476562 L 239.640625 533.570312 C 239.472656 533.558594 239.320312 533.472656 239.148438 533.472656 L 216.039062 533.65625 C 215.96875 533.65625 215.910156 533.691406 215.84375 533.691406 L 197.238281 533.789062 L 196.386719 281.738281 L 227.539062 282.050781 L 239.097656 282.234375 C 239.210938 282.234375 239.316406 282.175781 239.429688 282.171875 L 258.726562 282.367188 Z M 228.71875 267.769531 L 223.417969 267.683594 L 223.417969 258.21875 C 224.777344 258.398438 226.21875 258.519531 227.753906 258.582031 C 229.160156 258.582031 230.5625 258.484375 231.957031 258.292969 L 232.058594 258.285156 L 232.058594 267.800781 Z M 245.324219 226.621094 L 245.320312 226.710938 C 245.316406 228.277344 245.101562 229.8125 244.671875 231.316406 C 244.242188 232.820312 243.617188 234.238281 242.796875 235.570312 C 241.976562 236.90625 240.988281 238.101562 239.835938 239.160156 C 238.683594 240.21875 237.410156 241.105469 236.015625 241.8125 C 235.746094 241.941406 235.488281 242.089844 235.242188 242.257812 C 233.046875 243.644531 230.652344 244.320312 228.054688 244.292969 C 225.035156 244.316406 222.191406 243.617188 219.523438 242.203125 C 218.652344 241.753906 217.824219 241.234375 217.039062 240.644531 C 216.253906 240.054688 215.523438 239.40625 214.847656 238.695312 C 214.171875 237.984375 213.558594 237.222656 213.007812 236.410156 C 212.460938 235.597656 211.980469 234.746094 211.574219 233.851562 C 211.167969 232.960938 210.839844 232.039062 210.585938 231.089844 C 210.335938 230.144531 210.160156 229.179688 210.070312 228.203125 C 209.976562 227.226562 209.96875 226.25 210.039062 225.269531 C 210.113281 224.292969 210.265625 223.328125 210.496094 222.375 C 210.730469 221.421875 211.042969 220.496094 211.429688 219.59375 C 211.816406 218.691406 212.277344 217.828125 212.808594 217.003906 C 213.34375 216.183594 213.9375 215.40625 214.601562 214.683594 C 215.261719 213.960938 215.980469 213.292969 216.753906 212.691406 C 217.527344 212.085938 218.34375 211.550781 219.207031 211.082031 C 220.066406 210.613281 220.964844 210.222656 221.890625 209.902344 C 222.820312 209.585938 223.769531 209.347656 224.734375 209.1875 C 225.703125 209.027344 226.679688 208.949219 227.660156 208.953125 C 228.238281 208.949219 228.820312 208.96875 229.398438 209.023438 C 229.976562 209.074219 230.546875 209.152344 231.117188 209.261719 C 231.6875 209.371094 232.25 209.507812 232.808594 209.671875 C 233.363281 209.835938 233.910156 210.027344 234.449219 210.25 C 234.984375 210.46875 235.511719 210.710938 236.023438 210.984375 C 236.535156 211.253906 237.035156 211.550781 237.519531 211.871094 C 238 212.195312 238.46875 212.539062 238.917969 212.90625 C 239.367188 213.273438 239.796875 213.664062 240.207031 214.074219 C 240.617188 214.484375 241.003906 214.914062 241.371094 215.363281 C 241.742188 215.8125 242.085938 216.277344 242.40625 216.761719 C 242.726562 217.242188 243.023438 217.742188 243.292969 218.253906 C 243.566406 218.765625 243.8125 219.292969 244.03125 219.828125 C 244.25 220.367188 244.441406 220.914062 244.605469 221.46875 C 244.769531 222.027344 244.90625 222.589844 245.015625 223.160156 C 245.125 223.730469 245.207031 224.304688 245.257812 224.882812 C 245.308594 225.460938 245.332031 226.039062 245.324219 226.621094 Z M 245.324219 226.621094 " fill-opacity="1" fill-rule="nonzero"/></g></g></g></g><g clip-path="url(#0ac2f1c04b)"><g clip-path="url(#eb99747776)"><g clip-path="url(#2f8457cd2a)"><g clip-path="url(#f9e1b4e8d5)"><path fill="#000000" d="M 198.109375 343.359375 L 197.667969 420.207031 C 197.664062 420.675781 197.707031 421.144531 197.796875 421.605469 C 197.882812 422.066406 198.015625 422.515625 198.191406 422.949219 C 198.371094 423.386719 198.585938 423.800781 198.84375 424.191406 C 199.105469 424.585938 199.398438 424.949219 199.726562 425.285156 C 200.058594 425.617188 200.417969 425.917969 200.808594 426.183594 C 201.195312 426.445312 201.605469 426.667969 202.039062 426.851562 C 202.472656 427.035156 202.921875 427.171875 203.382812 427.265625 C 203.839844 427.359375 204.308594 427.410156 204.777344 427.410156 C 205.246094 427.414062 205.710938 427.371094 206.175781 427.28125 C 206.636719 427.191406 207.082031 427.058594 207.519531 426.882812 C 207.953125 426.703125 208.367188 426.484375 208.757812 426.226562 C 209.152344 425.964844 209.515625 425.671875 209.847656 425.339844 C 210.183594 425.007812 210.480469 424.648438 210.742188 424.257812 C 211.007812 423.871094 211.226562 423.457031 211.410156 423.023438 C 211.589844 422.589844 211.726562 422.144531 211.820312 421.683594 C 211.914062 421.222656 211.960938 420.757812 211.964844 420.285156 L 212.40625 343.4375 C 212.40625 342.96875 212.363281 342.503906 212.273438 342.046875 C 212.183594 341.585938 212.050781 341.136719 211.871094 340.703125 C 211.695312 340.269531 211.476562 339.859375 211.21875 339.46875 C 210.957031 339.078125 210.664062 338.714844 210.332031 338.382812 C 210.003906 338.050781 209.644531 337.753906 209.257812 337.492188 C 208.867188 337.226562 208.457031 337.007812 208.027344 336.824219 C 207.59375 336.644531 207.148438 336.507812 206.6875 336.414062 C 206.230469 336.320312 205.765625 336.269531 205.296875 336.269531 C 204.828125 336.265625 204.363281 336.308594 203.90625 336.398438 C 203.445312 336.484375 202.996094 336.617188 202.5625 336.796875 C 202.128906 336.972656 201.714844 337.1875 201.324219 337.445312 C 200.933594 337.703125 200.570312 338 200.238281 338.328125 C 199.90625 338.65625 199.605469 339.015625 199.34375 339.402344 C 199.078125 339.789062 198.855469 340.199219 198.675781 340.632812 C 198.492188 341.0625 198.355469 341.507812 198.257812 341.96875 C 198.164062 342.425781 198.113281 342.890625 198.109375 343.359375 Z M 198.109375 343.359375 " fill-opacity="1" fill-rule="nonzero"/></g></g></g></g><g clip-path="url(#69350c5ddd)"><g clip-path="url(#192a53a704)"><g clip-path="url(#41fb9abc3a)"><g clip-path="url(#89b3330c72)"><path fill="#000000" d="M 198.308594 308.796875 L 198.222656 323.304688 C 198.222656 323.773438 198.261719 324.242188 198.351562 324.703125 C 198.4375 325.164062 198.570312 325.613281 198.75 326.046875 C 198.925781 326.484375 199.144531 326.898438 199.402344 327.289062 C 199.660156 327.683594 199.953125 328.046875 200.285156 328.382812 C 200.613281 328.714844 200.972656 329.015625 201.363281 329.277344 C 201.75 329.542969 202.164062 329.765625 202.597656 329.949219 C 203.027344 330.128906 203.476562 330.269531 203.9375 330.363281 C 204.398438 330.457031 204.863281 330.507812 205.332031 330.507812 C 205.800781 330.511719 206.269531 330.46875 206.730469 330.378906 C 207.191406 330.289062 207.640625 330.15625 208.074219 329.976562 C 208.507812 329.800781 208.921875 329.582031 209.316406 329.324219 C 209.707031 329.0625 210.070312 328.769531 210.402344 328.4375 C 210.738281 328.105469 211.035156 327.746094 211.296875 327.355469 C 211.5625 326.964844 211.78125 326.554688 211.964844 326.121094 C 212.144531 325.6875 212.285156 325.242188 212.375 324.78125 C 212.46875 324.320312 212.515625 323.855469 212.519531 323.382812 L 212.601562 308.878906 C 212.605469 308.410156 212.5625 307.945312 212.472656 307.484375 C 212.382812 307.023438 212.25 306.574219 212.074219 306.140625 C 211.894531 305.707031 211.675781 305.292969 211.417969 304.902344 C 211.160156 304.511719 210.867188 304.148438 210.535156 303.816406 C 210.207031 303.480469 209.847656 303.183594 209.457031 302.921875 C 209.070312 302.65625 208.660156 302.4375 208.226562 302.253906 C 207.792969 302.070312 207.347656 301.933594 206.886719 301.839844 C 206.429688 301.746094 205.964844 301.699219 205.496094 301.695312 C 205.027344 301.691406 204.5625 301.734375 204.101562 301.824219 C 203.640625 301.914062 203.191406 302.046875 202.757812 302.222656 C 202.324219 302.402344 201.910156 302.617188 201.519531 302.875 C 201.128906 303.136719 200.765625 303.429688 200.429688 303.757812 C 200.097656 304.089844 199.800781 304.449219 199.535156 304.835938 C 199.273438 305.226562 199.050781 305.636719 198.867188 306.066406 C 198.6875 306.5 198.546875 306.945312 198.453125 307.40625 C 198.359375 307.863281 198.3125 308.328125 198.308594 308.796875 Z M 198.308594 308.796875 " fill-opacity="1" fill-rule="nonzero"/></g></g></g></g><g fill="#000000" fill-opacity="1"><g transform="translate(373.271615, 535.380165)"><g><path d="M 64.09375 -146.515625 L 45.78125 -146.515625 L 45.78125 -224.34375 C 45.78125 -226.632812 45.515625 -228.515625 44.984375 -229.984375 C 44.460938 -231.460938 43.773438 -232.609375 42.921875 -233.421875 C 42.066406 -234.234375 41.085938 -234.804688 39.984375 -235.140625 C 38.890625 -235.472656 37.769531 -235.640625 36.625 -235.640625 C 35.476562 -235.640625 34.359375 -235.472656 33.265625 -235.140625 C 32.171875 -234.804688 31.191406 -234.234375 30.328125 -233.421875 C 29.472656 -232.609375 28.78125 -231.460938 28.25 -229.984375 C 27.726562 -228.515625 27.46875 -226.632812 27.46875 -224.34375 L 27.46875 -22.890625 C 27.46875 -21.742188 27.515625 -20.382812 27.609375 -18.8125 C 27.703125 -17.238281 28.035156 -15.734375 28.609375 -14.296875 C 29.179688 -12.867188 30.085938 -11.65625 31.328125 -10.65625 C 32.566406 -9.65625 34.332031 -9.15625 36.625 -9.15625 C 38.914062 -9.15625 40.679688 -9.65625 41.921875 -10.65625 C 43.160156 -11.65625 44.066406 -12.867188 44.640625 -14.296875 C 45.210938 -15.734375 45.546875 -17.238281 45.640625 -18.8125 C 45.734375 -20.382812 45.78125 -21.742188 45.78125 -22.890625 L 45.78125 -119.03125 L 64.09375 -119.03125 L 64.09375 -22.890625 C 64.09375 -21.742188 63.945312 -19.664062 63.65625 -16.65625 C 63.375 -13.65625 62.375 -10.582031 60.65625 -7.4375 C 58.945312 -4.289062 56.226562 -1.503906 52.5 0.921875 C 48.78125 3.359375 43.488281 4.578125 36.625 4.578125 C 29.757812 4.578125 24.46875 3.359375 20.75 0.921875 C 17.03125 -1.503906 14.3125 -4.289062 12.59375 -7.4375 C 10.875 -10.582031 9.867188 -13.65625 9.578125 -16.65625 C 9.296875 -19.664062 9.15625 -21.742188 9.15625 -22.890625 L 9.15625 -224.34375 C 9.15625 -228.726562 9.960938 -232.515625 11.578125 -235.703125 C 13.203125 -238.898438 15.328125 -241.5 17.953125 -243.5 C 20.578125 -245.507812 23.507812 -246.988281 26.75 -247.9375 C 30 -248.894531 33.289062 -249.375 36.625 -249.375 C 40.15625 -249.375 43.566406 -248.847656 46.859375 -247.796875 C 50.148438 -246.753906 53.082031 -245.179688 55.65625 -243.078125 C 58.226562 -240.984375 60.273438 -238.363281 61.796875 -235.21875 C 63.328125 -232.070312 64.09375 -228.445312 64.09375 -224.34375 Z M 64.09375 -146.515625 "/></g></g></g><g fill="#000000" fill-opacity="1"><g transform="translate(284.75668, 536.627217)"><g><path d="M 64.09375 -146.515625 L 45.78125 -146.515625 L 45.78125 -224.34375 C 45.78125 -226.632812 45.515625 -228.515625 44.984375 -229.984375 C 44.460938 -231.460938 43.773438 -232.609375 42.921875 -233.421875 C 42.066406 -234.234375 41.085938 -234.804688 39.984375 -235.140625 C 38.890625 -235.472656 37.769531 -235.640625 36.625 -235.640625 C 35.476562 -235.640625 34.359375 -235.472656 33.265625 -235.140625 C 32.171875 -234.804688 31.191406 -234.234375 30.328125 -233.421875 C 29.472656 -232.609375 28.78125 -231.460938 28.25 -229.984375 C 27.726562 -228.515625 27.46875 -226.632812 27.46875 -224.34375 L 27.46875 -22.890625 C 27.46875 -21.742188 27.515625 -20.382812 27.609375 -18.8125 C 27.703125 -17.238281 28.035156 -15.734375 28.609375 -14.296875 C 29.179688 -12.867188 30.085938 -11.65625 31.328125 -10.65625 C 32.566406 -9.65625 34.332031 -9.15625 36.625 -9.15625 C 38.914062 -9.15625 40.679688 -9.65625 41.921875 -10.65625 C 43.160156 -11.65625 44.066406 -12.867188 44.640625 -14.296875 C 45.210938 -15.734375 45.546875 -17.238281 45.640625 -18.8125 C 45.734375 -20.382812 45.78125 -21.742188 45.78125 -22.890625 L 45.78125 -119.03125 L 64.09375 -119.03125 L 64.09375 -22.890625 C 64.09375 -21.742188 63.945312 -19.664062 63.65625 -16.65625 C 63.375 -13.65625 62.375 -10.582031 60.65625 -7.4375 C 58.945312 -4.289062 56.226562 -1.503906 52.5 0.921875 C 48.78125 3.359375 43.488281 4.578125 36.625 4.578125 C 29.757812 4.578125 24.46875 3.359375 20.75 0.921875 C 17.03125 -1.503906 14.3125 -4.289062 12.59375 -7.4375 C 10.875 -10.582031 9.867188 -13.65625 9.578125 -16.65625 C 9.296875 -19.664062 9.15625 -21.742188 9.15625 -22.890625 L 9.15625 -224.34375 C 9.15625 -228.726562 9.960938 -232.515625 11.578125 -235.703125 C 13.203125 -238.898438 15.328125 -241.5 17.953125 -243.5 C 20.578125 -245.507812 23.507812 -246.988281 26.75 -247.9375 C 30 -248.894531 33.289062 -249.375 36.625 -249.375 C 40.15625 -249.375 43.566406 -248.847656 46.859375 -247.796875 C 50.148438 -246.753906 53.082031 -245.179688 55.65625 -243.078125 C 58.226562 -240.984375 60.273438 -238.363281 61.796875 -235.21875 C 63.328125 -232.070312 64.09375 -228.445312 64.09375 -224.34375 Z M 64.09375 -146.515625 "/></g></g></g><g fill="#000000" fill-opacity="1"><g transform="translate(466.870252, 535.211649)"><g><path d="M 64.09375 -22.890625 C 64.09375 -21.742188 63.945312 -19.664062 63.65625 -16.65625 C 63.375 -13.65625 62.375 -10.582031 60.65625 -7.4375 C 58.945312 -4.289062 56.226562 -1.503906 52.5 0.921875 C 48.78125 3.359375 43.488281 4.578125 36.625 4.578125 C 29.757812 4.578125 24.46875 3.359375 20.75 0.921875 C 17.03125 -1.503906 14.3125 -4.289062 12.59375 -7.4375 C 10.875 -10.582031 9.867188 -13.65625 9.578125 -16.65625 C 9.296875 -19.664062 9.15625 -21.742188 9.15625 -22.890625 L 9.15625 -224.34375 C 9.15625 -225.101562 9.203125 -226.242188 9.296875 -227.765625 C 9.390625 -229.296875 9.675781 -230.988281 10.15625 -232.84375 C 10.632812 -234.707031 11.445312 -236.617188 12.59375 -238.578125 C 13.738281 -240.535156 15.3125 -242.320312 17.3125 -243.9375 C 19.3125 -245.5625 21.882812 -246.875 25.03125 -247.875 C 28.1875 -248.875 32.050781 -249.375 36.625 -249.375 C 41.207031 -249.375 45.070312 -248.875 48.21875 -247.875 C 51.363281 -246.875 53.9375 -245.5625 55.9375 -243.9375 C 57.945312 -242.320312 59.519531 -240.535156 60.65625 -238.578125 C 61.800781 -236.617188 62.613281 -234.707031 63.09375 -232.84375 C 63.570312 -230.988281 63.859375 -229.296875 63.953125 -227.765625 C 64.046875 -226.242188 64.09375 -225.101562 64.09375 -224.34375 Z M 27.46875 -22.890625 C 27.46875 -21.742188 27.515625 -20.382812 27.609375 -18.8125 C 27.703125 -17.238281 28.035156 -15.734375 28.609375 -14.296875 C 29.179688 -12.867188 30.085938 -11.65625 31.328125 -10.65625 C 32.566406 -9.65625 34.332031 -9.15625 36.625 -9.15625 C 38.914062 -9.15625 40.679688 -9.65625 41.921875 -10.65625 C 43.160156 -11.65625 44.066406 -12.867188 44.640625 -14.296875 C 45.210938 -15.734375 45.546875 -17.238281 45.640625 -18.8125 C 45.734375 -20.382812 45.78125 -21.742188 45.78125 -22.890625 L 45.78125 -224.34375 C 45.78125 -225.488281 45.734375 -226.726562 45.640625 -228.0625 C 45.546875 -229.394531 45.210938 -230.609375 44.640625 -231.703125 C 44.066406 -232.804688 43.160156 -233.738281 41.921875 -234.5 C 40.679688 -235.257812 38.914062 -235.640625 36.625 -235.640625 C 34.332031 -235.640625 32.566406 -235.257812 31.328125 -234.5 C 30.085938 -233.738281 29.179688 -232.804688 28.609375 -231.703125 C 28.035156 -230.609375 27.703125 -229.394531 27.609375 -228.0625 C 27.515625 -226.726562 27.46875 -225.488281 27.46875 -224.34375 Z M 27.46875 -22.890625 "/></g></g></g><g fill="#000000" fill-opacity="1"><g transform="translate(558.505751, 535.211709)"><g><path d="M 27.46875 -247.234375 L 27.46875 -13.734375 L 45.78125 -13.734375 L 45.78125 0 L 9.15625 0 L 9.15625 -247.234375 Z M 27.46875 -247.234375 "/></g></g></g><g fill="#000000" fill-opacity="1"><g transform="translate(629.748188, 538.042958)"><g><path d="M 59.515625 0 L 41.203125 0 L 38.921875 -59.515625 L 25.328125 -59.515625 L 22.890625 0 L 4.578125 0 L 18.3125 -247.234375 L 45.78125 -247.234375 Z M 36.625 -128.1875 L 32.046875 -238.078125 L 27.46875 -128.1875 L 25.328125 -73.25 L 38.921875 -73.25 Z M 36.625 -128.1875 "/></g></g></g><g clip-path="url(#88eb9acfe2)"><path fill="#000000" d="M 545.617188 578.894531 C 545.542969 578.988281 545.582031 579.101562 545.246094 579.167969 C 544.914062 579.230469 544.191406 579.265625 543.628906 579.273438 C 543.042969 579.273438 542.386719 579.242188 541.855469 579.195312 C 539.769531 579.015625 537.574219 578.949219 534.753906 579.019531 C 533.78125 579.003906 532.316406 579.003906 530.910156 578.960938 C 530.15625 578.9375 529.445312 578.84375 528.828125 578.765625 C 528.601562 578.738281 528.644531 578.644531 528.65625 578.582031 C 528.660156 578.558594 528.886719 578.523438 529.054688 578.515625 C 531.039062 578.4375 533.203125 578.503906 535.074219 578.320312 C 535.59375 578.269531 536.21875 578.242188 536.816406 578.21875 C 539.800781 578.09375 543.667969 578.355469 545.414062 578.800781 C 545.519531 578.828125 545.640625 578.863281 545.617188 578.894531 Z M 518.863281 578.832031 C 518.769531 578.90625 518.136719 579.007812 517.652344 579.019531 C 516.652344 579.054688 515.597656 579.03125 514.570312 579.03125 C 514.570312 579.019531 514.570312 579.011719 514.570312 579 C 513.121094 579 511.667969 579.007812 510.21875 578.996094 C 508.523438 578.988281 506.988281 578.890625 505.582031 578.738281 C 505.003906 578.679688 504.386719 578.535156 504.65625 578.503906 C 504.976562 578.464844 505.335938 578.425781 505.707031 578.417969 C 507.546875 578.375 509.449219 578.378906 511.238281 578.308594 C 513.941406 578.195312 516.140625 578.34375 518.21875 578.578125 C 518.628906 578.625 518.957031 578.753906 518.863281 578.832031 Z M 518.492188 576.164062 L 518.089844 576.160156 L 518.300781 576.109375 Z M 508.566406 575.992188 L 508.207031 575.988281 L 508.410156 575.9375 Z M 503.640625 587.652344 C 503.519531 587.667969 503.253906 587.671875 503.117188 587.660156 C 502.574219 587.613281 502.507812 587.484375 503 587.425781 C 503.121094 587.410156 503.347656 587.421875 503.527344 587.417969 C 504.058594 587.46875 504.132812 587.59375 503.640625 587.652344 Z M 495.339844 578.445312 C 494.980469 578.515625 494.34375 578.546875 493.964844 578.585938 C 493.566406 578.578125 493.328125 578.582031 493.160156 578.566406 C 490.800781 578.34375 488.800781 578.066406 487.695312 577.65625 C 487.46875 577.574219 487.546875 577.460938 487.570312 577.367188 C 487.601562 577.238281 488.808594 577.117188 489.414062 577.171875 C 491.613281 577.359375 493.554688 577.605469 495.265625 577.894531 C 496.054688 578.027344 496.132812 578.292969 495.339844 578.445312 Z M 470.242188 587.417969 C 470.414062 587.503906 469.96875 587.648438 469.488281 587.664062 C 469.097656 587.671875 468.632812 587.6875 468.300781 587.664062 C 466.367188 587.53125 464.886719 587.304688 463.636719 587.039062 C 462.238281 586.742188 463.640625 586.273438 466.0625 586.21875 C 466.816406 586.199219 467.863281 586.285156 468.105469 586.394531 C 468.839844 586.734375 469.542969 587.078125 470.242188 587.417969 Z M 456.277344 586.996094 C 456.003906 587.03125 455.730469 587.09375 455.460938 587.09375 C 455.164062 587.09375 454.753906 587.042969 454.609375 586.996094 C 454.332031 586.914062 455.050781 586.8125 455.648438 586.859375 C 455.929688 586.878906 456.070312 586.949219 456.277344 586.996094 Z M 435.699219 587.21875 L 435.378906 587.191406 L 435.695312 587.160156 Z M 374.726562 584.230469 C 374.65625 584.25 374.429688 584.253906 374.269531 584.265625 C 374.164062 584.246094 373.957031 584.222656 373.96875 584.203125 C 374.011719 584.121094 374.296875 584.101562 374.683594 584.152344 C 374.78125 584.164062 374.796875 584.210938 374.726562 584.230469 Z M 340.023438 589.15625 C 340.078125 589.1875 340.066406 589.21875 340.023438 589.253906 C 339.984375 589.28125 339.914062 589.328125 339.773438 589.339844 C 339.433594 589.367188 338.925781 589.410156 338.6875 589.390625 C 336.582031 589.203125 334.796875 588.925781 332.351562 588.839844 C 333.136719 588.691406 333.890625 588.539062 334.726562 588.398438 C 335.234375 588.316406 336.515625 588.332031 337.042969 588.414062 C 338.429688 588.621094 339.503906 588.859375 340.023438 589.15625 Z M 317.378906 576.019531 C 317.269531 576.066406 316.921875 576.125 316.636719 576.132812 C 316.199219 576.140625 315.898438 576.078125 316.050781 576.007812 C 316.160156 575.964844 316.53125 575.933594 316.785156 575.894531 C 317.25 575.90625 317.539062 575.953125 317.378906 576.019531 Z M 310.296875 575.398438 C 310.335938 575.4375 309.96875 575.484375 309.785156 575.527344 C 309.523438 575.492188 309.105469 575.464844 309.0625 575.421875 C 309.019531 575.386719 309.386719 575.335938 309.570312 575.292969 C 309.828125 575.328125 310.246094 575.359375 310.296875 575.398438 Z M 581.550781 579.304688 C 581.101562 578.871094 580.15625 578.464844 578.445312 578.117188 C 575.707031 577.558594 572.265625 577.125 568.523438 576.757812 C 567.089844 576.621094 565.695312 576.484375 564.464844 576.300781 C 563.855469 576.210938 563.195312 576.101562 562.445312 576.070312 C 559.589844 575.949219 557.953125 575.652344 556.722656 575.238281 C 555.796875 574.925781 552.878906 574.914062 551.304688 575.171875 C 551.015625 575.21875 550.695312 575.265625 550.453125 575.320312 C 546.480469 576.214844 547.078125 575.886719 542.210938 576.332031 C 541.683594 576.378906 541.039062 576.398438 540.425781 576.417969 C 537.4375 576.515625 534.957031 576.242188 534.523438 575.761719 C 534.433594 575.664062 534.546875 575.5625 534.527344 575.464844 C 534.46875 575.148438 534.289062 575.121094 532.433594 575.132812 C 532.226562 575.136719 532.023438 575.144531 531.816406 575.148438 C 530.703125 575.171875 529.636719 575.152344 529.265625 574.953125 C 528.433594 574.515625 526.34375 574.28125 523.773438 574.230469 C 518.632812 574.136719 514.222656 573.785156 509.9375 573.359375 C 509.757812 573.34375 509.558594 573.328125 509.363281 573.320312 C 508.359375 573.257812 507.3125 573.234375 506.296875 573.296875 C 504.925781 573.375 503.582031 573.46875 502.246094 573.5625 C 498.765625 573.804688 495.195312 573.980469 491.328125 573.949219 C 490.703125 573.941406 490.074219 573.953125 489.449219 573.964844 C 486.382812 574.015625 484.253906 574.332031 483.457031 574.851562 C 483.105469 575.078125 484 575.339844 485.410156 575.410156 C 486.003906 575.4375 486.640625 575.441406 487.257812 575.460938 C 488.625 575.5 489.285156 575.570312 489.105469 575.660156 C 488.921875 575.753906 488.699219 575.851562 488.308594 575.921875 C 485.101562 576.492188 480.859375 576.222656 478.675781 575.753906 C 478.222656 575.65625 478.09375 575.507812 478.050781 575.378906 C 477.988281 575.214844 478.183594 575.046875 478.226562 574.882812 C 478.234375 574.859375 478.023438 574.8125 477.886719 574.808594 C 477.503906 574.800781 476.945312 574.789062 476.746094 574.820312 C 476.191406 574.914062 475.640625 575.023438 475.351562 575.140625 C 474.714844 575.402344 474.945312 575.667969 475.515625 575.925781 C 476.644531 576.433594 478.25 576.898438 480.480469 577.304688 C 481.578125 577.503906 482.699219 577.703125 483.710938 577.914062 C 484.0625 577.988281 484.132812 578.097656 484.296875 578.195312 C 484.441406 578.28125 483.691406 578.410156 483.148438 578.390625 C 481.328125 578.320312 479.558594 578.226562 477.613281 578.28125 C 476.851562 578.300781 475.867188 578.273438 475.207031 578.210938 C 473.113281 578.003906 470.878906 578.023438 468.554688 578.015625 C 466.210938 578.003906 464.015625 578.019531 461.855469 578.183594 C 460.621094 578.277344 459.347656 578.214844 458.414062 578.058594 C 456.839844 577.789062 455.375 577.507812 453.8125 577.238281 C 452.910156 577.085938 451.46875 577.09375 450.433594 577.242188 C 450.125 577.285156 449.816406 577.335938 449.566406 577.386719 C 448.148438 577.683594 446.308594 577.765625 444.019531 577.714844 C 442.382812 577.679688 440.699219 577.695312 439.035156 577.6875 C 438.199219 577.6875 437.363281 577.707031 436.527344 577.699219 C 433.160156 577.675781 430.332031 577.519531 429.4375 576.917969 C 429.351562 576.855469 428.976562 576.808594 428.738281 576.753906 C 428.347656 576.667969 426.871094 576.691406 426.535156 576.789062 C 426.242188 576.878906 425.851562 576.96875 425.78125 577.0625 C 425.585938 577.316406 425.523438 577.574219 425.410156 577.832031 C 423.621094 577.671875 421.804688 577.519531 420.054688 577.351562 C 418.359375 577.1875 416.570312 577.105469 414.664062 577.199219 C 412.304688 577.316406 410.167969 577.269531 408.023438 577.082031 C 407.128906 577.003906 405.96875 577.003906 405.054688 576.929688 C 402.636719 576.730469 400.40625 576.671875 398.101562 576.984375 C 397.117188 577.117188 395.738281 577.097656 394.511719 577.015625 C 393.933594 576.976562 393.367188 576.933594 392.800781 576.890625 C 391.386719 576.777344 389.972656 576.792969 388.550781 576.886719 C 388.164062 576.910156 387.777344 576.9375 387.398438 576.964844 C 385.984375 577.066406 384.542969 577.082031 383.140625 576.972656 C 380.964844 576.808594 379.109375 576.839844 377.582031 577.160156 C 377.332031 577.210938 377.019531 577.269531 376.65625 577.289062 C 376.097656 577.324219 375.472656 577.332031 374.871094 577.339844 C 374.6875 577.347656 374.453125 577.324219 374.300781 577.300781 C 371.589844 576.933594 368.355469 576.847656 364.921875 576.847656 C 360.957031 576.855469 356.996094 576.742188 353.035156 576.886719 C 352.070312 576.921875 350.953125 576.882812 349.949219 576.847656 C 348.9375 576.808594 347.972656 576.738281 346.992188 576.683594 C 344.789062 576.550781 342.539062 576.519531 340.199219 576.558594 C 338.757812 576.582031 337.285156 576.582031 335.84375 576.5625 C 334.476562 576.546875 333.179688 576.273438 333.339844 576.058594 C 333.464844 575.894531 333.691406 575.730469 333.949219 575.570312 C 334.3125 575.34375 334.871094 575.128906 335.113281 574.898438 C 335.433594 574.589844 334.945312 574.300781 333.589844 574.0625 C 333.335938 574.019531 332.894531 574 332.507812 573.980469 C 332.050781 573.960938 331.285156 574.074219 331.246094 574.167969 C 331.128906 574.464844 331.078125 574.761719 330.925781 575.0625 C 330.730469 575.441406 329.75 575.769531 328.058594 576.039062 C 327.621094 576.109375 327.089844 576.164062 326.550781 576.214844 C 324.925781 576.367188 322.3125 576.160156 322.25 575.863281 C 322.191406 575.597656 322.3125 575.332031 322.480469 575.066406 C 322.609375 574.871094 322.957031 574.675781 323.179688 574.480469 C 323.292969 574.382812 322.804688 574.230469 322.371094 574.230469 C 321.976562 574.230469 321.53125 574.238281 321.207031 574.265625 C 320.492188 574.332031 319.875 574.425781 319.144531 574.484375 C 318.933594 574.496094 318.214844 574.441406 318.167969 574.402344 C 317.875 574.175781 317.730469 573.945312 317.503906 573.714844 C 317.367188 573.574219 316.242188 573.519531 315.527344 573.609375 C 315.363281 573.632812 315.203125 573.652344 315.070312 573.679688 C 313.289062 574.027344 312.121094 574.03125 310.054688 573.65625 C 309.382812 573.53125 308.53125 573.429688 307.695312 573.335938 C 306.976562 573.253906 305.363281 573.296875 304.773438 573.402344 C 304.496094 573.453125 304.175781 573.5 303.953125 573.550781 C 303.496094 573.664062 303.0625 573.777344 302.671875 573.898438 C 301.652344 574.207031 300.148438 574.421875 298.058594 574.535156 C 297.472656 574.566406 296.914062 574.617188 296.390625 574.675781 C 295.476562 574.765625 294.773438 574.902344 294.570312 575.066406 C 294.140625 575.425781 293.589844 575.789062 293.59375 576.152344 C 293.59375 576.527344 293.242188 576.875 292.265625 577.214844 C 291.246094 577.574219 291.207031 577.9375 292.550781 578.269531 C 294.867188 578.847656 294.457031 579.324219 291.03125 579.753906 C 289.9375 579.894531 289.175781 580.113281 288.5 580.316406 C 287.621094 580.582031 286.945312 580.863281 286.242188 581.144531 C 285.371094 581.488281 284.984375 581.851562 285.253906 582.222656 C 285.589844 582.6875 285.667969 583.152344 285.292969 583.617188 C 284.78125 584.257812 286.609375 584.707031 289.921875 585.035156 C 292.789062 585.3125 295.8125 585.542969 299.023438 585.703125 C 302.230469 585.859375 305.355469 586.039062 308.277344 586.3125 C 309.691406 586.445312 311.398438 586.496094 312.941406 586.597656 C 314.097656 586.671875 315.242188 586.753906 316.328125 586.851562 C 317.503906 586.957031 317.945312 587.164062 317.496094 587.363281 C 317.214844 587.488281 316.734375 587.605469 316.574219 587.734375 C 316.378906 587.898438 316.253906 588.070312 316.390625 588.226562 C 316.59375 588.457031 317.039062 588.679688 317.414062 588.910156 C 318.28125 589.425781 320.371094 589.78125 323.257812 590.027344 C 323.792969 590.074219 324.441406 590.089844 325.050781 590.109375 C 326.269531 590.140625 327.664062 589.980469 327.820312 589.789062 C 327.878906 589.722656 327.933594 589.65625 327.902344 589.589844 C 327.675781 589.113281 328.453125 588.929688 332.160156 588.855469 C 331.882812 589.210938 331.574219 589.5625 331.332031 589.917969 C 331.214844 590.09375 332.097656 590.214844 333.324219 590.214844 C 333.53125 590.214844 333.742188 590.210938 333.949219 590.207031 C 336.3125 590.144531 338.488281 590.214844 340.578125 590.40625 C 341.65625 590.503906 342.851562 590.582031 344.054688 590.632812 C 347.726562 590.773438 351.273438 590.957031 354.695312 591.21875 C 355.964844 591.316406 357.523438 591.351562 358.953125 591.355469 C 361.660156 591.367188 364.394531 591.359375 367.082031 591.308594 C 369.210938 591.269531 371.21875 591.257812 373.214844 591.398438 C 375.371094 591.546875 377.664062 591.566406 379.980469 591.570312 C 384.992188 591.582031 390.015625 591.5625 394.988281 591.707031 C 396.863281 591.761719 398.746094 591.707031 400.578125 591.632812 C 405.761719 591.421875 410.894531 591.429688 416.0625 591.667969 C 417.839844 591.746094 419.777344 591.765625 421.644531 591.769531 C 426.242188 591.773438 430.847656 591.769531 435.441406 591.738281 C 437.296875 591.726562 439.136719 591.644531 440.980469 591.585938 C 442.210938 591.550781 443.476562 591.453125 444.644531 591.476562 C 450.019531 591.589844 455.535156 591.378906 460.828125 591.683594 C 463.042969 591.808594 465.394531 591.765625 467.636719 591.664062 C 469.519531 591.582031 471.328125 591.601562 473.199219 591.667969 C 476.253906 591.78125 479.292969 591.898438 482.234375 592.074219 C 482.773438 592.105469 483.527344 592.011719 483.515625 591.914062 C 483.5 591.78125 483.332031 591.648438 483.417969 591.519531 C 483.515625 591.378906 484.179688 591.285156 484.949219 591.222656 C 485.132812 591.207031 485.351562 591.199219 485.554688 591.199219 C 489.136719 591.207031 492.582031 591.0625 496.070312 590.960938 C 497.09375 590.933594 498.191406 590.917969 499.105469 590.847656 C 502.199219 590.609375 505.519531 590.5625 508.855469 590.511719 C 510.101562 590.492188 511.347656 590.46875 512.578125 590.429688 C 515.519531 590.339844 518.394531 590.386719 521.257812 590.507812 C 521.433594 590.515625 521.777344 590.507812 521.828125 590.488281 C 521.992188 590.429688 522.238281 590.355469 522.113281 590.3125 C 519.863281 589.523438 517.523438 588.742188 513.949219 588.074219 C 513.152344 587.925781 512.621094 587.738281 512.070312 587.5625 C 511.933594 587.515625 512.089844 587.421875 512.324219 587.382812 C 512.542969 587.34375 513.144531 587.316406 513.402344 587.335938 C 514.125 587.398438 514.753906 587.488281 515.4375 587.5625 C 516.640625 587.691406 517.800781 587.835938 519.070312 587.949219 C 520.785156 588.101562 522.65625 588.15625 524.472656 588 C 527.792969 587.707031 530.480469 587.871094 532.925781 588.265625 C 533.804688 588.410156 534.707031 588.546875 535.671875 588.675781 C 536.3125 588.757812 537.058594 588.824219 537.800781 588.882812 C 539.847656 589.042969 542.222656 588.84375 542.609375 588.492188 C 542.980469 588.160156 542.933594 587.824219 542.277344 587.507812 C 541.570312 587.160156 540.609375 586.824219 539.828125 586.480469 C 537.917969 585.636719 537.859375 585.742188 532.519531 585.707031 C 531.273438 585.699219 530.019531 585.707031 528.769531 585.699219 C 527.957031 585.691406 527.035156 585.535156 527.265625 585.429688 C 527.453125 585.34375 527.859375 585.230469 528.316406 585.210938 C 529.707031 585.148438 531.171875 585.125 532.597656 585.085938 C 534.582031 585.023438 535.949219 584.800781 536.320312 584.484375 C 536.433594 584.386719 536.554688 584.285156 536.503906 584.1875 C 536.296875 583.75 537.695312 583.5 540.136719 583.367188 C 541.722656 583.28125 543.320312 583.207031 544.917969 583.128906 C 547.917969 582.988281 551.023438 582.90625 553.898438 582.691406 C 555.003906 582.609375 556.316406 582.59375 557.542969 582.558594 C 561.675781 582.4375 565.71875 582.277344 569.503906 581.980469 C 570.238281 581.921875 570.902344 581.839844 571.554688 581.757812 C 572.222656 581.671875 572.429688 581.402344 571.929688 581.289062 C 571.449219 581.183594 570.96875 581.074219 570.390625 580.980469 C 569.222656 580.789062 567.921875 580.617188 566.789062 580.421875 C 564.636719 580.050781 562.332031 579.835938 559.058594 580.078125 C 557.859375 580.164062 556.519531 580.082031 555.578125 579.9375 C 554.691406 579.804688 553.964844 579.636719 553.246094 579.476562 C 552.800781 579.378906 553.390625 579.171875 554.125 579.15625 C 555.152344 579.140625 556.203125 579.109375 557.214844 579.128906 C 559.714844 579.171875 562.207031 579.207031 564.71875 579.160156 C 567.066406 579.117188 569.277344 579.191406 571.449219 579.332031 C 573.578125 579.472656 575.75 579.59375 577.925781 579.710938 C 578.5 579.742188 579.152344 579.742188 579.773438 579.75 C 580.425781 579.761719 581.4375 579.613281 581.488281 579.5 C 581.519531 579.433594 581.617188 579.367188 581.550781 579.304688 " fill-opacity="1" fill-rule="nonzero"/></g><path fill="#000000" d="M 434.75 573.828125 C 432.53125 573.734375 430.304688 573.652344 427.996094 573.675781 C 425.074219 573.707031 422.191406 573.6875 419.324219 573.582031 C 417.859375 573.523438 416.441406 573.582031 415.199219 573.726562 C 414.699219 573.789062 414.179688 573.84375 413.625 573.886719 C 413.175781 573.921875 412.8125 573.882812 412.703125 573.808594 C 412.664062 573.777344 412.644531 573.734375 412.746094 573.710938 C 414.046875 573.421875 415.367188 573.132812 416.683594 572.84375 C 419.152344 572.867188 421.660156 572.855469 424.085938 572.921875 C 428.171875 573.03125 432.214844 573.191406 436.265625 573.332031 C 437.058594 573.359375 437.808594 573.421875 438.574219 573.472656 C 439.070312 573.503906 439.535156 573.664062 439.222656 573.71875 C 438.839844 573.789062 438.304688 573.875 437.804688 573.878906 C 436.792969 573.890625 435.730469 573.871094 434.75 573.828125 " fill-opacity="1" fill-rule="nonzero"/><path fill="#000000" d="M 416.742188 572.828125 C 416.722656 572.835938 416.703125 572.839844 416.683594 572.84375 C 416.664062 572.84375 416.648438 572.84375 416.632812 572.84375 L 416.742188 572.828125 " fill-opacity="1" fill-rule="nonzero"/><path fill="#000000" d="M 531.832031 590.085938 C 532.414062 590.132812 533.078125 590.160156 533.464844 590.226562 C 534.15625 590.34375 534.785156 590.480469 535.25 590.625 C 536.097656 590.886719 536.832031 591.15625 537.53125 591.433594 C 537.636719 591.472656 537.34375 591.542969 537.152344 591.59375 C 537.089844 591.613281 536.730469 591.617188 536.582031 591.605469 C 534.007812 591.382812 531.292969 591.253906 528.339844 591.257812 C 527.683594 591.257812 527.046875 591.050781 527.226562 590.9375 C 527.710938 590.644531 528.726562 590.398438 530.140625 590.199219 C 530.566406 590.140625 531.238281 590.125 531.832031 590.085938 " fill-opacity="1" fill-rule="nonzero"/><path fill="#000000" d="M 448.089844 573.898438 C 447.898438 573.890625 447.746094 573.859375 447.558594 573.847656 C 447.109375 573.816406 447.027344 573.648438 447.402344 573.585938 C 448.015625 573.480469 448.800781 573.425781 449.621094 573.449219 C 450.839844 573.476562 452.082031 573.515625 453.203125 573.59375 C 455.476562 573.75 457.6875 573.929688 460.125 574.019531 C 460.296875 574.023438 460.464844 574.058594 460.558594 574.085938 C 460.644531 574.109375 460.628906 574.144531 460.65625 574.175781 C 460.320312 574.207031 459.941406 574.269531 459.652344 574.257812 C 455.789062 574.144531 451.9375 574.019531 448.089844 573.898438 " fill-opacity="1" fill-rule="nonzero"/><path fill="#000000" d="M 464.808594 576.144531 C 464.726562 576.117188 464.761719 576.082031 464.742188 576.050781 C 464.675781 575.972656 465.433594 575.863281 465.972656 575.863281 C 468.101562 575.875 469.90625 576 471.390625 576.242188 C 472.042969 576.351562 472.0625 576.570312 471.429688 576.691406 C 470.941406 576.78125 469.84375 576.828125 469.210938 576.78125 C 467.296875 576.648438 465.730469 576.453125 464.808594 576.144531 " fill-opacity="1" fill-rule="nonzero"/><path fill="#000000" d="M 391.890625 574.296875 C 391.609375 574.253906 391.140625 574.21875 391.082031 574.167969 C 390.722656 573.859375 391.226562 573.582031 392.605469 573.351562 C 393.273438 573.242188 394.613281 573.242188 395.417969 573.355469 C 396.007812 573.4375 396.175781 573.605469 395.769531 573.714844 C 394.917969 573.941406 394.007812 574.160156 392.488281 574.289062 C 392.324219 574.300781 392.089844 574.296875 391.890625 574.296875 " fill-opacity="1" fill-rule="nonzero"/><path fill="#000000" d="M 356.207031 575.113281 C 355.855469 575.105469 355.378906 575.058594 355.238281 575.011719 C 354.296875 574.6875 354.746094 574.378906 355.898438 574.09375 C 356.085938 574.046875 356.53125 574.015625 356.894531 573.996094 C 357.34375 573.96875 358.148438 574.058594 358.273438 574.144531 C 358.414062 574.238281 358.53125 574.332031 358.621094 574.398438 C 358.558594 574.660156 358.40625 574.886719 357.3125 575.054688 C 357.058594 575.097656 356.5625 575.121094 356.207031 575.113281 " fill-opacity="1" fill-rule="nonzero"/><path fill="#000000" d="M 345.183594 574.953125 C 343.714844 574.894531 342.976562 574.617188 343.699219 574.410156 C 343.964844 574.332031 344.816406 574.289062 345.339844 574.332031 C 346.550781 574.429688 347.089844 574.617188 346.625 574.820312 C 346.503906 574.871094 346.074219 574.90625 345.785156 574.949219 C 345.585938 574.953125 345.371094 574.960938 345.183594 574.953125 " fill-opacity="1" fill-rule="nonzero"/><path fill="#000000" d="M 374.308594 573.574219 C 374.355469 573.539062 374.929688 573.484375 375.203125 573.488281 C 376.101562 573.515625 376.550781 573.621094 376.667969 573.765625 C 376.445312 573.808594 376.234375 573.890625 375.996094 573.894531 C 374.929688 573.902344 374.09375 573.746094 374.308594 573.574219 " fill-opacity="1" fill-rule="nonzero"/><path fill="#000000" d="M 386.21875 573.460938 C 386.125 573.363281 386.9375 573.296875 387.378906 573.367188 C 387.59375 573.402344 387.601562 573.46875 387.703125 573.523438 C 387.402344 573.550781 387.046875 573.605469 386.8125 573.59375 C 386.550781 573.582031 386.261719 573.511719 386.21875 573.460938 " fill-opacity="1" fill-rule="nonzero"/><g clip-path="url(#8f25f40c9b)"><path fill="#000000" d="M 389.6875 572.046875 C 389.882812 572 390.015625 571.929688 390.28125 571.914062 C 390.582031 571.894531 391.097656 571.910156 391.339844 571.941406 C 391.550781 571.96875 391.675781 572.066406 391.539062 572.097656 C 391.375 572.136719 390.867188 572.160156 390.550781 572.152344 C 390.234375 572.144531 389.972656 572.085938 389.6875 572.046875 " fill-opacity="1" fill-rule="nonzero"/></g><path fill="#000000" d="M 422.34375 576.152344 C 422.058594 576.132812 421.769531 576.066406 421.710938 576.015625 C 421.625 575.945312 421.964844 575.90625 422.429688 575.914062 C 422.648438 575.960938 422.996094 576.003906 423.054688 576.054688 C 423.136719 576.125 422.753906 576.179688 422.34375 576.152344 " fill-opacity="1" fill-rule="nonzero"/><path fill="#000000" d="M 437.46875 576.941406 C 437.152344 576.917969 436.664062 576.902344 436.566406 576.859375 C 436.476562 576.824219 436.792969 576.761719 436.933594 576.707031 C 437.25 576.734375 437.5625 576.761719 437.882812 576.785156 C 437.742188 576.839844 437.609375 576.890625 437.46875 576.941406 " fill-opacity="1" fill-rule="nonzero"/><path fill="#000000" d="M 469.425781 574.304688 C 469.34375 574.300781 469.21875 574.25 469.261719 574.226562 C 469.3125 574.203125 469.546875 574.171875 469.671875 574.175781 C 470.019531 574.179688 470.347656 574.207031 470.683594 574.226562 C 470.621094 574.25 470.585938 574.300781 470.5 574.300781 C 470.148438 574.3125 469.78125 574.3125 469.425781 574.304688 " fill-opacity="1" fill-rule="nonzero"/><path fill="#000000" d="M 401.535156 573.664062 C 401.515625 573.625 401.875 573.578125 402.070312 573.535156 C 402.324219 573.570312 402.757812 573.601562 402.785156 573.636719 C 402.808594 573.675781 402.441406 573.722656 402.246094 573.765625 C 401.992188 573.734375 401.554688 573.703125 401.535156 573.664062 " fill-opacity="1" fill-rule="nonzero"/><path fill="#000000" d="M 410.820312 576.351562 C 411.058594 576.3125 411.296875 576.277344 411.535156 576.238281 C 411.789062 576.273438 412.039062 576.3125 412.292969 576.347656 C 412.050781 576.382812 411.8125 576.449219 411.570312 576.449219 C 411.324219 576.449219 411.070312 576.386719 410.820312 576.351562 " fill-opacity="1" fill-rule="nonzero"/><path fill="#000000" d="M 454.660156 576.003906 C 454.546875 575.996094 454.527344 575.953125 454.464844 575.929688 C 454.605469 575.910156 454.746094 575.882812 454.882812 575.882812 C 455.027344 575.882812 455.273438 575.90625 455.292969 575.929688 C 455.378906 576.007812 455.121094 576.039062 454.660156 576.003906 " fill-opacity="1" fill-rule="nonzero"/><g clip-path="url(#c19d773d8f)"><path fill="#000000" d="M 605.757812 265.5625 C 605.6875 265.46875 605.722656 265.355469 605.390625 265.289062 C 605.054688 265.226562 604.332031 265.1875 603.769531 265.183594 C 603.183594 265.183594 602.527344 265.214844 601.996094 265.261719 C 599.910156 265.441406 597.714844 265.507812 594.894531 265.4375 C 593.921875 265.453125 592.457031 265.453125 591.050781 265.496094 C 590.296875 265.519531 589.589844 265.613281 588.96875 265.691406 C 588.742188 265.71875 588.785156 265.8125 588.796875 265.875 C 588.800781 265.898438 589.027344 265.933594 589.195312 265.941406 C 591.179688 266.019531 593.34375 265.953125 595.214844 266.136719 C 595.734375 266.1875 596.363281 266.214844 596.957031 266.238281 C 599.941406 266.363281 603.808594 266.101562 605.554688 265.65625 C 605.660156 265.628906 605.78125 265.59375 605.757812 265.5625 Z M 579.003906 265.625 C 578.910156 265.546875 578.277344 265.449219 577.792969 265.433594 C 576.796875 265.402344 575.738281 265.425781 574.710938 265.425781 C 574.710938 265.433594 574.710938 265.445312 574.710938 265.457031 C 573.261719 265.457031 571.808594 265.449219 570.359375 265.460938 C 568.664062 265.46875 567.128906 265.566406 565.722656 265.71875 C 565.144531 265.777344 564.527344 265.921875 564.796875 265.953125 C 565.117188 265.992188 565.480469 266.03125 565.847656 266.039062 C 567.691406 266.078125 569.59375 266.078125 571.378906 266.148438 C 574.082031 266.261719 576.28125 266.113281 578.359375 265.878906 C 578.773438 265.832031 579.101562 265.699219 579.003906 265.625 Z M 578.632812 268.289062 L 578.230469 268.296875 L 578.445312 268.347656 Z M 568.707031 268.464844 L 568.347656 268.46875 L 568.550781 268.519531 Z M 563.78125 256.804688 C 563.660156 256.789062 563.394531 256.785156 563.257812 256.796875 C 562.71875 256.84375 562.648438 256.972656 563.140625 257.03125 C 563.261719 257.042969 563.488281 257.035156 563.667969 257.039062 C 564.199219 256.988281 564.273438 256.863281 563.78125 256.804688 Z M 555.484375 266.011719 C 555.121094 265.941406 554.484375 265.910156 554.105469 265.871094 C 553.707031 265.878906 553.46875 265.875 553.304688 265.890625 C 550.941406 266.109375 548.941406 266.390625 547.839844 266.800781 C 547.613281 266.882812 547.6875 266.996094 547.710938 267.089844 C 547.742188 267.214844 548.953125 267.339844 549.558594 267.285156 C 551.757812 267.097656 553.695312 266.851562 555.40625 266.5625 C 556.199219 266.425781 556.273438 266.164062 555.484375 266.011719 Z M 530.382812 257.039062 C 530.554688 256.953125 530.109375 256.808594 529.628906 256.792969 C 529.238281 256.785156 528.773438 256.765625 528.441406 256.792969 C 526.507812 256.925781 525.027344 257.152344 523.777344 257.417969 C 522.378906 257.714844 523.78125 258.183594 526.207031 258.238281 C 526.957031 258.257812 528.007812 258.171875 528.246094 258.0625 C 528.980469 257.722656 529.683594 257.378906 530.382812 257.039062 Z M 516.417969 257.460938 C 516.144531 257.425781 515.871094 257.363281 515.601562 257.363281 C 515.308594 257.363281 514.894531 257.414062 514.75 257.460938 C 514.472656 257.542969 515.195312 257.644531 515.789062 257.597656 C 516.070312 257.574219 516.210938 257.507812 516.417969 257.460938 Z M 495.839844 257.238281 L 495.519531 257.265625 L 495.835938 257.296875 Z M 434.867188 260.226562 C 434.796875 260.207031 434.570312 260.203125 434.410156 260.191406 C 434.304688 260.210938 434.097656 260.234375 434.109375 260.253906 C 434.152344 260.335938 434.4375 260.355469 434.824219 260.304688 C 434.921875 260.292969 434.9375 260.246094 434.867188 260.226562 Z M 400.164062 255.300781 C 400.21875 255.269531 400.207031 255.238281 400.164062 255.203125 C 400.125 255.175781 400.054688 255.128906 399.914062 255.117188 C 399.574219 255.089844 399.066406 255.046875 398.832031 255.066406 C 396.722656 255.253906 394.9375 255.53125 392.492188 255.617188 C 393.277344 255.765625 394.03125 255.917969 394.867188 256.058594 C 395.375 256.140625 396.65625 256.121094 397.183594 256.042969 C 398.570312 255.835938 399.644531 255.597656 400.164062 255.300781 Z M 377.519531 268.4375 C 377.414062 268.390625 377.0625 268.332031 376.777344 268.324219 C 376.339844 268.316406 376.039062 268.378906 376.191406 268.449219 C 376.300781 268.492188 376.671875 268.523438 376.925781 268.5625 C 377.394531 268.550781 377.679688 268.503906 377.519531 268.4375 Z M 370.4375 269.058594 C 370.476562 269.019531 370.109375 268.972656 369.925781 268.929688 C 369.667969 268.964844 369.246094 268.992188 369.203125 269.035156 C 369.160156 269.070312 369.527344 269.117188 369.710938 269.164062 C 369.96875 269.128906 370.386719 269.097656 370.4375 269.058594 Z M 641.691406 265.152344 C 641.242188 265.585938 640.296875 265.992188 638.585938 266.339844 C 635.847656 266.898438 632.40625 267.332031 628.664062 267.699219 C 627.230469 267.835938 625.835938 267.972656 624.605469 268.15625 C 623.996094 268.246094 623.335938 268.355469 622.585938 268.386719 C 619.730469 268.503906 618.09375 268.800781 616.863281 269.21875 C 615.941406 269.527344 613.019531 269.542969 611.449219 269.28125 C 611.160156 269.238281 610.835938 269.191406 610.597656 269.136719 C 606.621094 268.242188 607.21875 268.570312 602.351562 268.125 C 601.824219 268.078125 601.179688 268.058594 600.570312 268.039062 C 597.578125 267.941406 595.097656 268.214844 594.664062 268.695312 C 594.574219 268.792969 594.6875 268.894531 594.667969 268.992188 C 594.609375 269.308594 594.429688 269.335938 592.574219 269.324219 C 592.367188 269.320312 592.164062 269.3125 591.957031 269.308594 C 590.84375 269.28125 589.777344 269.304688 589.40625 269.503906 C 588.574219 269.941406 586.484375 270.171875 583.914062 270.222656 C 578.773438 270.320312 574.363281 270.671875 570.078125 271.097656 C 569.902344 271.113281 569.699219 271.128906 569.503906 271.136719 C 568.5 271.195312 567.457031 271.222656 566.441406 271.160156 C 565.070312 271.082031 563.722656 270.988281 562.386719 270.894531 C 558.90625 270.652344 555.335938 270.476562 551.46875 270.507812 C 550.847656 270.515625 550.214844 270.503906 549.589844 270.492188 C 546.523438 270.4375 544.394531 270.125 543.597656 269.605469 C 543.246094 269.378906 544.140625 269.117188 545.550781 269.046875 C 546.148438 269.015625 546.785156 269.015625 547.398438 268.996094 C 548.765625 268.957031 549.425781 268.882812 549.25 268.796875 C 549.066406 268.703125 548.839844 268.605469 548.449219 268.535156 C 545.242188 267.960938 541.003906 268.234375 538.816406 268.703125 C 538.363281 268.800781 538.238281 268.949219 538.191406 269.078125 C 538.128906 269.242188 538.324219 269.410156 538.367188 269.574219 C 538.375 269.597656 538.164062 269.644531 538.027344 269.648438 C 537.644531 269.65625 537.085938 269.667969 536.890625 269.636719 C 536.335938 269.542969 535.78125 269.433594 535.492188 269.3125 C 534.855469 269.054688 535.085938 268.789062 535.660156 268.53125 C 536.785156 268.023438 538.394531 267.558594 540.621094 267.152344 C 541.71875 266.953125 542.839844 266.753906 543.851562 266.539062 C 544.203125 266.46875 544.277344 266.359375 544.4375 266.261719 C 544.585938 266.175781 543.835938 266.046875 543.289062 266.066406 C 541.46875 266.136719 539.699219 266.230469 537.757812 266.175781 C 536.992188 266.15625 536.007812 266.183594 535.347656 266.246094 C 533.253906 266.453125 531.019531 266.433594 528.695312 266.441406 C 526.351562 266.453125 524.160156 266.4375 522 266.273438 C 520.761719 266.179688 519.488281 266.242188 518.554688 266.398438 C 516.980469 266.667969 515.515625 266.949219 513.953125 267.214844 C 513.054688 267.367188 511.613281 267.363281 510.574219 267.214844 C 510.265625 267.171875 509.957031 267.121094 509.707031 267.070312 C 508.289062 266.773438 506.449219 266.691406 504.160156 266.742188 C 502.523438 266.777344 500.839844 266.761719 499.175781 266.769531 C 498.339844 266.769531 497.503906 266.75 496.671875 266.753906 C 493.300781 266.78125 490.472656 266.9375 489.582031 267.539062 C 489.492188 267.601562 489.121094 267.648438 488.878906 267.703125 C 488.488281 267.789062 487.011719 267.765625 486.675781 267.664062 C 486.386719 267.578125 485.992188 267.488281 485.921875 267.394531 C 485.726562 267.140625 485.664062 266.882812 485.550781 266.625 C 483.761719 266.785156 481.945312 266.9375 480.195312 267.105469 C 478.5 267.269531 476.710938 267.351562 474.804688 267.257812 C 472.449219 267.140625 470.3125 267.1875 468.164062 267.375 C 467.273438 267.453125 466.109375 267.453125 465.195312 267.527344 C 462.78125 267.726562 460.546875 267.785156 458.246094 267.472656 C 457.257812 267.339844 455.882812 267.359375 454.652344 267.441406 C 454.074219 267.480469 453.507812 267.523438 452.945312 267.566406 C 451.527344 267.679688 450.113281 267.664062 448.691406 267.570312 C 448.304688 267.546875 447.921875 267.519531 447.539062 267.492188 C 446.125 267.390625 444.683594 267.375 443.285156 267.480469 C 441.105469 267.648438 439.253906 267.613281 437.722656 267.296875 C 437.472656 267.246094 437.160156 267.1875 436.796875 267.167969 C 436.238281 267.132812 435.613281 267.125 435.011719 267.117188 C 434.832031 267.109375 434.59375 267.132812 434.441406 267.152344 C 431.730469 267.523438 428.5 267.609375 425.0625 267.609375 C 421.101562 267.601562 417.136719 267.714844 413.175781 267.570312 C 412.210938 267.53125 411.09375 267.574219 410.089844 267.609375 C 409.078125 267.644531 408.113281 267.71875 407.132812 267.773438 C 404.929688 267.90625 402.679688 267.9375 400.339844 267.898438 C 398.898438 267.875 397.429688 267.875 395.988281 267.894531 C 394.617188 267.910156 393.320312 268.183594 393.480469 268.398438 C 393.605469 268.5625 393.832031 268.726562 394.09375 268.882812 C 394.453125 269.113281 395.015625 269.328125 395.253906 269.558594 C 395.578125 269.867188 395.085938 270.15625 393.730469 270.394531 C 393.480469 270.4375 393.035156 270.457031 392.652344 270.476562 C 392.191406 270.496094 391.425781 270.382812 391.386719 270.289062 C 391.269531 269.992188 391.21875 269.695312 391.066406 269.394531 C 390.871094 269.015625 389.890625 268.6875 388.199219 268.417969 C 387.761719 268.347656 387.230469 268.292969 386.695312 268.242188 C 385.070312 268.089844 382.453125 268.296875 382.390625 268.59375 C 382.335938 268.859375 382.453125 269.125 382.625 269.390625 C 382.75 269.585938 383.097656 269.78125 383.320312 269.976562 C 383.433594 270.074219 382.945312 270.222656 382.511719 270.222656 C 382.121094 270.222656 381.671875 270.21875 381.347656 270.191406 C 380.636719 270.125 380.015625 270.03125 379.285156 269.972656 C 379.074219 269.957031 378.355469 270.015625 378.308594 270.054688 C 378.019531 270.28125 377.871094 270.511719 377.648438 270.742188 C 377.507812 270.882812 376.382812 270.9375 375.667969 270.847656 C 375.503906 270.824219 375.34375 270.804688 375.210938 270.777344 C 373.433594 270.429688 372.261719 270.425781 370.199219 270.800781 C 369.523438 270.925781 368.671875 271.027344 367.835938 271.121094 C 367.121094 271.203125 365.503906 271.160156 364.914062 271.054688 C 364.636719 271.003906 364.316406 270.957031 364.09375 270.90625 C 363.636719 270.792969 363.203125 270.679688 362.8125 270.558594 C 361.792969 270.25 360.289062 270.035156 358.199219 269.921875 C 357.613281 269.890625 357.054688 269.839844 356.53125 269.78125 C 355.617188 269.691406 354.914062 269.554688 354.710938 269.390625 C 354.28125 269.03125 353.734375 268.667969 353.734375 268.304688 C 353.734375 267.929688 353.386719 267.582031 352.40625 267.242188 C 351.386719 266.882812 351.347656 266.519531 352.691406 266.1875 C 355.007812 265.609375 354.597656 265.132812 351.171875 264.703125 C 350.078125 264.5625 349.316406 264.34375 348.640625 264.140625 C 347.761719 263.875 347.085938 263.59375 346.382812 263.3125 C 345.511719 262.96875 345.128906 262.605469 345.394531 262.234375 C 345.730469 261.769531 345.808594 261.304688 345.4375 260.839844 C 344.925781 260.199219 346.75 259.75 350.0625 259.421875 C 352.929688 259.140625 355.957031 258.914062 359.167969 258.753906 C 362.371094 258.597656 365.496094 258.417969 368.417969 258.144531 C 369.832031 258.011719 371.539062 257.960938 373.085938 257.859375 C 374.242188 257.785156 375.382812 257.703125 376.472656 257.605469 C 377.648438 257.5 378.089844 257.292969 377.636719 257.09375 C 377.355469 256.96875 376.875 256.847656 376.71875 256.722656 C 376.519531 256.558594 376.394531 256.386719 376.535156 256.230469 C 376.734375 256 377.179688 255.773438 377.558594 255.546875 C 378.421875 255.03125 380.511719 254.675781 383.398438 254.429688 C 383.933594 254.382812 384.582031 254.367188 385.191406 254.347656 C 386.410156 254.316406 387.804688 254.476562 387.964844 254.667969 C 388.019531 254.734375 388.078125 254.800781 388.046875 254.863281 C 387.820312 255.34375 388.59375 255.527344 392.304688 255.601562 C 392.023438 255.246094 391.714844 254.894531 391.476562 254.539062 C 391.355469 254.363281 392.242188 254.238281 393.464844 254.242188 C 393.671875 254.242188 393.882812 254.246094 394.089844 254.25 C 396.453125 254.3125 398.628906 254.238281 400.71875 254.050781 C 401.796875 253.953125 402.992188 253.875 404.195312 253.824219 C 407.867188 253.683594 411.414062 253.5 414.835938 253.238281 C 416.105469 253.140625 417.664062 253.105469 419.09375 253.101562 C 421.800781 253.089844 424.535156 253.097656 427.222656 253.148438 C 429.351562 253.1875 431.363281 253.199219 433.359375 253.058594 C 435.511719 252.910156 437.804688 252.890625 440.121094 252.886719 C 445.136719 252.875 450.15625 252.894531 455.128906 252.75 C 457.007812 252.695312 458.886719 252.75 460.71875 252.824219 C 465.902344 253.035156 471.035156 253.027344 476.207031 252.789062 C 477.980469 252.710938 479.917969 252.691406 481.785156 252.6875 C 486.386719 252.683594 490.988281 252.6875 495.582031 252.71875 C 497.4375 252.730469 499.277344 252.8125 501.125 252.867188 C 502.351562 252.90625 503.621094 253.003906 504.789062 252.980469 C 510.160156 252.867188 515.675781 253.078125 520.96875 252.773438 C 523.183594 252.648438 525.535156 252.691406 527.78125 252.792969 C 529.660156 252.875 531.46875 252.855469 533.339844 252.785156 C 536.398438 252.675781 539.4375 252.558594 542.375 252.382812 C 542.917969 252.351562 543.667969 252.445312 543.65625 252.542969 C 543.644531 252.675781 543.472656 252.808594 543.5625 252.9375 C 543.65625 253.078125 544.320312 253.171875 545.089844 253.234375 C 545.273438 253.246094 545.492188 253.257812 545.695312 253.257812 C 549.28125 253.246094 552.722656 253.394531 556.210938 253.496094 C 557.234375 253.523438 558.332031 253.539062 559.25 253.609375 C 562.339844 253.847656 565.664062 253.894531 568.996094 253.945312 C 570.242188 253.964844 571.488281 253.988281 572.71875 254.027344 C 575.660156 254.117188 578.539062 254.070312 581.398438 253.949219 C 581.574219 253.941406 581.917969 253.949219 581.96875 253.96875 C 582.132812 254.023438 582.378906 254.101562 582.253906 254.144531 C 580.003906 254.933594 577.667969 255.714844 574.089844 256.382812 C 573.292969 256.53125 572.761719 256.71875 572.214844 256.894531 C 572.074219 256.941406 572.234375 257.035156 572.464844 257.074219 C 572.683594 257.113281 573.285156 257.140625 573.542969 257.121094 C 574.269531 257.058594 574.894531 256.96875 575.578125 256.894531 C 576.78125 256.765625 577.945312 256.621094 579.210938 256.507812 C 580.925781 256.355469 582.796875 256.300781 584.613281 256.457031 C 587.933594 256.746094 590.621094 256.585938 593.066406 256.191406 C 593.945312 256.046875 594.847656 255.90625 595.8125 255.78125 C 596.453125 255.699219 597.199219 255.632812 597.941406 255.574219 C 599.988281 255.414062 602.363281 255.609375 602.75 255.964844 C 603.121094 256.296875 603.074219 256.632812 602.417969 256.949219 C 601.710938 257.296875 600.753906 257.632812 599.96875 257.976562 C 598.058594 258.820312 598 258.710938 592.660156 258.75 C 591.414062 258.757812 590.160156 258.75 588.910156 258.757812 C 588.097656 258.761719 587.175781 258.921875 587.410156 259.027344 C 587.59375 259.109375 588.003906 259.226562 588.457031 259.246094 C 589.847656 259.308594 591.3125 259.332031 592.738281 259.371094 C 594.726562 259.433594 596.089844 259.652344 596.460938 259.972656 C 596.574219 260.070312 596.695312 260.171875 596.644531 260.269531 C 596.4375 260.707031 597.835938 260.957031 600.277344 261.089844 C 601.863281 261.175781 603.464844 261.25 605.0625 261.328125 C 608.0625 261.46875 611.164062 261.550781 614.039062 261.765625 C 615.144531 261.847656 616.457031 261.863281 617.683594 261.898438 C 621.816406 262.015625 625.859375 262.179688 629.644531 262.476562 C 630.378906 262.535156 631.042969 262.617188 631.695312 262.699219 C 632.363281 262.785156 632.570312 263.054688 632.070312 263.167969 C 631.589844 263.273438 631.109375 263.382812 630.53125 263.476562 C 629.363281 263.667969 628.0625 263.839844 626.929688 264.035156 C 624.78125 264.40625 622.472656 264.621094 619.199219 264.378906 C 618 264.292969 616.660156 264.375 615.71875 264.519531 C 614.832031 264.652344 614.109375 264.820312 613.386719 264.980469 C 612.941406 265.078125 613.53125 265.285156 614.265625 265.300781 C 615.292969 265.316406 616.34375 265.347656 617.355469 265.328125 C 619.859375 265.285156 622.347656 265.25 624.863281 265.296875 C 627.207031 265.339844 629.417969 265.265625 631.589844 265.125 C 633.71875 264.984375 635.894531 264.863281 638.066406 264.746094 C 638.640625 264.714844 639.292969 264.714844 639.914062 264.707031 C 640.566406 264.695312 641.578125 264.84375 641.628906 264.953125 C 641.660156 265.023438 641.757812 265.089844 641.691406 265.152344 " fill-opacity="1" fill-rule="nonzero"/></g><path fill="#000000" d="M 494.890625 270.628906 C 492.671875 270.722656 490.445312 270.804688 488.136719 270.78125 C 485.214844 270.75 482.335938 270.765625 479.464844 270.875 C 478 270.933594 476.585938 270.875 475.339844 270.730469 C 474.839844 270.667969 474.324219 270.613281 473.765625 270.570312 C 473.316406 270.535156 472.953125 270.574219 472.84375 270.648438 C 472.804688 270.679688 472.789062 270.722656 472.886719 270.746094 C 474.1875 271.035156 475.507812 271.324219 476.824219 271.613281 C 479.292969 271.589844 481.800781 271.601562 484.226562 271.535156 C 488.3125 271.425781 492.355469 271.265625 496.40625 271.125 C 497.203125 271.097656 497.953125 271.035156 498.714844 270.984375 C 499.210938 270.953125 499.675781 270.792969 499.363281 270.734375 C 498.984375 270.667969 498.445312 270.582031 497.945312 270.578125 C 496.9375 270.566406 495.871094 270.585938 494.890625 270.628906 " fill-opacity="1" fill-rule="nonzero"/><path fill="#000000" d="M 476.882812 271.625 C 476.863281 271.621094 476.84375 271.617188 476.824219 271.613281 C 476.808594 271.613281 476.789062 271.613281 476.773438 271.613281 L 476.882812 271.625 " fill-opacity="1" fill-rule="nonzero"/><g clip-path="url(#5fc1b0d0a4)"><path fill="#000000" d="M 591.972656 254.371094 C 592.554688 254.320312 593.222656 254.296875 593.605469 254.230469 C 594.296875 254.113281 594.925781 253.976562 595.390625 253.832031 C 596.238281 253.570312 596.972656 253.296875 597.675781 253.023438 C 597.777344 252.984375 597.484375 252.914062 597.292969 252.863281 C 597.234375 252.84375 596.871094 252.839844 596.722656 252.851562 C 594.148438 253.074219 591.433594 253.203125 588.484375 253.199219 C 587.824219 253.199219 587.1875 253.40625 587.367188 253.519531 C 587.851562 253.8125 588.867188 254.058594 590.285156 254.257812 C 590.707031 254.316406 591.378906 254.332031 591.972656 254.371094 " fill-opacity="1" fill-rule="nonzero"/></g><path fill="#000000" d="M 508.230469 270.558594 C 508.042969 270.566406 507.886719 270.597656 507.703125 270.609375 C 507.253906 270.640625 507.167969 270.808594 507.542969 270.871094 C 508.15625 270.976562 508.941406 271.03125 509.761719 271.007812 C 510.980469 270.980469 512.226562 270.941406 513.34375 270.863281 C 515.617188 270.707031 517.828125 270.527344 520.269531 270.4375 C 520.4375 270.433594 520.609375 270.398438 520.699219 270.371094 C 520.785156 270.347656 520.769531 270.3125 520.800781 270.28125 C 520.460938 270.25 520.085938 270.1875 519.792969 270.199219 C 515.929688 270.3125 512.078125 270.4375 508.230469 270.558594 " fill-opacity="1" fill-rule="nonzero"/><path fill="#000000" d="M 524.949219 268.3125 C 524.867188 268.339844 524.902344 268.375 524.886719 268.40625 C 524.816406 268.484375 525.574219 268.59375 526.113281 268.59375 C 528.242188 268.582031 530.046875 268.457031 531.53125 268.214844 C 532.183594 268.105469 532.203125 267.886719 531.570312 267.765625 C 531.082031 267.675781 529.984375 267.628906 529.351562 267.675781 C 527.4375 267.808594 525.871094 268.003906 524.949219 268.3125 " fill-opacity="1" fill-rule="nonzero"/><path fill="#000000" d="M 452.03125 270.160156 C 451.75 270.203125 451.28125 270.238281 451.222656 270.289062 C 450.863281 270.597656 451.367188 270.875 452.746094 271.105469 C 453.414062 271.214844 454.757812 271.214844 455.558594 271.101562 C 456.148438 271.019531 456.316406 270.851562 455.914062 270.742188 C 455.058594 270.515625 454.148438 270.296875 452.628906 270.167969 C 452.464844 270.15625 452.230469 270.160156 452.03125 270.160156 " fill-opacity="1" fill-rule="nonzero"/><path fill="#000000" d="M 416.351562 269.34375 C 415.996094 269.351562 415.523438 269.394531 415.378906 269.445312 C 414.4375 269.769531 414.886719 270.078125 416.039062 270.363281 C 416.230469 270.410156 416.671875 270.4375 417.035156 270.460938 C 417.488281 270.488281 418.289062 270.398438 418.417969 270.3125 C 418.554688 270.21875 418.675781 270.121094 418.765625 270.058594 C 418.699219 269.796875 418.550781 269.570312 417.453125 269.402344 C 417.199219 269.359375 416.703125 269.332031 416.351562 269.34375 " fill-opacity="1" fill-rule="nonzero"/><path fill="#000000" d="M 405.324219 269.503906 C 403.855469 269.5625 403.117188 269.839844 403.839844 270.046875 C 404.105469 270.125 404.960938 270.167969 405.480469 270.125 C 406.691406 270.027344 407.230469 269.839844 406.765625 269.636719 C 406.644531 269.585938 406.214844 269.550781 405.925781 269.507812 C 405.726562 269.503906 405.515625 269.496094 405.324219 269.503906 " fill-opacity="1" fill-rule="nonzero"/><path fill="#000000" d="M 434.449219 270.882812 C 434.496094 270.917969 435.070312 270.972656 435.34375 270.96875 C 436.242188 270.941406 436.695312 270.835938 436.808594 270.691406 C 436.585938 270.648438 436.375 270.566406 436.136719 270.5625 C 435.070312 270.554688 434.238281 270.710938 434.449219 270.882812 " fill-opacity="1" fill-rule="nonzero"/><path fill="#000000" d="M 446.359375 270.996094 C 446.265625 271.09375 447.082031 271.160156 447.519531 271.089844 C 447.738281 271.054688 447.746094 270.988281 447.84375 270.933594 C 447.542969 270.90625 447.1875 270.851562 446.953125 270.863281 C 446.691406 270.875 446.402344 270.945312 446.359375 270.996094 " fill-opacity="1" fill-rule="nonzero"/><g clip-path="url(#bcfaee0b5c)"><path fill="#000000" d="M 449.828125 272.410156 C 450.023438 272.457031 450.15625 272.527344 450.421875 272.542969 C 450.726562 272.5625 451.238281 272.546875 451.480469 272.515625 C 451.691406 272.484375 451.820312 272.390625 451.679688 272.359375 C 451.515625 272.320312 451.007812 272.296875 450.691406 272.304688 C 450.375 272.3125 450.113281 272.371094 449.828125 272.410156 " fill-opacity="1" fill-rule="nonzero"/></g><path fill="#000000" d="M 482.488281 268.304688 C 482.199219 268.324219 481.910156 268.390625 481.851562 268.441406 C 481.765625 268.511719 482.109375 268.550781 482.570312 268.542969 C 482.789062 268.496094 483.136719 268.453125 483.195312 268.402344 C 483.277344 268.332031 482.894531 268.277344 482.488281 268.304688 " fill-opacity="1" fill-rule="nonzero"/><path fill="#000000" d="M 497.613281 267.515625 C 497.292969 267.539062 496.804688 267.554688 496.707031 267.597656 C 496.617188 267.632812 496.9375 267.695312 497.074219 267.746094 C 497.390625 267.722656 497.707031 267.695312 498.023438 267.671875 C 497.882812 267.617188 497.75 267.566406 497.613281 267.515625 " fill-opacity="1" fill-rule="nonzero"/><path fill="#000000" d="M 529.566406 270.152344 C 529.484375 270.15625 529.359375 270.207031 529.402344 270.230469 C 529.453125 270.253906 529.6875 270.285156 529.816406 270.28125 C 530.160156 270.273438 530.488281 270.25 530.824219 270.230469 C 530.761719 270.207031 530.726562 270.15625 530.640625 270.15625 C 530.289062 270.144531 529.921875 270.144531 529.566406 270.152344 " fill-opacity="1" fill-rule="nonzero"/><path fill="#000000" d="M 461.675781 270.792969 C 461.65625 270.832031 462.015625 270.878906 462.210938 270.921875 C 462.464844 270.886719 462.902344 270.855469 462.925781 270.820312 C 462.949219 270.78125 462.585938 270.734375 462.386719 270.691406 C 462.132812 270.722656 461.695312 270.753906 461.675781 270.792969 " fill-opacity="1" fill-rule="nonzero"/><path fill="#000000" d="M 470.960938 268.105469 C 471.199219 268.144531 471.4375 268.179688 471.675781 268.21875 C 471.929688 268.183594 472.183594 268.144531 472.433594 268.109375 C 472.195312 268.074219 471.953125 268.007812 471.714844 268.007812 C 471.464844 268.007812 471.210938 268.070312 470.960938 268.105469 " fill-opacity="1" fill-rule="nonzero"/><path fill="#000000" d="M 514.804688 268.453125 C 514.6875 268.460938 514.671875 268.503906 514.605469 268.527344 C 514.746094 268.546875 514.886719 268.574219 515.023438 268.574219 C 515.167969 268.574219 515.414062 268.550781 515.433594 268.527344 C 515.519531 268.449219 515.265625 268.417969 514.804688 268.453125 " fill-opacity="1" fill-rule="nonzero"/></svg>