<svg width="78" height="78" viewBox="0 0 78 78" fill="none" xmlns="http://www.w3.org/2000/svg">
<path d="M68.25 31.6874H65.6998C65.0873 25.0296 62.0095 18.8408 57.0701 14.3349C52.1306 9.82898 45.6859 7.33105 39 7.33105C32.3141 7.33105 25.8694 9.82898 20.9299 14.3349C15.9905 18.8408 12.9127 25.0296 12.3002 31.6874H9.75C9.10353 31.6874 8.48355 31.9442 8.02643 32.4013C7.56931 32.8585 7.3125 33.4784 7.3125 34.1249C7.32321 39.9216 8.91848 45.6052 11.9258 50.5608C14.9331 55.5164 19.238 59.5556 24.375 62.2415V63.3749C24.375 64.6678 24.8886 65.9078 25.8029 66.8221C26.7171 67.7363 27.9571 68.2499 29.25 68.2499H48.75C50.0429 68.2499 51.2829 67.7363 52.1971 66.8221C53.1114 65.9078 53.625 64.6678 53.625 63.3749V62.2415C58.762 59.5556 63.0669 55.5164 66.0742 50.5608C69.0815 45.6052 70.6768 39.9216 70.6875 34.1249C70.6875 33.4784 70.4307 32.8585 69.9736 32.4013C69.5165 31.9442 68.8965 31.6874 68.25 31.6874ZM60.7973 31.6874H45.1303C48.0855 27.2539 52.5564 24.0505 57.7048 22.6778C59.3881 25.4159 60.4442 28.4927 60.7973 31.6874ZM52.8572 17.1325C53.4158 17.5895 53.951 18.0719 54.4629 18.5797C47.9742 20.8623 42.6121 25.5534 39.4875 31.6813H30.4992C32.0227 27.4109 34.8274 23.715 38.5303 21.0984C42.2331 18.4819 46.6535 17.0724 51.1875 17.0624C51.7451 17.0624 52.3027 17.0898 52.8572 17.1325ZM39 12.1874C40.956 12.1887 42.903 12.4521 44.7891 12.9705C40.1957 14.1099 35.9838 16.44 32.578 19.726C29.1722 23.012 26.6928 27.1378 25.3896 31.6874H17.2027C17.8073 26.3275 20.3632 21.3776 24.3832 17.7813C28.4032 14.185 33.6061 12.1938 39 12.1874ZM50.1698 58.4999C49.7447 58.6953 49.3847 59.0089 49.1329 59.4033C48.8811 59.7977 48.7482 60.2562 48.75 60.7241V63.3749H29.25V60.7241C29.2518 60.2562 29.1189 59.7977 28.8671 59.4033C28.6153 59.0089 28.2553 58.6953 27.8302 58.4999C23.5436 56.5274 19.8512 53.462 17.1238 49.6114C14.3963 45.7609 12.7296 41.2606 12.2911 36.5624H65.6998C65.2621 41.2597 63.5968 45.7593 60.871 49.6097C58.1452 53.4602 54.4547 56.5261 50.1698 58.4999Z" fill="black"/>
</svg>
