<svg width="223" height="223" viewBox="0 0 223 223" fill="none" xmlns="http://www.w3.org/2000/svg">
<path d="M71.0186 144.074L80.7179 153.206L133.735 96.9L143.434 106.033L152.27 96.6483L142.571 87.5156L151.407 78.1312L141.707 68.9986L132.871 78.383L123.172 69.2503L114.336 78.6347L124.035 87.7673L71.0186 144.074ZM95.8004 78.8864L104.637 69.502L114.336 78.6347L105.5 88.019L95.8004 78.8864ZM95.8004 78.8864L86.9643 88.2707L77.265 79.1381L86.1011 69.7537L95.8004 78.8864ZM144.297 124.55L153.133 115.165L143.434 106.033L134.598 115.417L144.297 124.55ZM144.297 124.55L135.461 133.934L145.16 143.067L153.996 133.682L144.297 124.55Z" fill="black"/>
</svg>
